<svg width="166" height="73" viewBox="0 0 166 73" fill="none" xmlns="http://www.w3.org/2000/svg">
<g clip-path="url(#clip0_3178_11617)">
<path d="M165.689 71.4873H0V73.1473H165.689V71.4873Z" fill="#A7A7A7"/>
<path fill-rule="evenodd" clip-rule="evenodd" d="M13.1763 13.2851V49.389H8.92252C9.54502 48.9741 10.2713 48.1441 10.2713 45.7579V13.2851H13.1763ZM0.20752 61.1125H6.64002V53.6427H14.7325V61.1125H21.165V49.389H19.505V8.92773H3.83877V45.7579C3.83877 47.3141 3.52752 49.389 0.72627 49.389H0.20752V61.1125Z" fill="#A7A7A7"/>
<path fill-rule="evenodd" clip-rule="evenodd" d="M34.4452 37.3549V16.813H35.2752C36.4164 16.7092 37.3502 17.5392 37.4539 18.6804C37.4539 18.7842 37.4539 18.9916 37.4539 19.0954V35.1762C37.5577 36.3174 36.7277 37.2511 35.6902 37.3549C35.5864 37.3549 35.3789 37.3549 35.2752 37.3549H34.4452ZM28.1164 57.378H34.5489V41.401H38.0764C40.3589 41.401 43.8864 41.1935 43.8864 34.5537V19.1991C43.8864 12.6631 40.2552 12.6631 38.0764 12.6631H28.0127L28.1164 57.378Z" fill="#A7A7A7"/>
<path fill-rule="evenodd" clip-rule="evenodd" d="M128.754 41.7122V51.7757C128.857 52.6057 129.48 53.2281 130.31 53.2281C131.14 53.2281 131.762 52.5019 131.762 51.7757V39.0148C131.762 37.7698 131.555 36.0061 128.442 36.0061H125.952V31.96H128.442C131.555 31.96 131.762 30.4038 131.762 28.8476V17.9542C131.762 17.228 131.14 16.7092 130.517 16.7092C130.414 16.7092 130.414 16.7092 130.31 16.7092C129.687 16.7092 128.65 17.1242 128.65 17.9542V26.9802H122.217V19.7179C122.217 17.4354 122.529 12.6631 128.442 12.6631H131.659C137.884 12.6631 138.091 17.228 138.091 19.7179V28.9514C138.091 30.3001 137.78 33.4125 133.319 33.62V34.035C138.091 33.9312 138.091 38.0811 138.091 38.9111V50.5307C138.091 57.378 134.771 57.2743 131.659 57.2743H128.027C122.217 57.2743 122.217 52.5019 122.217 50.5307V41.6085L128.754 41.7122Z" fill="#A7A7A7"/>
<path fill-rule="evenodd" clip-rule="evenodd" d="M156.04 13.2851V45.8617C156.04 48.1441 156.87 49.0778 157.389 49.4928H153.135V13.2851H156.04ZM166 49.4928H165.585C162.784 49.4928 162.473 47.5216 162.473 45.8617V8.92773H146.806V49.389H145.146V61.1125H151.579V53.6427H159.671V61.1125H166.104L166 49.4928Z" fill="#A7A7A7"/>
<path fill-rule="evenodd" clip-rule="evenodd" d="M93.1673 3.94802C90.9885 2.39181 88.4985 1.35434 85.801 0.939355C84.971 0.835608 84.2448 0.835608 83.4148 0.835608C79.991 0.731861 76.671 1.87308 73.8698 3.94802C71.4835 5.71171 70.1348 8.61663 70.1348 11.6253C70.3423 14.634 71.8985 17.4351 74.3885 19.1988C76.5673 20.755 79.0573 21.7925 81.7548 22.2075C82.5848 22.3112 83.311 22.415 84.141 22.3112C87.5648 22.415 90.8848 21.2738 93.686 19.1988C96.0723 17.4351 97.5248 14.634 97.5248 11.6253C97.3173 8.51288 95.6573 5.71171 93.1673 3.94802ZM92.7523 18.3688C90.2623 20.2363 87.2535 21.2738 84.141 21.17C83.4148 21.17 82.6885 21.17 81.9623 21.0663C79.576 20.755 77.1898 19.8213 75.2185 18.3688C73.0398 16.8126 71.5873 14.3227 71.3798 11.5215C71.3798 8.82412 72.6248 6.3342 74.8035 4.77799C77.2935 2.8068 80.3023 1.87308 83.4148 1.87308C84.141 1.87308 84.8673 1.87308 85.5935 1.97682C87.9798 2.28807 90.366 3.22179 92.3373 4.67425C94.6198 6.23045 95.9685 8.72038 96.176 11.4178C96.176 14.219 94.931 16.7089 92.7523 18.3688Z" fill="#A7A7A7"/>
<path fill-rule="evenodd" clip-rule="evenodd" d="M80.0949 40.7782C81.4436 40.882 82.7924 40.9857 84.1412 40.9857C90.3662 40.882 96.2799 38.807 101.052 34.8647C105.306 31.441 107.9 26.3574 107.9 20.8588C107.692 15.3602 104.995 10.2766 100.637 7.06047C96.7987 4.15556 92.3374 2.28811 87.5649 1.76938L87.7724 0.731908C92.7524 1.25064 97.5249 3.22183 101.467 6.2305C106.136 9.65414 108.937 15.049 109.145 20.8588C109.145 21.8963 109.041 22.9338 108.937 23.8675L108.73 24.9049C107.692 29.1586 105.306 32.9972 101.882 35.7984C96.9024 39.9482 90.5737 42.2307 84.1412 42.2307C82.6887 42.2307 81.2362 42.1269 79.8874 42.0232L80.0949 40.7782ZM83.6224 1.56188C84.9712 1.45814 86.3199 1.56188 87.6687 1.76938L87.8762 0.731908C86.4237 0.524414 84.9712 0.524414 83.6224 0.524414C77.1899 0.524414 70.8612 2.80685 65.8812 6.95673C62.4574 9.75789 60.0712 13.5965 59.0337 17.8502L58.8262 18.8876C58.7224 19.9251 58.6187 20.8588 58.6187 21.8963C58.8262 27.7061 61.6274 33.101 66.2962 36.5246C70.2387 39.5333 75.0112 41.5045 79.9912 42.1269L80.1987 40.9857C75.4262 40.467 70.9649 38.5995 67.1261 35.6946C62.6649 32.1672 59.8637 27.2911 59.8637 21.8963C59.8637 16.3977 62.3537 11.2103 66.7112 7.7867C71.3799 3.74057 77.3974 1.56188 83.6224 1.56188Z" fill="#A7A7A7"/>
<path fill-rule="evenodd" clip-rule="evenodd" d="M88.7065 2.08095C88.084 2.39219 87.5652 2.70343 87.1502 3.22217L87.4615 1.35472C87.8765 1.25098 88.914 1.56222 89.0177 1.87346V1.9772C89.0177 1.9772 88.914 1.97721 88.7065 2.08095ZM75.219 64.9516C75.3227 65.1591 75.3227 65.3666 75.4265 65.5741L75.5302 65.9891C75.4265 65.8853 75.219 65.7816 75.1152 65.7816L75.219 64.9516ZM87.1502 3.11842L87.4615 1.25098C87.3577 1.25098 87.254 1.35472 87.1502 1.35472L86.7352 3.32592C86.9427 3.32592 87.0465 3.22217 87.1502 3.11842ZM75.1152 64.5366L74.9077 65.3666L74.804 65.6778C74.9077 65.6778 74.9077 65.6778 75.0115 65.6778L75.1152 64.9516C75.219 64.8478 75.1152 64.6404 75.1152 64.5366ZM86.839 3.42966L87.254 1.45847C83.2077 3.63716 78.4352 16.398 75.5302 30.5076C75.5302 30.6114 75.5302 30.8189 75.4265 30.9226L74.7002 34.6575C72.5215 46.5884 71.7952 58.7268 73.8702 65.7816C74.1815 65.6778 74.4927 65.6778 74.804 65.6778L74.9077 65.3666L75.1152 64.5366C73.0402 57.1706 74.1815 43.1647 76.9827 30.3001C79.4727 18.3692 83.2077 7.47579 86.839 3.42966Z" fill="#A7A7A7"/>
<path fill-rule="evenodd" clip-rule="evenodd" d="M50.1113 29.8851C52.6013 23.4528 56.6476 17.9542 61.9388 13.8043C67.0226 9.86192 73.2476 7.57949 79.6801 7.06076C87.4613 6.64577 95.0351 8.82446 101.468 13.1818C108.315 17.8504 113.606 24.2827 116.926 31.96V32.0638C116.926 32.2713 116.926 32.4788 116.926 32.79C116.926 32.9975 116.926 33.205 116.926 33.5162L116.304 33.62C113.191 25.9427 108.004 19.4066 101.26 14.6343C95.0351 10.1732 87.4613 7.99448 79.7838 8.51321C73.2476 8.9282 67.0226 11.4181 62.0426 15.568C56.7513 19.9254 52.8088 25.7352 50.7338 32.2713L50.1113 32.0638C50.1113 31.7525 50.1113 31.4413 50.2151 31.0263C50.3188 30.6113 50.1113 30.3001 50.1113 29.8851Z" fill="#A7A7A7"/>
<path fill-rule="evenodd" clip-rule="evenodd" d="M77.9163 1.25046H78.02C78.3313 1.14672 78.6425 1.04297 78.9538 1.04297C83.1038 2.70292 88.395 15.4638 91.9225 29.7809C95.1388 42.7492 96.7988 56.9626 94.7238 65.0548V65.2623L94.62 65.3661C94.3088 65.4698 93.9975 65.4698 93.6863 65.3661H93.5825H93.1675L93.2713 64.9511C95.5538 57.7926 93.8938 43.1642 90.5738 29.6771C87.15 15.8788 82.0663 3.42915 77.8125 1.87294C77.5013 1.7692 77.5013 1.66545 77.605 1.35421C77.605 1.45796 77.7088 1.45796 77.9163 1.25046C78.02 1.14672 77.8125 1.25046 77.9163 1.25046Z" fill="#A7A7A7"/>
<path fill-rule="evenodd" clip-rule="evenodd" d="M116.2 34.3458V34.242L116.304 34.1383L116.926 33.5158L117.445 32.9971V33.7233C117.653 40.8818 114.125 47.5216 108.315 52.3978C101.675 57.5851 93.5825 60.49 85.1788 60.6975C76.9825 61.0087 68.7863 58.8301 61.835 54.4727C55.4025 50.3228 50.9413 44.3055 49.6963 37.4582V37.3544L50.0075 33.827H50.7338C50.7338 33.9308 50.7338 34.1383 50.7338 34.3458C50.8375 36.1095 51.045 37.7694 51.5638 39.4294C53.3275 45.343 57.7888 50.5303 63.8063 54.0577C70.2388 57.7926 77.605 59.66 85.075 59.3488C93.0638 59.245 100.845 56.4439 107.174 51.5678C112.776 47.1067 116.096 40.9856 116.2 34.3458Z" fill="#A7A7A7"/>
<path fill-rule="evenodd" clip-rule="evenodd" d="M70.3427 3.42969H70.5502C80.4064 4.46716 89.5364 9.03202 96.3839 16.0868C103.543 23.3491 108.211 32.6863 109.56 42.7498C109.871 44.8247 109.975 46.8997 109.975 48.9746C109.975 51.0495 109.768 53.1245 109.456 55.0957L109.353 55.3032L108.73 55.9256L108.108 55.7181C108.419 53.6432 108.626 51.4645 108.73 49.3896C108.834 47.2109 108.626 45.0322 108.315 42.9573C106.966 32.8938 102.298 23.6603 95.1389 16.6056C88.1877 9.55076 79.1614 5.29713 69.4089 4.5709L69.3052 3.94842C69.5127 3.84468 69.7202 3.84468 69.8239 3.74093C70.0314 3.63718 70.1352 3.53343 70.3427 3.42969Z" fill="#A7A7A7"/>
<path fill-rule="evenodd" clip-rule="evenodd" d="M57.6849 49.2856C56.2324 37.7697 59.2412 27.1875 65.3624 19.199C71.4837 11.003 80.9249 6.02313 91.0924 5.5044C92.9599 5.40065 94.8274 5.5044 96.6949 5.60815C98.5624 5.81564 100.43 6.12688 102.194 6.64562L102.297 6.74936C102.505 6.85311 102.712 7.0606 102.92 7.16435C103.127 7.2681 103.439 7.47559 103.646 7.68309L103.335 8.30557C101.364 7.68309 99.2887 7.2681 97.2137 7.0606C95.3462 6.74936 93.3749 6.74936 91.2999 6.85311C81.4437 7.2681 72.3137 12.1442 66.3999 20.029C60.4862 27.7062 57.5812 38.0809 58.9299 49.1819C59.1374 50.6343 59.3449 51.983 59.6562 53.4355C59.9674 54.7842 60.2787 56.2367 60.7974 57.5854L60.2787 57.8966L59.5524 57.2741L59.4487 57.1704C59.0337 55.8217 58.7224 54.6805 58.4112 53.3317C58.0999 51.983 57.8924 50.6343 57.6849 49.2856Z" fill="#A7A7A7"/>
<path fill-rule="evenodd" clip-rule="evenodd" d="M54.0538 38.3923L53.6388 37.7698L53.8463 36.4211L52.9126 32.7899L53.2238 31.7525V30.4038L53.3276 29.2625L53.8463 29.3663L54.3651 29.5738L54.7801 29.6775L54.5726 28.9513L55.1951 28.6401L56.2326 29.0551L56.5438 28.7438V25.6314L57.1663 23.8677L57.2701 22.8302L58.2038 22.3115L59.5526 20.1328L60.0713 19.1991L61.1088 18.5766L61.6276 18.1616L62.2501 18.0579L62.4576 18.6804L63.2876 19.3028L63.1838 20.1328L63.8063 19.9253L64.2213 18.8879H64.8438L65.5701 18.5766L66.0888 17.7466L67.9563 16.9167L69.3051 16.1904H70.6538L70.7576 17.6429L70.3426 19.4066L69.8239 20.7553L69.2013 21.274L68.4751 20.6515V19.8216L68.3713 19.0953L68.7864 18.5766L68.1638 18.6804L67.7489 19.1991C67.7489 19.1991 67.8526 19.3028 67.3338 19.5103C67.0226 19.6141 66.7113 19.9253 66.5038 20.2366V20.7553L66.6076 20.9628H66.9188L67.0226 20.4441L67.2301 20.7553V21.274V21.689L67.6451 21.7928L67.8526 21.689L68.3713 21.7928L68.9938 22.104L69.3051 22.519L69.5126 22.8302L70.0313 22.3115L70.8614 21.8965L71.0688 22.2078L70.8614 22.6227L70.1351 22.8302L70.0313 23.349L70.4464 23.5565H71.0688L71.8989 23.9714L72.4176 24.3864L72.8326 24.6977V25.3202L73.0401 25.6314L73.4551 25.7351L73.7663 26.2539L74.1813 26.1501L74.3888 25.7351L74.5963 25.1127L74.8038 26.5651L75.1151 26.9801L75.5301 27.6026L75.4263 28.2251L75.5301 28.6401L76.0489 28.9513L76.2563 28.3288V27.6026L76.9826 27.1876L77.1901 26.7726L78.1239 26.2539L78.5388 25.9426L78.8501 25.6314L79.1614 26.3576L78.7463 26.9801L78.2276 27.6026L77.6051 28.8476L76.7751 29.9888L76.3601 30.3L75.8413 30.6113V30.9225L76.2563 31.13L76.7751 30.6113L77.1901 30.1963L77.7088 29.9888L78.0201 30.4038L78.2276 30.715V30.4038L77.9163 29.7813V29.1588L78.2276 28.6401L78.5388 28.0176L78.9538 27.4988L79.2651 26.9801L79.5763 26.4614L79.7838 26.5651L79.6801 27.3951V28.1213L80.1989 29.0551L80.0951 28.1213L80.7176 28.2251L80.8214 29.0551L80.7176 29.5738V30.4038L80.9251 30.1963L81.0288 29.2625L81.2364 28.5363L81.0288 28.0176L81.2364 27.6026L81.6513 27.0839H82.1701L82.8964 27.3951L83.0001 26.8764L83.6226 26.4614L84.4526 26.2539H85.2826L86.0089 26.4614L86.6313 26.3576L87.3576 25.7351L88.0839 25.0089L88.2913 24.9052L88.6026 25.5277C88.6026 25.5277 88.6026 25.8389 88.8101 25.9426L89.5364 26.2539V26.6689L89.4326 27.8101C89.4326 27.8101 89.5364 27.9138 89.1213 28.1213C88.7063 28.3288 88.1876 28.9513 87.9801 29.0551C87.7726 29.1588 87.7726 29.2625 87.5651 29.47C87.4613 29.6775 87.2538 29.7813 87.2538 30.0925L87.1501 30.4038L88.8101 29.7813L88.9138 29.2625L89.3288 29.1588L89.6401 29.3663L90.1589 29.885L90.8851 29.3663H91.3001L91.4038 29.6775L92.0263 29.9888L92.4413 29.6775V28.8476H93.2714L93.7901 29.3663L94.9313 31.0262H95.5538V30.6113H96.2801L96.9026 30.0925L97.2138 29.7813L97.6288 29.5738V28.8476L97.2138 28.0176L97.5251 27.7063L98.0438 27.6026H98.7701L99.1851 28.3288L99.4963 27.9138L99.8076 27.2914L100.949 26.9801L101.26 27.1876L101.675 26.6689L102.09 26.3576L102.609 25.8389L103.128 26.0464L103.231 26.4614L104.165 26.6689L104.373 25.6314L104.476 24.8014L104.891 24.4902L105.099 23.8677H105.929L106.033 23.4527L105.41 23.2452L105.099 22.934L105.514 22.4152L106.033 21.5853L107.174 20.7553L108.315 20.1328L108.938 19.3028L109.353 18.7841L109.871 18.2654L110.909 18.4729L110.701 19.1991L111.013 19.3028L111.428 19.8216L111.22 20.2366L110.183 20.7553L109.768 21.274V21.689L109.975 22.3115V22.8302L109.768 23.2452V23.6602L110.494 23.5565H111.22L111.531 24.0752L111.22 24.5939L111.116 25.8389L111.22 26.7726L111.428 27.6026L111.531 28.8476L111.428 29.1588L111.013 29.5738L111.116 30.6113L110.598 30.8188V31.3375L110.183 31.7525L110.39 32.4787L110.701 33.5162L111.531 34.1387L111.843 34.5536L112.361 35.2799L112.05 35.9023L112.154 36.3173L112.258 37.0436L112.465 37.4586L112.776 38.081V38.911L112.465 39.2223L112.569 39.8447L112.776 40.4672L112.569 40.7785L112.465 41.1934L111.739 40.571L111.116 40.0522L110.39 38.8073L109.975 37.5623L109.664 36.8361L109.249 36.3173L109.768 35.3836L109.56 34.4499L109.456 32.9974V32.375V31.2337L109.249 30.6113L108.834 30.1963L108.626 30.6113V30.9225L108.834 31.3375V31.8562L108.73 32.2712V32.7899V33.1012L108.004 32.4787L107.796 32.8937L107.485 33.2049L107.381 33.8274L107.07 34.8649L107.381 35.6949L107.9 35.7986L107.796 36.2136L107.485 36.9398L107.381 37.2511L106.966 37.4586L106.655 37.1473L106.24 37.2511L105.929 37.4586L105.825 38.1848L104.891 38.911L104.061 39.4297L103.543 40.3635L103.439 40.986L103.128 41.4009L103.024 42.0234V42.8534L102.713 43.4759L102.401 43.7871L101.883 45.2396V45.8621H102.194L102.505 46.1733L103.024 45.8621L103.231 46.0696L103.543 45.7583L103.75 45.2396H104.165L104.684 45.6546L105.203 46.7958L105.306 47.8332L105.825 48.9745L106.033 49.8044L105.825 51.0494L105.721 52.0869L104.891 53.6431L104.684 54.888L104.165 55.4068C104.165 55.4068 103.854 55.8218 103.75 55.9255C103.543 56.0293 103.231 56.133 103.024 56.3405H101.986L101.468 55.8218L102.09 55.0955L102.505 54.6805L102.816 53.9543V53.2281V52.5019H102.401L101.571 52.8131H100.845L100.534 52.3981L100.015 52.2944L99.4963 52.0869L98.6663 51.9831L98.0438 51.3606L97.7326 50.3232L97.0063 49.2857L96.3839 49.0782H95.7614L94.6201 49.4932L94.3088 49.8044L94.4126 50.6344L94.3088 51.4644L93.9976 52.1906C93.9976 52.3981 93.8938 52.6056 93.8938 52.8131L93.5826 53.1243L92.8563 53.2281H92.2338H91.1964L90.6776 53.4356L90.2626 53.8506L89.8476 54.5768C89.5363 54.5768 89.2251 54.5768 88.9138 54.5768L86.6313 53.9543L86.3201 53.3318L85.3864 53.2281H84.6601L84.3489 52.6056L84.0376 51.9831C83.9338 51.7756 83.8301 51.6719 83.6226 51.5681L82.5851 51.2569H82.1701L81.4438 51.7756L81.3401 52.3981L80.9251 52.9169L79.9913 52.5019L79.2651 51.3606L78.7463 50.9457H77.7088L76.7751 51.2569L75.5301 51.6719C75.5301 51.6719 75.5301 51.8794 75.3226 51.5681L74.7001 50.7382L74.2851 49.8044L73.4551 48.2482L72.4176 47.7295L71.7951 46.7958V45.8621C71.6913 45.6546 71.6913 45.5508 71.5876 45.3433C71.4838 44.8246 71.3801 44.3059 71.2763 43.7871L70.9651 43.1646H69.8239L69.4088 42.4384L68.8901 41.7122L68.9938 40.8822L68.5788 40.2597L68.3713 39.6372L66.8151 39.2223L65.7776 39.0148L64.8438 38.1848L64.0138 38.496L63.3913 39.0148H63.2876L62.3538 38.911L62.0426 37.8735L61.5238 37.1473L61.0051 36.0061L60.6938 35.0724L60.3826 34.4499C60.3826 34.4499 60.0713 33.8274 59.8638 33.8274C59.5526 33.7237 59.2413 33.6199 59.0338 33.5162C58.7226 33.5162 58.4113 33.5162 58.2038 33.5162C57.7888 33.6199 57.4776 33.9312 57.1663 34.1387C57.0626 34.4499 57.0626 34.8649 56.9588 35.2799L56.6476 35.5911H55.1951L55.0913 35.7986L54.9876 36.3173L54.6763 37.1473L54.0538 38.3923Z" fill="#A7A7A7"/>
<path fill-rule="evenodd" clip-rule="evenodd" d="M70.1351 22.3115L70.0313 22.4152L70.6538 22.3115L70.7576 22.104L70.1351 22.3115ZM75.9451 30.715L76.0489 30.8188L76.3601 30.6113L75.9451 30.715ZM101.571 55.9255L102.09 55.4068L102.505 54.9918C102.505 54.9918 102.505 54.9918 102.505 54.888L102.816 54.1618V54.0581V53.3318V52.6056C102.816 52.5019 102.713 52.3981 102.609 52.3981H102.194H102.09L101.26 52.7094H100.638V52.3981L100.534 52.2944L100.015 52.1906L99.4963 51.9831L98.6663 51.8794L98.2513 51.3606L97.9401 50.3232C97.9401 50.3232 97.9401 50.3232 97.9401 50.2194L97.1101 49.2857C97.1101 49.2857 97.1101 49.182 97.0063 49.182L96.3839 48.9745H96.2801H95.6576H95.5538L94.4126 49.3895V49.4932L94.1013 49.8044C94.1013 49.8044 93.9976 49.9082 94.1013 49.9082L94.2051 50.7382L94.1013 51.5681C94.1013 51.6719 93.8938 52.0869 93.7901 52.2944C93.6864 52.5019 93.6864 52.7094 93.6864 52.9169L93.3751 53.1243L92.7526 53.2281H92.1301H91.0926H90.9888L90.5739 53.3318H90.4701L90.0551 53.7468L89.7438 54.4731H89.4326C89.2251 54.4731 89.1213 54.4731 88.9138 54.4731L86.7351 53.8506L86.4239 53.2281C86.4239 53.1243 86.3201 53.1243 86.3201 53.1243L85.3864 53.0206H84.7638L84.5563 52.5019L84.2451 51.9831C84.1413 51.7756 84.0376 51.5681 83.7263 51.4644C83.5188 51.3606 82.5851 51.1531 82.5851 51.1531H82.4813L82.0663 51.2569H81.9626L81.2364 51.7756L81.1326 51.8794V52.3981L80.8214 52.7094L80.0951 52.2944L79.3688 51.2569L78.8501 50.8419H78.7463H77.7088H77.6051L76.6714 51.2569L75.4263 51.6719L74.8038 50.8419L74.3888 50.0119L73.6626 48.352C73.6626 48.352 73.6626 48.2482 73.5588 48.2482L72.6251 47.6258L72.0026 46.7958V45.8621V45.7583C71.8988 45.6546 71.8989 45.4471 71.8989 45.3433C71.8989 45.1358 71.5876 43.9946 71.5876 43.7871L71.2763 43.1646C71.2763 43.0609 71.1726 43.0609 71.0688 43.0609H70.0313L69.7201 42.4384L69.2013 41.8159L69.3051 41.0897V40.986L68.8901 40.3635L68.6826 39.741C68.6826 39.6372 68.5788 39.6372 68.5788 39.6372L67.0226 39.2223L65.9851 39.0148L65.0513 38.1848C64.9476 38.1848 64.9476 38.1848 64.8438 38.1848L64.0138 38.496L63.3913 39.0148H63.2876L62.6651 38.911L62.4576 37.9773C62.4576 37.9773 62.4576 37.9773 62.4576 37.8735L61.9388 37.1473L61.4201 36.0061L61.1088 35.0724L60.7976 34.4499C60.4863 33.9312 60.2788 33.7237 60.0713 33.7237C59.7601 33.6199 59.5526 33.5162 59.2413 33.4124C59.2413 33.4124 58.8263 33.3087 58.5151 33.3087C58.4113 33.3087 58.3076 33.3087 58.2038 33.3087C58.1001 33.3087 57.1663 33.7237 57.0626 34.1387C56.9588 34.5536 56.9588 34.9686 56.8551 35.1761L56.6476 35.3836H55.2988C55.1951 35.3836 55.0913 35.4874 55.0913 35.4874L54.9876 36.4211L54.1576 38.1848L53.9501 37.9773L54.1576 36.7323V36.6286L53.2238 33.1012L53.5351 32.0637C53.5351 32.0637 53.5351 32.0637 53.5351 31.96V30.715L53.6388 29.7813L53.9501 29.885L54.8838 30.3C54.9876 30.3 54.9876 30.3 55.0913 30.3C55.1951 30.3 55.1951 30.1963 55.1951 30.0925L54.9876 29.47L55.4026 29.2625L56.4401 29.6775C56.5438 29.6775 56.6476 29.6775 56.6476 29.5738L56.9588 29.2625C56.9588 29.2625 57.0626 29.1588 56.9588 29.1588L56.8551 26.0464L57.4776 24.2827L57.5813 23.349L58.4113 22.8302C58.4113 22.8302 58.4113 22.8302 58.5151 22.7265L59.9676 20.5478L60.4863 19.7178L61.5238 19.0953L62.0426 18.6804L62.4576 18.5766L62.6651 18.9916V19.0953L63.3913 19.7178L63.2876 20.4441C63.2876 20.5478 63.2876 20.5478 63.3913 20.6515C63.4951 20.6515 63.4951 20.6515 63.5988 20.6515L64.2213 20.4441C64.3251 20.4441 64.3251 20.3403 64.3251 20.3403L64.7401 19.4066H65.2588L65.9851 19.0953C65.9851 19.0953 66.0888 19.0953 66.0888 18.9916L66.5038 18.2654L68.3713 17.5391L69.7201 16.8129H70.7576L70.8614 18.0579L70.5501 19.7178L70.0313 21.0665L69.6163 21.3778L69.0976 20.7553V20.0291L68.9938 19.4066L69.4088 18.8879C69.4088 18.7841 69.4088 18.7841 69.4088 18.6804C69.4088 18.5766 69.3051 18.5766 69.2013 18.5766L68.5788 18.6804C68.4751 18.6804 68.4751 18.6804 68.4751 18.7841L68.1638 19.4066C68.0601 19.5103 67.9563 19.5103 67.8526 19.5103C67.4376 19.7178 67.1263 19.9253 66.9188 20.2366V20.3403V20.859V20.9628L67.0226 21.1703C67.0226 21.274 67.1264 21.274 67.2301 21.274H67.5413H67.6451V21.7928C67.6451 21.8965 67.7489 22.0003 67.7489 22.0003L68.1638 22.104H68.2676L68.3713 22.0003L68.7864 22.104L69.3051 22.4152L69.6163 22.8302L69.8239 23.1415L69.9276 23.2452C70.0313 23.2452 70.0313 23.2452 70.0313 23.1415L70.3426 22.8302L70.0313 23.349C70.0313 23.4527 70.0313 23.5565 70.1351 23.5565L70.5501 23.6602H70.6538H71.1726L71.8989 24.0752L72.7288 24.8014V25.3202V25.4239L72.9364 25.7351L73.0401 25.8389L73.3513 25.9426L73.6626 26.3576C73.6626 26.4614 73.7663 26.4614 73.8701 26.4614L74.2851 26.3576C74.3888 26.3576 74.3888 26.3576 74.3888 26.2539L74.5963 25.9426L74.7001 26.5651C74.7001 26.5651 74.7001 26.5651 74.7001 26.6689L75.0114 27.0839L75.3226 27.6026L75.2188 28.2251C75.2188 28.2251 75.2188 28.2251 75.2188 28.3288L75.3226 28.7438L75.4263 28.8476L75.9451 29.1588H76.0489C76.1526 29.1588 76.1526 29.0551 76.1526 29.0551L76.3601 28.4326C76.3601 28.4326 76.3601 28.4326 76.3601 28.3288V27.7063L76.9826 27.2914C76.9826 27.2914 76.9826 27.2914 76.9826 27.1876L77.1901 26.7726L78.5388 25.9426L78.6426 25.8389L78.8501 26.2539L78.4351 26.7726L77.9163 27.3951L77.2938 28.6401L76.7751 30.0925L76.4638 30.4038L75.9451 30.6113C75.7376 30.6113 75.7376 30.6113 75.7376 30.715V31.0262C75.7376 31.13 75.7376 31.13 75.8413 31.2337L76.2563 31.4412C76.3601 31.4412 76.3601 31.4412 76.4638 31.4412L77.0864 30.9225L77.3976 30.5075L77.7088 30.4038L78.1239 30.9225C78.1239 31.0262 78.2276 31.0262 78.3313 31.0262C78.4351 31.0262 78.4351 30.9225 78.4351 30.8188V30.4038V30.3L78.1239 29.7813V29.2625L78.4351 28.7438L78.6426 28.2251L79.0576 27.7063L79.4726 26.9801V27.4988V28.2251V28.3288L79.9913 29.2625C79.9913 29.3663 80.0951 29.3663 80.1989 29.3663C80.3026 29.3663 80.3026 29.2625 80.3026 29.1588V28.4326H80.5101L80.6138 29.0551L80.7176 29.5738V30.4038C80.7176 30.5075 80.7176 30.5075 80.8214 30.6113C80.9251 30.6113 80.9251 30.6113 81.0288 30.6113L81.2364 30.4038L81.3401 30.3L81.4438 29.3663L81.6513 28.6401V28.5363L81.5476 28.1213L81.6513 27.8101L82.0663 27.3951H82.4813L83.2076 27.7063C83.3113 27.7063 83.3113 27.7063 83.4151 27.7063C83.5189 27.7063 83.5188 27.6026 83.5188 27.6026L83.6226 27.1876L84.1413 26.8764L84.9714 26.6689H85.6976L86.4239 26.8764H86.5276L87.1501 26.7726H87.2538L87.9801 26.1501L88.6026 25.5277L88.8101 26.0464C88.8101 26.2539 88.9138 26.4614 89.1213 26.5651L89.7438 26.8764V27.0839L89.6401 28.1213C89.6401 28.1213 89.6401 28.1213 89.6401 28.2251C89.6401 28.3288 89.5363 28.3288 89.4326 28.3288C89.2251 28.4326 89.0176 28.6401 88.9138 28.7438C88.7063 28.9513 88.4988 29.1588 88.3951 29.1588C88.2913 29.1588 88.0839 29.2625 88.0839 29.47L87.9801 29.6775C87.7726 29.885 87.6688 30.0925 87.5651 30.3L87.4614 30.6113C87.4614 30.715 87.4613 30.715 87.5651 30.8188C87.6688 30.8188 87.6688 30.8188 87.7726 30.8188L89.4326 30.1963C89.5363 30.1963 89.5364 30.0925 89.5364 30.0925L89.6401 29.6775H89.8476L90.0551 29.7813L90.4701 30.3C90.5738 30.4038 90.6776 30.4038 90.6776 30.3L91.4038 29.885H91.6114V30.0925L91.7151 30.1963L92.3376 30.5075C92.4413 30.5075 92.4413 30.5075 92.5451 30.5075L92.7526 30.0925L92.8563 29.9888V29.2625H93.3751L93.7901 29.6775L94.9313 31.3375C94.9313 31.4412 95.0351 31.4412 95.0351 31.4412H95.6576C95.6576 31.4412 95.7614 31.4412 95.7614 31.3375L95.8651 31.2337V30.9225H96.3839H96.4876L97.1101 30.4038L97.3176 30.0925L97.6288 29.885C97.7326 29.885 97.7326 29.7813 97.7326 29.6775V28.9513V28.8476L97.4213 28.1213L97.5251 27.9138L97.9401 27.8101H98.4589L98.7701 28.4326C98.7701 28.5363 98.8739 28.5363 98.9776 28.5363C99.0813 28.5363 99.0813 28.5363 99.1851 28.4326L99.4963 28.0176L99.8076 27.4988L100.845 27.1876L101.053 27.3951L101.156 27.4988C101.156 27.4988 101.26 27.4988 101.26 27.3951L101.675 26.8764L102.505 26.1501L102.816 26.2539L102.92 26.5651C102.92 26.6689 103.024 26.6689 103.024 26.6689L103.958 26.8764C104.061 26.8764 104.165 26.8764 104.165 26.7726L104.373 25.7351L104.476 25.0089L104.788 24.8014L104.891 24.6977L105.099 24.2827H105.721C105.825 24.2827 105.929 24.1789 105.929 24.1789L106.033 23.764C106.033 23.6602 106.033 23.5565 105.929 23.5565L105.41 23.349L105.306 23.2452L105.618 22.8302L106.136 22.0003L107.174 21.1703L108.315 20.5478C108.315 20.5478 108.419 20.5478 108.419 20.4441L109.353 19.0953L109.768 18.6804L110.494 18.7841L110.286 19.3028C110.286 19.4066 110.286 19.5103 110.39 19.5103L110.701 19.6141L111.013 20.0291L110.909 20.3403L109.975 20.7553C109.975 20.7553 109.871 20.7553 109.871 20.859L109.456 21.3778V21.4815V21.8965V22.0003L109.768 22.4152V22.8302L109.56 23.2452V23.349V23.764C109.56 23.8677 109.664 23.9714 109.768 23.9714L111.116 23.8677L111.324 24.1789L111.116 24.6977C111.116 24.6977 111.116 24.6977 111.116 24.8014L111.013 26.1501L111.116 27.0839L111.324 27.9138L111.428 29.0551L111.324 29.2625L110.909 29.6775C110.909 29.6775 110.805 29.7813 110.805 29.885L110.909 30.715L110.494 30.8188C110.39 30.8188 110.39 30.9225 110.39 31.0262V31.4412L110.079 31.7525C110.079 31.8562 110.079 31.8562 110.079 31.96L110.286 32.6862L110.598 33.7237C110.598 33.7237 110.598 33.8274 110.701 33.8274L111.531 34.4499L112.258 35.4874L112.05 35.9023V36.0061V36.4211L112.258 37.1473L112.776 38.1848V38.8073L112.569 39.0148C112.569 39.0148 112.465 39.1185 112.465 39.2223L112.569 39.8447L112.776 40.4672L112.569 40.7785L111.531 39.8447L110.909 38.5998L110.494 37.3548L110.183 36.6286V36.5248L109.871 36.1098L110.39 35.2799V35.1761L110.183 34.3461L110.079 32.2712V31.13C110.079 31.13 110.079 31.13 110.079 31.0262L109.871 30.4038C109.871 30.4038 109.871 30.4038 109.871 30.3L109.456 29.885C109.456 29.885 109.353 29.7813 109.249 29.7813C109.145 29.7813 109.145 29.885 109.145 29.885L108.938 30.1963V30.3V30.715C108.938 30.715 108.938 30.715 108.938 30.8188L109.145 31.13V31.545L109.041 31.96V32.375L108.626 32.0637H108.523C108.419 32.0637 108.419 32.0637 108.419 32.1675L108.211 32.5824L107.9 32.8937L107.796 32.9974L107.693 33.5162L107.381 34.5536V34.6574L107.693 35.4874C107.693 35.4874 107.693 35.5911 107.796 35.5911L108.108 35.6949L108.004 35.9023L107.693 36.6286L107.589 37.0436L107.381 37.1473L107.07 36.9398C106.966 36.9398 106.966 36.9398 106.863 36.9398L106.448 37.0436L106.136 37.2511L106.033 37.3548L105.929 37.9773L105.099 38.5998L104.269 39.1185C104.269 39.1185 104.269 39.2223 104.165 39.2223L103.646 40.156L103.543 40.7785L103.231 41.1934C103.231 41.1934 103.231 41.1934 103.231 41.2972L102.713 41.9197V42.7496L102.505 43.2684L102.298 43.5796C102.298 43.5796 102.298 43.5796 102.298 43.6834L101.779 45.1358C101.779 45.1358 101.779 45.1358 101.779 45.2396V45.8621C101.779 45.9658 101.883 46.0696 101.986 46.0696H102.194L102.401 46.277C102.505 46.277 102.609 46.277 102.609 46.277L103.024 46.0696L103.128 46.1733L103.231 46.277C103.335 46.277 103.335 46.277 103.335 46.1733L103.646 45.8621C103.646 45.8621 103.646 45.8621 103.646 45.7583L103.854 45.3433H104.061L104.476 45.6546L104.995 46.7958L105.099 47.8332C105.099 47.8332 105.099 47.8333 105.099 47.937L105.618 48.9745L105.825 49.7007L105.618 50.9457L105.514 51.9831L104.684 53.5393L104.476 54.6805L103.958 55.1993C103.854 55.4068 103.75 55.5105 103.646 55.6143C103.439 55.718 103.231 55.8218 102.92 56.0293H102.09L101.779 55.718L101.571 55.9255ZM101.883 56.6517C101.779 56.6517 101.779 56.6517 101.779 56.548L101.26 56.0293C101.156 55.9255 101.156 55.8218 101.26 55.718L101.883 54.9918L102.298 54.5768L102.609 53.9543V52.7094H102.505L101.675 53.0206H101.571H100.845C100.741 53.0206 100.741 53.0206 100.638 52.9169L100.43 52.5019L99.9114 52.3981L99.3926 52.1906L98.5626 52.3981C98.5626 52.3981 98.4589 52.3981 98.4589 52.2944L97.8364 51.5681V51.4644L97.6288 50.5307L96.9026 49.5969L96.2801 49.3895H95.7614L94.7239 49.7007L94.4126 50.0119L94.5163 50.8419L94.4126 51.6719C94.4126 51.6719 94.2051 52.1906 94.1013 52.3981C94.1013 52.6056 93.9976 52.8131 93.9976 53.0206V53.1243L93.6864 53.4356H93.5826L92.8563 53.5393H92.2338H91.1964L90.7813 53.6431L90.4701 54.0581L89.9513 54.7843L89.8476 54.888H89.4326C89.2251 54.888 89.0176 54.888 88.8101 54.888L86.5276 54.2656C86.4239 54.2656 86.4239 54.2656 86.4239 54.1618L86.1126 53.6431L85.3864 53.4356H84.6601C84.5563 53.4356 84.5564 53.4356 84.4526 53.3318L84.1413 52.7094L83.8301 52.0869C83.8301 51.9831 83.7263 51.8794 83.6226 51.7756L82.5851 51.4644H82.2739L81.6513 51.8794L81.5476 52.3981V52.5019L81.1326 53.0206C81.0288 53.1243 80.9251 53.1243 80.9251 53.0206L79.8876 52.7094C79.8876 52.7094 79.7838 52.7094 79.7838 52.6056L79.0576 51.4644L78.5388 51.0494H77.6051L76.7751 51.4644L75.6339 51.7756C75.6339 51.8794 75.5301 51.8794 75.4263 51.8794C75.3226 51.8794 75.1151 51.7756 75.1151 51.6719L74.4926 50.8419L74.0776 49.9082L73.4551 48.352L72.5213 47.8332L72.4176 47.7295L71.7951 46.7958V46.692V45.7583C71.6913 45.5508 71.5876 45.3433 71.5876 45.2396C71.4838 44.7208 71.3801 44.3059 71.2763 43.7871L71.0688 43.2684H70.0313C69.9276 43.2684 69.9276 43.2684 69.8239 43.1646L69.4088 42.4384L68.8901 41.7122V41.6084L68.9938 40.8822L68.5788 40.2597L68.4751 39.741L67.0226 39.326L65.8813 39.1185H65.7776L64.8438 38.3923L64.2213 38.7035L63.7026 39.1185L63.4951 39.4297C63.4951 39.5335 63.3913 39.5335 63.2876 39.5335L62.3538 39.4297C62.2501 39.4297 62.2501 39.326 62.1463 39.326L61.8351 38.3923L61.3163 37.666L60.7976 36.5248L60.4863 35.5911L60.1751 34.9686C60.0713 34.7611 59.9676 34.5536 59.7601 34.4499C59.4488 34.3461 59.1376 34.2424 58.9301 34.1387C58.8263 34.1387 58.5151 34.1387 58.3076 34.1387H58.2038C57.8926 34.2424 57.5813 34.4499 57.2701 34.6574C57.1663 34.9686 57.1663 35.3836 57.0626 35.6949C57.0626 35.6949 57.0626 35.7986 56.9588 35.7986H56.8551H56.7513H55.5063L55.4026 36.6286C55.4026 36.6286 55.4026 36.6286 55.4026 36.7323L54.9876 37.3548L54.3651 38.7035C54.3651 38.8073 54.2613 38.8073 54.1576 38.8073C54.0538 38.8073 54.0538 38.8073 53.9501 38.7035L53.5351 38.081V37.9773L53.7426 36.7323L52.9126 33.2049V33.1012L53.2238 32.0637V30.8188L53.3276 29.6775C53.3276 29.5738 53.3276 29.5738 53.4313 29.5738C53.5351 29.5738 53.5351 29.5738 53.6388 29.5738L54.1576 29.6775L54.6763 29.885L54.5726 29.5738C54.5726 29.47 54.5726 29.3663 54.6763 29.3663L55.2988 29.0551H55.4026L56.3363 29.47L56.2326 29.0551L56.1288 26.0464C56.1288 26.0464 56.1288 26.0464 56.1288 25.9426L56.7513 24.1789L56.8551 23.2452C56.8551 23.1415 56.8551 23.1415 56.9588 23.1415L57.8926 22.6227L59.2413 20.4441L59.7601 19.5103C59.7601 19.5103 59.7601 19.4066 59.8638 19.4066L60.9013 18.7841L61.4201 18.3691H61.5238L62.1463 18.2654C62.2501 18.2654 62.3538 18.2654 62.3538 18.3691L62.5613 18.8879L63.2876 19.5103C63.2876 19.5103 63.3913 19.6141 63.3913 19.7178L63.2876 20.1328L63.4951 20.0291L63.9101 18.9916C63.9101 18.8878 64.0138 18.8879 64.1176 18.8879H64.6363L65.2588 18.5766L65.6738 17.8504L65.7776 17.7466L67.6451 16.9167L68.9938 16.1904H69.0976H70.4464C70.5501 16.1904 70.6538 16.2942 70.6538 16.3979L70.7576 17.8504V17.9541L70.3426 19.6141L69.8239 20.9628C69.8239 20.9628 69.8238 21.0665 69.7201 21.0665L69.0976 21.5853C68.9938 21.689 68.8901 21.689 68.7864 21.5853L68.1638 20.7553V20.6515V19.8216V19.1991L68.0601 19.4066C68.0601 19.5103 67.9563 19.6141 67.5413 19.8216C67.2301 19.9253 67.0226 20.1328 66.8151 20.3403V20.7553V20.859L66.9188 20.4441C66.9188 20.3403 67.0226 20.3403 67.1263 20.3403C67.2301 20.3403 67.2301 20.3403 67.3338 20.4441L67.4376 20.7553V20.859V21.689H67.5413L67.6451 21.5853C67.7488 21.5853 67.7488 21.5853 67.8526 21.5853L68.3713 21.689H68.4751L69.0976 22.0003C69.0976 22.0003 69.2013 22.0003 69.2013 22.104L69.6163 22.6227L69.9276 22.2078H70.0313L70.8614 21.5853C70.9651 21.5853 71.0688 21.5853 71.1726 21.689L71.3801 22.0003C71.3801 22.104 71.3801 22.104 71.3801 22.2078L71.1726 22.519L71.0688 22.6227L70.4464 22.7265V22.934L70.6538 23.0377H71.2763H71.3801L72.2101 23.4527L73.1438 24.1789V24.2827V24.8014L73.3513 25.0089L73.6626 25.1127C73.6626 25.1127 73.7663 25.1127 73.7663 25.2164L74.0776 25.6314H74.2851L74.4926 25.3202L74.7001 24.6977C74.7001 24.5939 74.8038 24.5939 74.9076 24.5939C75.0113 24.5939 75.1151 24.6977 75.1151 24.8014L75.3226 26.2539L75.6339 26.6689L75.9451 27.2914V27.3951L75.8413 28.0176L75.9451 28.3288L76.2563 28.4326L76.3601 28.0176V27.2914C76.3601 27.1876 76.3601 27.1876 76.4638 27.0839L77.0864 26.6689L77.2938 26.2539V26.1501L78.6426 25.3202L78.9538 25.0089C79.0576 25.0089 79.0576 25.0089 79.1614 25.0089C79.2651 25.0089 79.2651 25.1127 79.2651 25.1127L79.5763 25.8389C79.5763 25.9426 79.5763 25.9426 79.5763 26.0464L79.1614 26.6689L78.2276 27.4988L77.6051 28.7438L76.8788 29.9888L77.3976 29.7813C77.5013 29.7813 77.5014 29.7813 77.6051 29.7813V29.6775V29.0551V28.9513L77.9163 28.3288L78.2276 27.8101L78.6426 27.2914L79.1614 26.3576C79.1614 26.2539 79.2651 26.2539 79.3688 26.2539L79.5763 26.3576C79.6801 26.3576 79.6801 26.4614 79.6801 26.5651L79.5763 27.3951V28.0176C79.5763 27.9138 79.5763 27.9138 79.5763 27.8101C79.6801 27.8101 79.6801 27.8101 79.7838 27.8101L80.4063 27.9138C80.5101 27.9138 80.5101 28.0176 80.6138 28.0176L80.7176 28.6401L80.8214 28.3288L80.7176 27.9138V27.8101L80.9251 27.4988L81.3401 26.9801L81.4438 26.8764H81.9626H82.0663L82.5851 27.0839V26.8764C82.5851 26.7726 82.5851 26.7726 82.6888 26.7726L83.3114 26.3576H83.4151L84.2451 26.1501H85.0751H85.2826L86.0089 26.3576L86.5276 26.2539L87.1501 25.6314L87.8763 24.9052H87.9801L88.1876 24.8014C88.2913 24.8014 88.3951 24.8014 88.3951 24.9052L88.7063 25.5277V25.6314C88.7063 25.7351 88.7063 25.7352 88.7063 25.8389L89.4326 26.1501C89.5363 26.1501 89.5364 26.2539 89.5364 26.2539V26.6689L89.4326 27.7063C89.4326 27.7063 89.4326 27.7063 89.4326 27.8101C89.4326 27.9138 89.3288 28.1213 89.0176 28.3288C88.7064 28.5363 88.7064 28.6401 88.4989 28.7438C88.2914 28.9513 88.0838 29.0551 87.8763 29.2625C87.8763 29.2625 87.7726 29.2625 87.7726 29.3663L87.5651 29.5738C87.4613 29.6775 87.3576 29.885 87.2538 29.9888L88.3951 29.5738L88.4989 29.1588C88.4989 29.055 88.6026 29.0551 88.7063 29.0551L89.1213 28.9513H89.2251L89.5364 29.0551L89.9513 29.47L90.5739 29.0551H90.6776H91.0926C91.1964 29.0551 91.1964 29.055 91.3001 29.1588L91.4038 29.3663L91.8188 29.5738L92.0263 29.47V28.7438C92.0263 28.6401 92.1301 28.5363 92.2338 28.5363H93.0638C93.1676 28.5363 93.1676 28.5363 93.1676 28.6401L93.6864 29.1588L94.7239 30.8188H95.0351V30.6113C95.0351 30.5075 95.1389 30.4038 95.2426 30.4038H95.8651L96.4876 29.885L96.6951 29.5738H96.7989L97.1101 29.47V28.9513L96.6951 28.1213C96.6951 28.0176 96.6951 28.0176 96.6951 27.9138L97.0063 27.4988L97.1101 27.3951L97.6288 27.2914L98.3551 27.1876C98.4589 27.1876 98.4588 27.1876 98.5626 27.2914L98.7701 27.8101L98.8739 27.6026L99.1851 27.0839L99.2888 26.9801L100.43 26.6689C100.534 26.6689 100.534 26.6689 100.638 26.6689L100.741 26.7726L101.053 26.3576L101.468 26.0464L101.986 25.5277C102.09 25.5277 102.09 25.5277 102.194 25.5277L102.713 25.7351C102.816 25.7351 102.816 25.8389 102.816 25.8389L102.92 26.1501L103.75 26.4614L103.958 25.6314L104.061 24.9052C104.061 24.8014 104.061 24.8014 104.165 24.8014L104.476 24.5939L104.684 24.0752C104.684 23.9715 104.788 23.9714 104.891 23.9714H105.514L105.099 23.764H104.995L104.684 23.4527C104.58 23.349 104.58 23.2452 104.684 23.1415L105.099 22.6227L105.618 21.7928L106.759 20.9628L107.9 20.3403L108.834 18.9916L109.353 18.4729C109.456 18.4729 109.456 18.4729 109.56 18.4729L110.598 18.6804C110.701 18.6804 110.701 18.6804 110.701 18.7841C110.701 18.8879 110.701 18.8878 110.701 18.9916L110.494 19.5103L110.701 19.6141C110.701 19.6141 110.701 19.6141 110.701 19.7178L111.116 20.2366C111.116 20.3403 111.116 20.3403 111.116 20.4441L110.909 20.859C110.909 20.859 110.909 20.9628 110.805 20.9628L109.871 21.3778L109.56 21.8965V22.2078L109.871 22.6227V22.7265V23.2452V23.349L109.664 23.764V23.8677L111.013 23.764C111.116 23.764 111.116 23.764 111.22 23.8677L111.531 24.3864C111.531 24.4902 111.531 24.4902 111.531 24.5939L111.22 25.1127L111.116 26.3576L111.22 27.1876L111.428 28.0176L111.531 29.2625V29.3663L111.428 29.6775V29.5738L111.013 29.885L111.116 30.8188C111.116 30.9225 111.116 31.0262 111.013 31.0262L110.598 31.13V31.545V31.6487L110.286 31.96L110.39 32.5824L110.598 33.5162L111.428 34.1387L111.739 34.5536L112.258 35.2799C112.258 35.3836 112.258 35.3836 112.258 35.4874L112.05 36.0061V36.4211L112.154 37.0436L112.673 38.081V38.1848V38.911C112.673 39.0148 112.673 39.0148 112.569 39.0148L112.361 39.2223L112.465 39.741L112.673 40.3635V40.4672L112.465 40.7785L112.361 41.0897C112.361 41.1934 112.258 41.1934 112.258 41.1934C112.154 41.1934 112.154 41.1934 112.05 41.1934L111.324 40.571L110.701 40.0522L109.975 38.8073L109.56 37.5623L109.249 36.8361L108.834 36.3173C108.834 36.2136 108.834 36.1098 108.834 36.1098L109.353 35.2799L109.145 34.4499L109.041 32.375V30.9225L108.834 30.4038L108.626 30.1963V30.6113V30.8188L108.834 31.13V31.2337V31.7525L108.73 32.1675V32.6862V33.1012C108.73 33.2049 108.626 33.2049 108.626 33.3087C108.523 33.3087 108.523 33.3087 108.419 33.3087L107.9 32.8937L107.796 33.1012L107.485 33.3087L107.381 33.8274L107.07 34.8649L107.381 35.4874L107.796 35.6949C107.9 35.6949 107.9 35.7986 107.9 35.9023L107.796 36.3173L107.485 37.0436L107.381 37.3548L107.278 37.4586L106.863 37.666C106.759 37.666 106.655 37.666 106.655 37.666L106.344 37.4586L106.136 37.5623L105.929 37.666L105.825 38.2885C105.825 38.3923 105.825 38.3923 105.721 38.3923L104.788 39.1185L103.958 39.5335L103.543 40.3635L103.439 40.986C103.439 40.986 103.439 40.9859 103.439 41.0897L103.128 41.5047L103.024 42.0234V42.8534V42.9571L102.713 43.5796L102.505 43.8909L101.986 45.2396V45.5508H102.09H102.194L102.401 45.7583L102.816 45.5508C102.92 45.5508 103.024 45.5508 103.024 45.5508L103.128 45.6546L103.231 45.5508L103.439 45.1358C103.439 45.0321 103.543 45.0321 103.543 45.0321H103.958H104.061L104.58 45.4471C104.58 45.4471 104.58 45.4471 104.58 45.5508L105.099 46.692L105.203 47.7295L105.721 48.767L105.929 49.5969V49.7007L105.721 51.0494L105.618 52.0869V52.1906L104.788 53.7468L104.58 54.888C104.58 54.888 104.58 54.9918 104.476 54.9918L103.958 55.5105C103.854 55.718 103.646 55.9255 103.439 56.0293C103.231 56.133 103.024 56.2368 102.816 56.4442H102.713L101.883 56.6517Z" fill="#A7A7A7"/>
<path fill-rule="evenodd" clip-rule="evenodd" d="M112.361 39.741L112.258 39.1185L112.569 38.8073V38.0811L112.258 37.4586L112.05 37.0436L111.946 36.3174L111.843 35.9024L112.154 35.2799L111.635 34.5537L111.324 34.1387L110.494 33.5162L110.183 32.4787L110.079 31.7525L110.494 31.3375V30.8188L111.013 30.6113L110.909 29.5738L111.324 29.1588L111.428 28.8476L111.324 27.6026L111.116 26.7726L111.013 25.9427L111.116 24.594L111.428 24.0752L111.116 23.5565H110.39H109.664V23.1415L109.871 22.7265V22.2078L109.56 21.7928V21.3778L109.975 20.8591L111.013 20.3403L111.22 19.9253L110.805 19.4066L110.494 19.3029L110.701 18.5766L109.664 18.3691L109.145 18.8879L108.73 19.4066L108.108 20.2366L106.863 20.8591L105.721 21.689L105.203 22.519C105.099 22.7265 105.099 22.934 104.995 23.1415L105.099 23.2452L105.721 23.4527L105.618 23.8677H104.788L104.58 24.4902L104.269 24.6977L104.165 25.0089L104.061 25.5277L103.854 26.5651L103.335 26.4614C98.9776 33.7237 90.9888 37.8736 82.5851 37.4586C71.2763 37.0436 62.2501 28.8476 61.0051 18.6804L60.9013 18.7841L59.8638 19.4066L59.4488 20.2366L58.1001 22.4153L57.1663 22.934L57.0626 23.9715L56.4401 25.7352V28.8476L56.1288 29.1588L55.0913 28.7438L54.4688 29.0551L54.6763 29.7813L54.3651 29.6776L53.8463 29.4701L53.3276 29.3663L53.2238 30.5075V31.8562L52.9126 32.8937L53.8463 36.5249L53.6388 37.8736L54.0538 38.496L54.6763 37.1473L54.9876 36.3174L55.0913 35.7986L55.1951 35.3836H56.6476L56.9588 35.0724C56.9588 35.0724 57.0626 34.2424 57.1663 34.0349C57.2701 33.8274 57.9963 33.4124 58.2038 33.4124C58.5151 33.4124 58.8263 33.4124 59.0338 33.4124C59.3451 33.5162 59.5526 33.6199 59.8638 33.7237C60.0713 33.7237 60.3826 34.3462 60.3826 34.3462L60.6938 34.9687L61.0051 35.9024L61.5238 37.0436L62.0426 37.7698L62.3538 38.8073L63.2876 38.911L63.4951 38.5998L64.1176 38.0811L64.9476 37.7698L65.8813 38.5998L67.0226 38.911L68.5788 39.326L68.7864 39.9485L69.2013 40.571L69.0976 41.401L69.6163 42.1272L70.0313 42.8534H71.1726L71.4839 43.4759C71.5876 43.9946 71.6913 44.5134 71.7951 45.0321C71.7951 45.2396 71.8988 45.3433 72.0026 45.5508V46.4846L72.6251 47.4183L73.6626 47.937L74.2851 49.4932L74.7001 50.4269L75.3226 51.2569C75.5301 51.5682 75.5301 51.3607 75.5301 51.3607L76.7751 50.9457L77.7088 50.5307H78.7463L79.2651 50.9457L79.9913 52.0869L80.9251 52.6056L81.3401 52.0869L81.4438 51.4644L82.1701 50.9457H82.5851L83.6226 51.2569C83.8301 51.3607 83.9338 51.4644 84.0376 51.6719L84.3489 52.2944L84.6601 52.9169H85.3864L86.3201 53.0206L86.6313 53.6431L88.9138 54.2656C89.2251 54.2656 89.5363 54.2656 89.8476 54.2656L90.2626 53.5394L90.6776 53.1244L91.0926 53.0206C91.0926 53.0206 91.9226 53.0206 92.1301 53.0206H92.7526L93.4788 52.9169L93.7901 52.6056C93.7901 52.3981 93.7901 52.1906 93.8938 51.9832L94.2051 51.2569L94.3088 50.4269L94.2051 49.597L94.5163 49.2857L95.6576 48.8707H96.2801L96.9026 49.0782L97.7326 50.012L98.0438 51.0494L98.6663 51.7757L99.4963 51.8794L100.015 51.9832L100.534 52.0869L100.845 52.5019H101.571L102.401 52.1906H102.713V52.9169V53.6431L102.401 54.3693L101.986 54.7843L101.364 55.5105L101.883 56.0293H102.816C103.024 55.8218 103.231 55.718 103.543 55.6143C103.75 55.5105 103.958 55.0956 103.958 55.0956L104.476 54.5768L104.684 53.3319L105.514 51.7757L105.618 50.7382L105.825 49.4932L105.618 48.6633L105.099 47.522L104.995 46.4846L104.476 45.3433L103.958 44.9284H103.543L103.335 45.4471L103.024 45.7583L102.816 45.5508L102.298 45.8621L101.986 45.5508H101.675V44.9284L102.194 43.4759L102.401 43.1647L102.713 42.6459V41.816L102.816 41.1935L103.128 40.7785L103.231 40.156L103.75 39.2223L104.58 38.7035L105.514 38.0811L105.618 37.3548L105.929 37.1473L106.344 37.0436L106.655 37.3548L107.07 37.1473L107.174 36.8361L107.485 36.1099L107.589 35.6949L107.174 35.4874L106.863 34.6574L107.174 33.6199L107.278 32.9975L107.589 32.6862L107.9 32.2712L108.626 32.8937V32.4787V31.96L108.73 31.545V31.0263L108.523 30.6113V30.3L108.73 29.8851L109.145 30.3L109.353 30.9225V32.0637V32.6862L109.456 34.1387L109.664 34.9687L109.145 35.9024L109.56 36.4211L109.871 37.1473L110.286 38.3923L111.013 39.6373L111.635 40.156L112.361 40.7785L112.465 40.4672L112.673 40.0523L112.361 39.741Z" fill="#A7A7A7"/>
<path fill-rule="evenodd" clip-rule="evenodd" d="M101.571 55.9258L101.883 56.237H102.713C102.92 56.1333 103.128 55.9258 103.439 55.822C103.543 55.7183 103.75 55.6145 103.75 55.407L104.269 54.8883L104.476 53.7471L105.306 52.1909L105.41 51.1534L105.618 49.9084L105.41 49.1822L104.891 48.1447C104.891 48.1447 104.891 48.1447 104.891 48.041L104.788 47.0035L104.269 45.8623L103.958 45.3436H103.75L103.543 45.7586L103.439 46.1736L103.335 46.2773C103.231 46.2773 103.231 46.2773 103.231 46.1736L103.128 46.0698L102.713 46.2773C102.609 46.2773 102.505 46.2773 102.505 46.2773L102.298 46.0698H102.09C101.986 46.0698 101.883 45.9661 101.883 45.9661V45.3436L102.401 43.8911L102.609 43.5799L102.816 43.0611V42.0237L102.92 41.4012C102.92 41.4012 102.92 41.4012 102.92 41.2974L103.231 40.8825L103.335 40.26L103.854 39.3263C103.854 39.3263 103.854 39.2225 103.958 39.2225L104.788 38.7038L105.618 38.0813L105.721 37.4588C105.721 37.3551 105.721 37.3551 105.825 37.3551L106.136 37.1476L106.551 37.0438C106.655 37.0438 106.655 37.0438 106.759 37.0438L107.07 37.2513L107.278 37.1476L107.381 36.8363L107.693 36.1101L107.796 35.9026L107.485 35.6951C107.485 35.6951 107.381 35.6951 107.381 35.5914L107.07 34.7614V34.6576L107.381 33.6202L107.485 33.1014C107.485 33.1014 107.485 32.9977 107.589 32.9977L107.9 32.6865L108.108 32.2715L108.211 32.1677H108.315L108.73 32.479V32.064L108.834 31.649V31.234L108.626 30.9228C108.626 30.9228 108.626 30.9228 108.626 30.819V30.6115V30.5078L108.834 30.1965C108.834 30.0928 108.938 30.0928 108.938 30.0928C109.041 30.0928 109.041 30.0928 109.145 30.1965L109.56 30.6115C109.56 30.6115 109.56 30.6115 109.56 30.7153L109.768 31.3377C109.768 31.3377 109.768 31.3377 109.768 31.4415V32.5827L109.871 34.6576L110.079 35.4876V35.5914L109.56 36.4213L109.871 36.8363L110.183 37.5626L110.598 38.8075L111.22 40.0525L112.258 40.9862L112.465 40.675L112.258 40.1562L112.154 39.5337C112.154 39.43 112.154 39.43 112.258 39.3263L112.465 39.1188V38.4963L111.946 37.4588L111.739 36.7326V36.3176V36.2138L111.946 35.7989L111.22 34.7614L110.39 34.1389L110.286 34.0352L109.975 32.9977L109.768 32.2715C109.768 32.1677 109.768 32.1677 109.768 32.064L110.079 31.649V31.234C110.079 31.1302 110.183 31.1302 110.183 31.0265L110.598 30.9228V30.0928C110.598 29.989 110.598 29.989 110.598 29.8853L111.013 29.4703L111.116 29.2628L111.013 28.1216L110.805 27.2916L110.701 26.3579L110.805 25.0092C110.805 25.0092 110.805 25.0092 110.805 24.9054L111.013 24.3867L110.805 24.0755L109.456 24.1792C109.353 24.1792 109.249 24.0755 109.249 23.9717V23.5567V23.453L109.456 23.038V22.623L109.145 22.208V22.1043V21.6893V21.5855L109.56 21.0668C109.56 21.0668 109.56 20.963 109.664 20.963L110.598 20.5481L110.701 20.3406L110.39 19.9256L110.079 19.8218C109.975 19.8218 109.975 19.7181 109.975 19.6143L110.183 19.0956L109.456 18.9919L109.041 19.4068L108.108 20.7556C108.108 20.7556 108.108 20.7555 108.004 20.8593L106.863 21.4818L105.825 22.208L105.306 23.038C105.306 23.2455 105.203 23.3492 105.099 23.5567L105.618 23.7642C105.721 23.7642 105.721 23.868 105.721 23.9717L105.618 24.3867C105.618 24.4904 105.514 24.4904 105.41 24.4904H104.788L104.58 24.9054V25.0092L104.373 25.1129L104.269 25.4242L104.165 25.9429L103.958 26.9804C103.958 27.0841 103.854 27.0841 103.75 27.0841L103.439 26.9804C99.1851 33.9314 91.7151 38.0813 83.6226 37.9775H82.5851C77.1901 37.7701 72.0026 35.7989 67.9563 32.1677C64.1176 28.8478 61.6276 24.2829 60.9013 19.3031L60.1751 19.7181L59.6563 20.5481L58.2038 22.7267C58.2038 22.7267 58.2038 22.7267 58.2038 22.8305L57.3738 23.3492L57.2701 24.2829L56.6476 26.0466L56.7513 29.1591V29.2628L56.4401 29.574C56.3363 29.574 56.3363 29.574 56.2326 29.574L55.1951 29.1591L54.7801 29.3665L54.9876 29.989C54.9876 30.0928 54.9876 30.0928 54.8838 30.1965C54.7801 30.1965 54.7801 30.1965 54.6763 30.1965L53.7426 29.7815L53.4313 29.6778L53.3276 30.6115V31.8565L53.0163 32.8939L53.9501 36.4213V36.5251L53.8463 37.8738L54.0538 38.0813L54.8838 36.3176L55.0913 35.3839C55.0913 35.2801 55.1951 35.2801 55.2988 35.2801H56.6476L56.8551 35.0726C56.8551 34.8651 56.9588 34.2427 57.0626 34.0352C57.1663 33.8277 58.1001 33.3089 58.2038 33.2052C58.3076 33.2052 58.4113 33.2052 58.5151 33.2052C58.8263 33.2052 59.1376 33.3089 59.2413 33.3089C59.4488 33.4127 59.7601 33.5164 60.0713 33.6202C60.2788 33.6202 60.4863 33.9314 60.7976 34.3464L61.1088 34.9689L61.4201 35.9026L61.9388 37.0438L62.2501 37.8738V37.9775L62.4576 38.9113L63.0801 39.015L63.1838 38.8075L63.8063 38.2888L64.6363 37.9775C64.7401 37.9775 64.7401 37.9775 64.8438 37.9775L65.7776 38.8075L66.8151 39.015L68.3713 39.43C68.4751 39.43 68.4751 39.5337 68.4751 39.5337L68.6826 40.1562L69.0976 40.7787V40.8825L68.9938 41.6087L69.5126 42.2312L69.8239 42.8537H70.8614C70.9651 42.8537 70.9651 42.8537 71.0688 42.9574L71.3801 43.5799C71.3801 43.7874 71.6913 44.9286 71.6913 45.1361C71.6913 45.2398 71.7951 45.4473 71.7951 45.5511V45.6548V46.5885L72.3138 47.4185L73.3513 47.9373L73.4551 48.041L74.0776 49.5972L74.4926 50.4272L75.1151 51.2572L76.3601 50.8422L77.2938 50.4272H77.3976H78.4351H78.5388L79.0576 50.9459L79.7838 51.9834L80.5101 52.3984L80.8214 52.0871L80.9251 51.5684C80.9251 51.5684 80.9251 51.4646 81.0288 51.4646L81.7551 50.9459H81.8589L82.2739 50.8422H82.3776L83.5188 51.1534C83.7263 51.2572 83.9338 51.4646 84.0376 51.6721L84.3489 52.2946L84.5563 52.8134H85.1788L86.1126 52.9171C86.2163 52.9171 86.2163 52.9171 86.2163 53.0209L86.5276 53.6433L88.7063 54.2658C88.9138 54.2658 89.0176 54.2658 89.2251 54.2658H89.5364L89.9513 53.6433L90.3663 53.2284H90.4701L90.8851 53.1246H90.9888H92.0263H92.6489L93.2714 53.0209L93.4788 52.8134C93.4788 52.6059 93.4788 52.3984 93.5826 52.1909C93.6863 51.9834 93.7901 51.5684 93.8938 51.4646L93.9976 50.6347L93.8938 49.8047C93.8938 49.701 93.8938 49.701 93.8938 49.701L94.2051 49.3897C94.2051 49.3897 94.2051 49.3897 94.3088 49.3897L95.4501 48.9747H95.7614H96.3839L97.0063 49.1822C97.0063 49.1822 97.1101 49.1822 97.1101 49.286L97.9401 50.2197C97.9401 50.2197 97.9401 50.2197 97.9401 50.3234L98.2513 51.3609L98.7701 51.9834L99.6001 52.0871L100.119 52.1909L100.638 52.2946C100.741 52.2946 100.741 52.2946 100.741 52.3984L100.949 52.7096H101.571L102.401 52.3984H102.505H102.713C102.816 52.3984 102.92 52.5021 102.92 52.6059V53.3321V54.0583V54.1621L102.609 54.8883V54.992L102.194 55.407L101.571 55.9258ZM101.883 56.652C101.779 56.652 101.779 56.652 101.779 56.5483L101.26 56.0295C101.156 55.9258 101.156 55.822 101.26 55.7183L101.883 54.992L102.298 54.5771L102.609 53.9546V52.7096H102.505L101.675 53.0209H101.571H100.845C100.741 53.0209 100.741 53.0209 100.638 52.9171L100.43 52.5021L99.9114 52.3984L99.3926 52.1909L98.5626 52.3984C98.5626 52.3984 98.4589 52.3984 98.4589 52.2946L97.8364 51.5684V51.4646L97.6288 50.5309L96.9026 49.5972L96.2801 49.3897H95.7614L94.7239 49.701L94.4126 50.0122L94.5163 50.8422L94.4126 51.6721C94.4126 51.6721 94.2051 52.1909 94.1013 52.3984C94.1013 52.6059 93.9976 52.8134 93.9976 53.0209V53.1246L93.6864 53.4358L93.5826 53.5396L92.8563 53.6433H92.2338C92.1301 53.6433 91.4039 53.6433 91.1964 53.6433L90.7813 53.7471L90.4701 54.1621L90.0551 54.8883C90.0551 54.9921 89.9513 54.992 89.9513 54.992H89.5364C89.3288 54.992 89.1213 54.992 88.9138 54.992L86.6313 54.3696C86.5276 54.3696 86.5276 54.3696 86.5276 54.2658L86.2163 53.7471L85.3864 53.4358H84.6601C84.5563 53.4358 84.5564 53.4358 84.4526 53.3321L84.1413 52.7096L83.8301 52.0871C83.8301 51.9834 83.7263 51.8796 83.6226 51.7759L82.5851 51.4646H82.2739L81.6513 51.8796L81.5476 52.3984V52.5021L81.1326 53.0209C81.0288 53.1246 80.9251 53.1246 80.9251 53.0209L79.9913 52.5021C79.9913 52.5021 79.8876 52.5021 79.8876 52.3984L79.1614 51.2572L78.6426 50.8422H77.7088L76.7751 51.5684L75.6339 51.8796C75.6339 51.9834 75.5301 51.9834 75.4263 51.9834C75.3226 51.9834 75.2188 51.8796 75.1151 51.7759L74.4926 50.9459L74.0776 50.0122L73.4551 48.456L72.5213 47.9373L72.4176 47.8335L71.7951 46.8998V46.796V45.8623C71.5876 45.7586 71.5876 45.5511 71.5876 45.3436C71.4838 44.8248 71.3801 44.4099 71.2763 43.8911L71.0688 43.3724H70.0313C69.9276 43.3724 69.9276 43.3724 69.8239 43.2686L69.5126 42.5424L68.9938 41.8162V41.7124L69.0976 40.9862L68.6826 40.3637L68.4751 39.845L67.0226 39.43L65.8813 39.2225H65.7776L64.8438 38.4963L64.3251 38.6L63.8063 39.015L63.5988 39.3263C63.5988 39.43 63.4951 39.43 63.3913 39.43L62.4576 39.3263C62.3538 39.3263 62.3538 39.2225 62.2501 39.2225L61.9388 38.2888L61.4201 37.5626L60.9013 36.4213L60.5901 35.4876L60.2788 34.8651C60.1751 34.6576 60.0713 34.4501 59.8638 34.3464C59.5526 34.2427 59.2413 34.1389 59.0338 34.0352C58.9301 34.0352 58.6188 34.0352 58.4113 34.0352H58.3076C57.9963 34.1389 57.6851 34.3464 57.3738 34.5539C57.2701 34.8651 57.2701 35.2801 57.1663 35.5914C57.1663 35.5914 57.1663 35.6951 57.0626 35.6951L56.9588 35.7989H56.8551H55.6101L55.5063 36.5251C55.5063 36.5251 55.5063 36.5251 55.5063 36.6288L55.1951 37.4588L54.5726 38.8075C54.5726 38.9113 54.4688 38.9113 54.3651 38.9113C54.2613 38.9113 54.2613 38.9113 54.1576 38.8075L53.7426 38.185V38.0813L53.9501 36.8363L52.9126 33.2052V33.1014L53.2238 32.064V30.819L53.3276 29.6778C53.3276 29.574 53.3276 29.574 53.4313 29.574C53.5351 29.574 53.5351 29.574 53.6388 29.574L54.1576 29.6778L54.6763 29.8853L54.5726 29.574C54.5726 29.4703 54.5726 29.3665 54.6763 29.3665L55.2988 29.0553H55.4026L56.3363 29.4703L56.2326 29.0553L56.1288 26.0466C56.1288 26.0466 56.1288 26.0466 56.1288 25.9429L56.7513 24.1792L56.8551 23.2455C56.8551 23.1417 56.8551 23.1417 56.9588 23.038L57.8926 22.5193L59.2413 20.3406L59.7601 19.4068C59.7601 19.4068 59.7601 19.3031 59.8638 19.3031L60.9013 18.6806C61.0051 18.6806 61.0051 18.6806 61.1088 18.6806C61.2126 18.6806 61.2126 18.7844 61.2126 18.7844C62.4576 29.1591 71.4838 36.9401 82.5851 37.4588H83.5188C91.5076 37.5626 98.9776 33.4127 103.128 26.5654C103.128 26.4616 103.231 26.4616 103.335 26.4616H103.75L103.958 25.6317L104.061 25.1129C104.061 25.1129 104.061 25.1129 104.061 25.0092L104.165 24.6979L104.269 24.5942L104.476 24.4904L104.684 23.9717C104.684 23.868 104.788 23.868 104.891 23.868H105.514L105.099 23.6605C105.099 23.6605 104.995 23.6605 104.995 23.5567L104.891 23.453C104.891 23.3492 104.891 23.3492 104.891 23.2455L105.099 22.623V22.5193L105.618 21.6893L106.759 20.8593L107.9 20.2368L108.834 18.8881L109.353 18.3694C109.353 18.3694 109.456 18.2656 109.56 18.2656L110.598 18.4731C110.701 18.4731 110.701 18.5769 110.701 18.5769V18.6806L110.598 19.1993L110.701 19.3031C110.701 19.3031 110.701 19.3031 110.701 19.4068L111.116 19.9256C111.116 20.0293 111.116 20.0293 111.116 20.1331L110.909 20.5481L110.805 20.6518L109.871 21.0668L109.56 21.5855V21.8968L109.871 22.3118V22.4155V22.9342C109.871 22.9342 109.871 22.9342 109.871 23.038L109.664 23.453V23.5567L111.013 23.453C111.116 23.453 111.116 23.453 111.22 23.5567L111.531 24.0755C111.531 24.1792 111.531 24.1792 111.531 24.2829L111.22 24.8017L111.116 26.0466L111.22 26.8766L111.428 27.7066L111.531 28.9516V29.0553L111.428 29.3665C111.428 29.3665 111.428 29.3665 111.428 29.4703L111.013 29.7815L111.116 30.7153C111.116 30.819 111.116 30.9228 111.013 30.9228L110.598 31.0265V31.4415V31.5452L110.286 31.8565L110.39 32.479L110.598 33.4127L111.428 34.0352L111.739 34.4501L112.258 35.1764C112.258 35.2801 112.258 35.2801 112.258 35.3839L112.05 35.9026V36.3176L112.154 36.9401L112.673 38.0813V38.185V38.9113C112.673 39.015 112.673 39.015 112.569 39.015L112.361 39.2225L112.465 39.7412L112.673 40.3637V40.4675L112.465 40.7787L112.361 41.09C112.361 41.1937 112.258 41.1937 112.258 41.1937C112.154 41.1937 112.154 41.1937 112.05 41.1937L111.324 40.5712L110.701 40.0525L109.975 38.8075L109.56 37.5626L109.249 36.8363L108.834 36.3176C108.834 36.2138 108.834 36.2138 108.834 36.1101L109.353 35.2801L109.145 34.4501L109.041 32.3752V31.0265L108.834 30.5078L108.626 30.3003V30.6115V30.819L108.834 31.1302V31.234V31.7527L108.73 32.1677V32.6865V33.1014C108.73 33.2052 108.626 33.2052 108.626 33.3089C108.523 33.3089 108.523 33.3089 108.419 33.3089L107.9 32.8939L107.796 33.1014V33.2052L107.485 33.4127L107.381 33.9314L107.07 34.9689L107.381 35.5914L107.796 35.7989C107.9 35.7989 107.9 35.9026 107.9 36.0064L107.796 36.4213L107.485 37.1476L107.381 37.4588L107.278 37.5626L106.863 37.7701C106.759 37.7701 106.759 37.7701 106.655 37.7701L106.344 37.5626L106.136 37.6663L105.929 37.7701L105.825 38.3925C105.825 38.4963 105.825 38.4963 105.721 38.4963L104.788 39.2225L103.958 39.6375L103.543 40.4675L103.439 41.09C103.439 41.09 103.439 41.09 103.439 41.1937L103.128 41.6087L103.024 42.1274V42.9574V43.0611L102.713 43.6836L102.505 43.9949L101.986 45.3436V45.6548H102.09C102.09 45.6548 102.194 45.6548 102.194 45.7586L102.401 45.9661L102.816 45.7586C102.92 45.7586 103.024 45.7586 103.024 45.7586L103.128 45.8623L103.231 45.7586L103.439 45.3436C103.439 45.2398 103.543 45.2398 103.543 45.2398H103.958H104.061L104.58 45.6548V45.7586L105.099 46.8998L105.203 47.9373L105.721 48.9747L105.929 49.8047V49.9084L105.721 51.2572L105.618 52.2946V52.3984L104.788 53.9546L104.58 55.0958C104.58 55.0958 104.58 55.1995 104.476 55.1995L103.958 55.7183C103.854 55.9258 103.646 56.1333 103.439 56.237C103.231 56.3408 103.024 56.4445 102.816 56.652H102.713H101.883Z" fill="#A7A7A7"/>
<path fill-rule="evenodd" clip-rule="evenodd" d="M61.3164 36.7324L61.4202 37.0437L61.9389 37.7699L62.2502 38.8074L63.1839 38.9111L63.3914 38.7036C62.6652 38.0811 62.0427 37.4587 61.3164 36.7324Z" fill="#A7A7A7"/>
<path fill-rule="evenodd" clip-rule="evenodd" d="M62.4574 38.7035L63.0799 38.8073L62.2499 37.9773L62.4574 38.7035ZM63.2874 39.1185L62.3537 39.0148C62.2499 39.0148 62.2499 38.911 62.1462 38.911L61.9387 37.8736L61.4199 37.1473L61.2124 36.8361C61.2124 36.7323 61.2124 36.6286 61.3162 36.6286C61.4199 36.5248 61.5237 36.5248 61.6274 36.6286C62.2499 37.3548 62.9762 37.9773 63.7024 38.5998C63.8062 38.7035 63.8062 38.8073 63.7024 38.8073L63.4949 39.0148C63.3912 39.1185 63.2874 39.1185 63.2874 39.1185Z" fill="#A7A7A7"/>
<path fill-rule="evenodd" clip-rule="evenodd" d="M56.3361 29.0549L56.2324 29.1586L55.1949 28.7437L54.5724 29.0549L54.7799 29.7811L54.4686 29.6774L53.9499 29.4699L53.4311 29.3661L53.3274 30.5074V31.8561L53.0161 32.8935L53.9499 36.5247L53.7424 37.8734L54.1574 38.4959L54.7799 37.1472L55.0911 36.3172L55.1949 35.7984L55.2986 35.3835H56.7511L57.0624 35.0722C57.0624 34.761 57.1661 34.346 57.2699 34.0347C57.3736 33.8273 58.0999 33.4123 58.3074 33.4123C58.5149 33.4123 58.6186 33.4123 58.8261 33.4123C57.6849 31.9598 56.9586 30.5073 56.3361 29.0549Z" fill="#A7A7A7"/>
<path fill-rule="evenodd" clip-rule="evenodd" d="M53.8463 37.7696L54.0538 37.9771L54.8838 36.2134L55.0913 35.2797C55.0913 35.176 55.1951 35.176 55.2988 35.176H56.6476L56.8551 34.9685C56.8551 34.761 56.9588 34.1385 57.0626 33.931C57.1663 33.7235 58.1001 33.2048 58.2038 33.101C58.3076 33.101 58.3076 33.101 58.4113 33.101C57.6851 31.9598 56.9588 30.7148 56.4401 29.3661H56.3363L55.2988 28.9511L54.8838 29.1586L55.0913 29.7811C55.0913 29.8849 55.0913 29.8849 54.9876 29.9886C54.8838 29.9886 54.8838 29.9886 54.7801 29.9886L53.8463 29.5736H53.4313L53.3276 30.5074V31.7523L53.0163 32.7898L53.9501 36.3172V36.4209L53.8463 37.7696ZM54.0538 38.5996C53.9501 38.5996 53.9501 38.5996 53.8463 38.4959L53.4313 37.8734V37.7696L53.6388 36.5247L52.7051 32.8935V32.7898L53.0163 31.7523V30.5074L53.1201 29.3661C53.1201 29.2624 53.1201 29.2624 53.2238 29.2624C53.3276 29.2624 53.3276 29.2624 53.4313 29.2624L53.9501 29.3661L54.4688 29.5736L54.3651 29.2624C54.3651 29.1586 54.3651 29.0549 54.4688 29.0549L55.0913 28.7437H55.1951L56.1288 29.1586V29.0549C56.1288 29.0549 56.2326 28.9511 56.3363 28.9511C56.4401 28.9511 56.4401 29.0549 56.4401 29.0549C57.0626 30.5073 57.7888 31.9598 58.6188 33.3085C58.7226 33.4123 58.6188 33.516 58.5151 33.6198H58.4113H57.9963C57.6851 33.7235 57.3738 33.931 57.0626 34.1385C56.9588 34.4497 56.9588 34.8647 56.8551 35.176C56.8551 35.176 56.8551 35.2797 56.7513 35.2797L56.4401 35.5909H56.3363H55.0913L54.9876 36.3172C54.9876 36.3172 54.9876 36.3172 54.9876 36.4209L54.6763 37.2509L54.0538 38.5996C54.2613 38.4959 54.1576 38.4959 54.0538 38.5996Z" fill="#A7A7A7"/>
<path fill-rule="evenodd" clip-rule="evenodd" d="M69.7202 42.8535L69.824 42.9573H70.0315L69.7202 42.8535Z" fill="#A7A7A7"/>
<path fill-rule="evenodd" clip-rule="evenodd" d="M70.0314 43.1647H69.8239C69.7201 43.1647 69.7201 43.1647 69.6164 43.0609V42.9572C69.5126 42.8534 69.5126 42.7497 69.6164 42.7497C69.7201 42.6459 69.7201 42.6459 69.8239 42.7497L69.9276 42.8534L70.0314 42.9572C70.1351 42.9572 70.1351 43.0609 70.1351 43.1647C70.2389 43.1647 70.1351 43.1647 70.0314 43.1647Z" fill="#A7A7A7"/>
<path fill-rule="evenodd" clip-rule="evenodd" d="M108.626 32.9975L108.73 33.1013V32.79C108.73 32.8938 108.73 32.8938 108.626 32.9975Z" fill="#A7A7A7"/>
<path fill-rule="evenodd" clip-rule="evenodd" d="M108.73 33.2047C108.73 33.2047 108.626 33.2047 108.626 33.101L108.523 32.9973C108.419 32.8935 108.419 32.7898 108.523 32.7898C108.523 32.686 108.523 32.686 108.626 32.686V32.5823C108.73 32.4785 108.73 32.4785 108.834 32.4785C108.938 32.4785 108.938 32.5823 108.938 32.686V32.9973C108.938 33.101 108.938 33.2047 108.73 33.2047Z" fill="#A7A7A7"/>
<path fill-rule="evenodd" clip-rule="evenodd" d="M107.174 35.0723C101.883 41.9196 92.6489 46.3807 82.2739 45.9657C78.4351 45.8619 74.5963 44.9282 71.0688 43.4758L71.1726 43.6833C71.1726 43.6833 71.4838 45.032 71.4838 45.2395C71.4838 45.447 71.5876 45.5507 71.6913 45.7582V46.6919L72.3138 47.6257L73.3513 48.1444L73.9739 49.7006L74.3888 50.6343L75.0114 51.4643C75.2189 51.7755 75.2188 51.568 75.2188 51.568L76.4638 51.153L77.3976 50.7381H78.4351L78.9538 51.153L79.8876 52.398L80.8213 52.9167L81.2364 52.398L81.3401 51.7755L82.0663 51.2568H82.4813L83.5188 51.568C83.7263 51.6718 83.8301 51.7755 83.9338 51.983L84.2451 52.6055L84.5563 53.228H85.2826L86.2163 53.3317L86.5276 53.9542L88.8101 54.5767C89.1213 54.5767 89.4326 54.5767 89.7438 54.5767L90.1588 53.8505L90.5739 53.4355L90.9888 53.3317C90.9888 53.3317 91.8188 53.3317 92.0263 53.3317H92.6489L93.3751 53.228L93.6864 52.9167C93.6864 52.7092 93.6863 52.5018 93.7901 52.2943L94.1013 51.568L94.2051 50.7381L94.1013 49.9081L94.4126 49.5968L95.5538 49.1819H96.1763L96.7989 49.3893L97.6288 50.3231L97.9401 51.3605L98.5626 52.0868L99.3926 52.1905L99.9114 52.398L100.43 52.5018L100.741 52.9167H101.468L102.298 52.6055H102.713V53.3317V54.058L102.401 54.7842L101.986 55.1992L101.364 55.9254L101.883 56.4441H102.816C103.024 56.2366 103.231 56.1329 103.543 56.0292C103.75 55.9254 103.958 55.5104 103.958 55.5104L104.476 54.9917L104.684 53.7467L105.514 52.1905L105.618 51.153L105.825 49.9081L105.618 49.0781L105.099 47.9369L104.995 46.8994L104.476 45.7582L103.958 45.3432H103.543L103.335 45.862L103.024 46.1732L102.816 45.9657L102.298 46.2769L101.986 45.9657H101.675V45.1357L102.194 43.6833L102.401 43.372L102.713 42.8533V42.0233L102.816 41.4008L103.128 40.9858L103.231 40.3634L103.75 39.4296L104.58 38.9109L105.514 38.2884L105.618 37.5622L105.929 37.3547L106.344 37.251L106.655 37.5622L107.07 37.3547L107.174 37.0435L107.485 36.3172L107.589 35.9022L107.174 35.6947V35.0723Z" fill="#A7A7A7"/>
<path fill-rule="evenodd" clip-rule="evenodd" d="M101.571 55.9254L101.882 56.2366H102.712C102.92 56.1329 103.127 55.9254 103.439 55.8217C103.542 55.7179 103.75 55.6142 103.75 55.4067L104.269 54.8879L104.476 53.7467L105.306 52.1905L105.41 51.153L105.617 49.9081L105.41 49.1819L104.891 48.1444C104.891 48.1444 104.891 48.1444 104.891 48.0406L104.787 47.0032L104.269 45.8619L103.957 45.3432H103.75L103.542 45.7582L103.439 46.1732L103.335 46.2769C103.231 46.2769 103.231 46.2769 103.231 46.1732L103.127 46.0694L102.712 46.2769C102.609 46.2769 102.505 46.2769 102.505 46.2769L102.297 46.0694H102.09C101.986 46.0694 101.882 45.9657 101.882 45.9657V45.3432L102.401 43.8908L102.609 43.5795L102.816 43.0608V42.0233L102.92 41.4008C102.92 41.4008 102.92 41.4008 102.92 41.2971L103.231 40.8821L103.335 40.2596L103.854 39.3259C103.854 39.3259 103.854 39.2221 103.957 39.2221L104.787 38.7034L105.617 38.0809L105.721 37.4584C105.721 37.3547 105.721 37.3547 105.825 37.3547L106.136 37.1472L106.551 37.0435C106.655 37.0435 106.655 37.0435 106.759 37.0435L107.07 37.251L107.277 37.1472L107.381 36.836L107.692 36.1097L107.796 35.9022L107.485 35.6947C107.485 35.6947 107.381 35.6947 107.381 35.591L107.277 35.3835C101.779 42.1271 93.0636 46.1732 83.6224 46.1732C83.2074 46.1732 82.6886 46.1732 82.2736 46.1732C78.5386 46.0694 74.9074 45.2395 71.3799 43.8908C71.4836 44.3057 71.5874 44.8245 71.6911 45.2395C71.6911 45.3432 71.7949 45.5507 71.7949 45.6545V45.7582V46.6919L72.3136 47.5219L73.3511 48.0406L73.4549 48.1444L74.0774 49.7006L74.4924 50.5306L75.1149 51.3605L76.3599 50.9455L77.2936 50.5306H77.3974H78.4349H78.5386L79.0574 51.0493L79.7836 52.0868L80.5099 52.5018L80.8211 52.1905L80.9249 51.6718C80.9249 51.6718 80.9249 51.568 81.0286 51.568L81.7549 51.0493H81.8586L82.2736 50.9455H82.3774L83.5186 51.2568C83.7261 51.3605 83.9336 51.568 84.0374 51.7755L84.3486 52.398L84.5561 52.9167H85.1786L86.1124 53.0205C86.2161 53.0205 86.2161 53.0205 86.2161 53.1242L86.5274 53.7467L88.7061 54.3692C88.9136 54.3692 89.0174 54.3692 89.2249 54.3692H89.5361L89.9511 53.7467L90.3661 53.3317H90.4699L90.8849 53.228H90.9886H92.0261H92.6486L93.2711 53.1242L93.4786 52.9167C93.4786 52.7092 93.4786 52.5018 93.5824 52.2943C93.6861 52.0868 93.7899 51.6718 93.8936 51.568L93.9974 50.7381L93.8936 49.9081C93.8936 49.8043 93.8936 49.8043 93.8936 49.8043L94.2049 49.4931C94.2049 49.4931 94.2049 49.4931 94.3086 49.4931L95.4499 49.0781H95.7611H96.3836L97.0061 49.2856C97.0061 49.2856 97.1099 49.2856 97.1099 49.3893L97.9399 50.3231C97.9399 50.3231 97.9399 50.3231 97.9399 50.4268L98.2511 51.4643L98.7699 52.0868L99.5999 52.1905L100.119 52.2943L100.637 52.398C100.741 52.398 100.741 52.398 100.741 52.5018L100.949 52.813H101.571L102.401 52.5018H102.505H102.712C102.816 52.5018 102.92 52.6055 102.92 52.7093V53.4355V54.1617V54.2655L102.609 54.9917V55.0954L102.194 55.5104L101.675 56.0292L101.571 55.9254ZM101.882 56.6516C101.779 56.6516 101.779 56.6516 101.779 56.5479L101.26 56.0292C101.156 55.9254 101.156 55.8217 101.26 55.7179L101.882 54.9917L102.297 54.5767L102.609 53.9542V52.7093H102.505L101.675 53.0205H101.571H100.845C100.741 53.0205 100.741 53.0205 100.637 52.9167L100.43 52.5018L99.9111 52.398L99.3924 52.1905L98.5624 52.398C98.5624 52.398 98.4586 52.398 98.4586 52.2943L97.8361 51.568V51.4643L97.6286 50.5306L96.9024 49.5968L96.2799 49.3893H95.7611L94.7236 49.7006L94.4124 50.0118L94.5161 50.8418L94.4124 51.6718C94.4124 51.6718 94.2049 52.1905 94.1011 52.398C94.1011 52.6055 93.9974 52.813 93.9974 53.0205V53.1242L93.6861 53.4355L93.5824 53.5392L92.8561 53.643H92.2336C92.1299 53.643 91.4036 53.643 91.1961 53.643L90.7811 53.7467L90.4699 54.1617L90.0549 54.8879C90.0549 54.9917 89.9511 54.9917 89.9511 54.9917H89.5361C89.3286 54.9917 89.1211 54.9917 88.9136 54.9917L86.6311 54.3692C86.5274 54.3692 86.5274 54.3692 86.5274 54.2655L86.2161 53.7467L85.3861 53.4355H84.6599C84.5561 53.4355 84.5561 53.4355 84.4524 53.3317L84.1411 52.7093L83.8299 52.0868C83.8299 51.983 83.7261 51.8793 83.6224 51.7755L82.5849 51.4643H82.2736L81.6511 51.8793L81.5474 52.398V52.5018L81.1324 53.0205C81.0286 53.1242 80.9249 53.1242 80.9249 53.0205L79.9911 52.5018C79.9911 52.5018 79.8874 52.5018 79.8874 52.398L79.1611 51.2568L78.6424 50.8418H77.7086L76.7749 51.568L75.6336 51.8793C75.6336 51.983 75.5299 51.983 75.4261 51.983C75.3224 51.983 75.2186 51.8793 75.1149 51.7755L74.4924 50.9455L74.0774 50.0118L73.4549 48.4556L72.5211 47.9369L72.4174 47.8331L71.7949 46.8994V46.7957V45.8619C71.5874 45.7582 71.5874 45.5507 71.5874 45.3432C71.4836 44.8245 71.3799 44.4095 71.2761 43.8908L71.1724 43.6833C71.1724 43.5795 71.1724 43.5795 71.1724 43.4758C71.2761 43.4758 71.2761 43.4758 71.3799 43.4758C74.9074 44.9282 78.6424 45.7582 82.4811 45.9657C82.8961 45.9657 83.4149 45.9657 83.8299 45.9657C93.2711 45.9657 101.986 41.9196 107.174 35.176C107.174 35.0723 107.277 35.0723 107.381 35.0723C107.485 35.0723 107.485 35.0723 107.589 35.176L107.796 35.6947L108.211 35.9022C108.315 35.9022 108.315 36.006 108.315 36.1097L108.211 36.5247L107.9 37.251L107.796 37.5622L107.692 37.6659L107.277 37.8734C107.174 37.8734 107.174 37.8734 107.07 37.8734L106.759 37.6659L106.551 37.7697L106.344 37.8734L106.24 38.4959C106.24 38.5997 106.24 38.5997 106.136 38.5997L105.202 39.3259L104.372 39.7409L103.957 40.5709L103.854 41.1933C103.854 41.1933 103.854 41.1933 103.854 41.2971L103.542 41.7121L103.439 42.2308V43.0608V43.1645L103.231 43.6833L102.712 44.0983L102.194 45.447V45.7582H102.297C102.297 45.7582 102.401 45.7582 102.401 45.8619L102.609 46.0694L103.024 45.8619C103.127 45.8619 103.231 45.8619 103.231 45.8619L103.335 45.9657L103.439 45.8619L103.646 45.447C103.646 45.3432 103.75 45.3432 103.75 45.3432H104.165H104.269L104.787 45.7582V45.8619L105.306 47.0032L105.41 48.0406L105.929 49.0781L106.136 49.9081V50.0118L105.929 51.3605L105.825 52.398V52.5018L104.995 54.058L104.787 55.1992C104.787 55.1992 104.787 55.3029 104.684 55.3029L104.165 55.8217C104.061 56.0292 103.854 56.2366 103.646 56.3404C103.439 56.4441 103.231 56.5479 103.024 56.7554H102.92L101.882 56.6516Z" fill="#A7A7A7"/>
<path fill-rule="evenodd" clip-rule="evenodd" d="M112.361 39.7409L112.258 39.1184L112.569 38.8071V38.0809L112.258 37.4584L112.05 37.0434L111.946 36.3172L111.843 35.9022L112.154 35.2797L111.635 34.5535L111.324 34.1385L110.494 33.516L110.183 32.4786L110.079 31.7523L110.494 31.3374V30.8186L111.013 30.6111L110.909 29.5737L111.324 29.1587L111.428 28.8474L111.324 27.6025L111.116 26.98C110.701 28.5362 110.079 30.0924 109.353 31.5448V32.2711V32.8936L109.456 34.346L109.664 35.176L109.145 36.1097L109.56 36.6284L109.871 37.3547L110.286 38.5996L111.013 39.9483L111.635 40.4671L112.361 41.0896L112.465 40.7783L112.673 40.3633L112.361 39.7409Z" fill="#A7A7A7"/>
<path fill-rule="evenodd" clip-rule="evenodd" d="M111.22 39.8446L112.257 40.7783L112.465 40.4671L112.257 39.9483L112.154 39.3259C112.154 39.2221 112.154 39.2221 112.257 39.1184L112.465 38.9109V38.2884L111.946 37.2509L111.739 36.5247V36.1097V36.006L111.946 35.591L111.22 34.5535L110.39 33.931L110.286 33.8273L109.975 32.7898L109.767 32.0636C109.767 31.9598 109.767 31.9598 109.767 31.8561L110.079 31.4411V31.0261C110.079 30.9224 110.182 30.9224 110.182 30.8186L110.597 30.7149L110.494 29.8849C110.494 29.7811 110.494 29.7811 110.597 29.6774L111.012 29.2624L111.116 29.0549L111.012 28.1212C110.597 29.4699 110.079 30.7149 109.456 31.8561V32.5823L109.56 34.6573L109.767 35.4872V35.591L109.249 36.421L109.56 36.8359L109.871 37.5622L110.286 38.8071L110.909 40.0521L111.22 39.8446ZM112.361 41.2971H112.257L111.531 40.6746L110.909 40.1558L110.182 38.9109L109.767 37.6659L109.456 36.9397L109.041 36.421C109.041 36.3172 109.041 36.3172 109.041 36.2135L109.56 35.3835L109.352 34.5535L109.249 32.4786V31.7523V31.6486C109.975 30.1961 110.597 28.7437 111.012 27.0837C111.012 26.98 111.116 26.98 111.22 26.98C111.324 26.98 111.427 27.0837 111.427 27.0837L111.531 27.7062L111.635 28.9512V29.0549L111.531 29.3662C111.531 29.3662 111.531 29.3662 111.531 29.4699L111.116 29.7811L111.22 30.7149C111.22 30.8186 111.22 30.9224 111.116 30.9224L110.701 31.0261V31.4411V31.5448L110.39 31.8561L110.494 32.4786L110.701 33.4123L111.531 34.0348L111.842 34.4498L112.361 35.176C112.361 35.2797 112.361 35.2797 112.361 35.3835L112.154 35.9022V36.3172L112.257 36.9397L112.776 38.0809V38.1847V38.9109C112.776 39.0146 112.776 39.0146 112.672 39.0146L112.465 39.2221L112.569 39.7409L112.776 40.3633V40.4671L112.569 40.7783L112.465 41.0896C112.569 41.2971 112.465 41.2971 112.361 41.2971Z" fill="#A7A7A7"/>
<path fill-rule="evenodd" clip-rule="evenodd" d="M92.6486 3.11854C91.6111 2.8073 90.5736 2.5998 89.4324 2.39231L89.6399 1.14735C90.7811 1.35484 91.8186 1.66608 92.9599 1.97732C101.571 4.46725 108.834 10.2771 113.191 18.1618C117.549 25.9429 118.586 35.0726 115.992 43.5798C111.012 60.1794 93.8936 70.0353 76.9824 66.9229L77.1899 65.6779C93.4786 68.7904 109.871 59.2456 114.644 43.2686C117.134 35.0726 116.2 26.2541 112.05 18.7843C108.004 11.1071 100.949 5.50472 92.6486 3.11854ZM89.5361 2.39231L89.7436 1.14735C72.8324 -2.06881 55.7136 7.8909 50.7336 24.3867C48.1399 32.8939 49.1774 42.1274 53.5349 49.8047C57.8924 57.6894 65.1549 63.4993 73.7661 65.8854C74.8036 66.1967 75.9449 66.5079 77.0861 66.7154L77.2936 65.4705C76.2561 65.263 75.2186 65.0555 74.0774 64.7442C65.7774 62.358 58.8261 56.7557 54.5724 49.1822C50.4224 41.7124 49.3849 32.8939 51.8749 24.6979C56.7511 8.82462 73.2474 -0.720098 89.5361 2.39231Z" fill="#A7A7A7"/>
</g>
<defs>
<clipPath id="clip0_3178_11617">
<rect width="166" height="73" fill="white"/>
</clipPath>
</defs>
</svg>
