<svg width="166" height="73" fill="none" xmlns="http://www.w3.org/2000/svg"><g clip-path="url(#a)" fill="#A7A7A7"><path d="M165.689 71.487H0v1.66h165.689v-1.66z"/><path fill-rule="evenodd" clip-rule="evenodd" d="M13.176 13.285V49.39H8.923c.622-.415 1.348-1.245 1.348-3.631V13.285h2.905zM.208 61.113H6.64v-7.47h8.093v7.47h6.432V49.388h-1.66V8.928H3.839v36.83c0 1.556-.311 3.631-3.113 3.631H.208v11.723zM34.445 37.355V16.813h.83c1.141-.104 2.075.726 2.179 1.867v16.496a1.989 1.989 0 0 1-1.764 2.179H34.445zm-6.329 20.023h6.433V41.401h3.527c2.283 0 5.81-.208 5.81-6.847V19.199c0-6.536-3.63-6.536-5.81-6.536H28.013l.103 44.715zM128.754 41.712v10.064c.103.83.726 1.452 1.556 1.452.83 0 1.452-.726 1.452-1.452V39.015c0-1.245-.207-3.009-3.32-3.009h-2.49V31.96h2.49c3.113 0 3.32-1.556 3.32-3.112V17.954c0-.726-.622-1.245-1.245-1.245h-.207c-.623 0-1.66.415-1.66 1.245v9.026h-6.433v-7.262c0-2.283.312-7.055 6.225-7.055h3.217c6.225 0 6.432 4.565 6.432 7.055v9.233c0 1.35-.311 4.462-4.772 4.669v.415c4.772-.104 4.772 4.046 4.772 4.876v11.62c0 6.847-3.32 6.743-6.432 6.743h-3.632c-5.81 0-5.81-4.772-5.81-6.743v-8.922l6.537.103zM156.04 13.285v32.577c0 2.282.83 3.216 1.349 3.63h-4.254V13.286h2.905zM166 49.493h-.415c-2.801 0-3.112-1.971-3.112-3.631V8.928h-15.667v40.461h-1.66v11.723h6.433v-7.47h8.092v7.47h6.433L166 49.492zM93.167 3.948A17.083 17.083 0 0 0 85.801.939c-.83-.103-1.556-.103-2.386-.103C79.99.732 76.67 1.873 73.87 3.948c-2.386 1.764-3.735 4.669-3.735 7.677a10.162 10.162 0 0 0 4.253 7.574 17.083 17.083 0 0 0 7.367 3.008c.83.104 1.556.208 2.386.104 3.424.104 6.744-1.037 9.545-3.112a9.434 9.434 0 0 0 3.839-7.574c-.208-3.112-1.868-5.913-4.358-7.677zm-.415 14.42c-2.49 1.868-5.498 2.906-8.611 2.802-.726 0-1.453 0-2.179-.104a14.716 14.716 0 0 1-6.743-2.697 9.258 9.258 0 0 1-3.84-6.848c0-2.697 1.246-5.187 3.424-6.743 2.49-1.971 5.5-2.905 8.612-2.905.726 0 1.452 0 2.178.104a14.716 14.716 0 0 1 6.744 2.697c2.283 1.556 3.632 4.046 3.839 6.744 0 2.801-1.245 5.29-3.424 6.95z"/><path fill-rule="evenodd" clip-rule="evenodd" d="M80.095 40.778c1.349.104 2.697.208 4.046.208 6.225-.104 12.139-2.179 16.911-6.121 4.254-3.424 6.848-8.508 6.848-14.006-.208-5.499-2.905-10.582-7.263-13.799-3.838-2.904-8.3-4.772-13.072-5.29l.207-1.038c4.98.519 9.753 2.49 13.695 5.498 4.669 3.424 7.47 8.819 7.678 14.629 0 1.037-.104 2.075-.208 3.008l-.207 1.038a20.283 20.283 0 0 1-6.848 10.893 27.824 27.824 0 0 1-17.74 6.433c-1.453 0-2.906-.104-4.255-.208l.208-1.245zm3.527-39.216c1.35-.104 2.698 0 4.047.207l.207-1.037C86.424.524 84.971.524 83.622.524a27.825 27.825 0 0 0-17.74 6.433 20.28 20.28 0 0 0-6.848 10.893l-.208 1.038c-.104 1.037-.207 1.97-.207 3.008.207 5.81 3.008 11.205 7.677 14.629a28.54 28.54 0 0 0 13.695 5.602l.208-1.141c-4.773-.519-9.234-2.386-13.073-5.291-4.461-3.528-7.262-8.404-7.262-13.799 0-5.498 2.49-10.686 6.847-14.11 4.669-4.045 10.686-6.224 16.911-6.224z"/><path fill-rule="evenodd" clip-rule="evenodd" d="M88.707 2.081c-.623.311-1.142.622-1.557 1.141l.311-1.867c.415-.104 1.453.207 1.557.518v.104s-.104 0-.311.104zM75.219 64.95c.104.208.104.416.208.623l.103.415c-.103-.104-.311-.207-.415-.207l.104-.83zM87.15 3.119l.311-1.867c-.103 0-.207.104-.31.104l-.416 1.97c.208 0 .311-.103.415-.207zM75.115 64.537l-.207.83-.104.31h.207l.104-.725c.104-.104 0-.312 0-.415zM86.84 3.43l.415-1.972c-4.046 2.18-8.819 14.94-11.724 29.05 0 .103 0 .31-.103.415l-.727 3.735c-2.178 11.93-2.905 24.069-.83 31.124.311-.104.623-.104.934-.104l.104-.311.207-.83c-2.075-7.366-.933-21.372 1.868-34.237 2.49-11.93 6.225-22.824 9.856-26.87z"/><path fill-rule="evenodd" clip-rule="evenodd" d="M50.111 29.885c2.49-6.432 6.537-11.93 11.828-16.08C67.023 9.861 73.248 7.578 79.68 7.06c7.781-.415 15.355 1.763 21.788 6.12 6.847 4.67 12.138 11.102 15.458 18.779v1.556l-.622.104a42.935 42.935 0 0 0-15.044-18.986 33.019 33.019 0 0 0-21.476-6.12 30.793 30.793 0 0 0-17.741 7.054 35.642 35.642 0 0 0-11.31 16.703l-.622-.207c0-.311 0-.623.104-1.038.104-.415-.104-.726-.104-1.14z"/><path fill-rule="evenodd" clip-rule="evenodd" d="M77.916 1.25h.104c.311-.103.623-.207.934-.207 4.15 1.66 9.441 14.42 12.969 28.738 3.216 12.968 4.876 27.182 2.8 35.274v.207l-.103.104a1.44 1.44 0 0 1-.934 0h-.518l.103-.415c2.283-7.158.623-21.787-2.697-35.274C87.15 15.88 82.066 3.43 77.813 1.873c-.312-.104-.312-.208-.208-.519 0 .104.104.104.311-.104.104-.103-.103 0 0 0z"/><path fill-rule="evenodd" clip-rule="evenodd" d="M116.2 34.346v-.104l.104-.104.622-.622.519-.519v.726c.208 7.159-3.32 13.799-9.13 18.675a39.112 39.112 0 0 1-23.136 8.3 41.173 41.173 0 0 1-23.344-6.225c-6.432-4.15-10.894-10.167-12.139-17.015v-.104l.312-3.527h.726v.519c.103 1.764.311 3.423.83 5.083 1.764 5.914 6.225 11.101 12.242 14.629 6.433 3.735 13.799 5.602 21.269 5.29 7.989-.103 15.77-2.904 22.099-7.78 5.602-4.461 8.922-10.582 9.026-17.222z"/><path fill-rule="evenodd" clip-rule="evenodd" d="M70.343 3.43h.207c9.856 1.037 18.986 5.602 25.834 12.657 7.159 7.262 11.827 16.6 13.176 26.663.311 2.075.415 4.15.415 6.225 0 2.075-.207 4.15-.519 6.12l-.103.208-.623.623-.622-.208c.311-2.075.518-4.254.622-6.328.104-2.18-.104-4.358-.415-6.433a45.453 45.453 0 0 0-13.176-26.351C88.188 9.55 79.16 5.297 69.409 4.57l-.104-.623c.208-.103.415-.103.519-.207.207-.104.311-.208.519-.311z"/><path fill-rule="evenodd" clip-rule="evenodd" d="M57.685 49.286c-1.453-11.516 1.556-22.099 7.677-30.087 6.122-8.196 15.563-13.176 25.73-13.695 1.868-.103 3.735 0 5.603.104 1.867.208 3.735.519 5.499 1.038l.103.103c.208.104.415.312.623.415.207.104.519.312.726.52l-.311.622a30.514 30.514 0 0 0-6.121-1.245c-1.868-.312-3.84-.312-5.914-.208-9.856.415-18.986 5.291-24.9 13.176-5.914 7.677-8.819 18.052-7.47 29.153.207 1.452.415 2.801.726 4.253.311 1.35.623 2.802 1.141 4.15l-.518.312-.727-.623-.103-.104a52.603 52.603 0 0 1-1.038-3.838c-.311-1.349-.519-2.698-.726-4.046z"/><path fill-rule="evenodd" clip-rule="evenodd" d="m54.054 38.392-.415-.622.207-1.349-.933-3.631.31-1.037v-1.35l.105-1.14.518.103.52.208.414.103-.207-.726.622-.31 1.038.414.31-.311V25.63l.623-1.763.104-1.038.934-.518 1.349-2.18.518-.933 1.038-.622.519-.415.622-.104.208.622.83.623-.104.83.622-.208.415-1.037h.623l.726-.311.519-.83 1.867-.83 1.35-.727h1.348l.104 1.453-.415 1.764-.52 1.348-.622.519-.726-.623v-.83l-.104-.726.415-.518-.622.103-.415.52s.104.103-.415.31c-.311.104-.623.415-.83.727v.518l.104.208h.31l.105-.519.207.311V21.69l.415.104.208-.104.518.104.623.311.311.415.208.311.518-.518.83-.416.208.312-.208.415-.726.207-.104.519.415.207h.623l.83.415.519.415.415.312v.622l.207.311.415.104.311.519.415-.104.208-.415.207-.622.208 1.452.311.415.415.623-.104.622.104.415.519.311.207-.622v-.726l.727-.415.207-.415.934-.52.415-.31.311-.312.311.727-.415.622-.518.623-.623 1.245-.83 1.14-.415.312-.519.311v.311l.415.208.52-.519.414-.415.519-.207.311.415.208.311v-.311l-.312-.623v-.622l.312-.519.31-.622.416-.52.311-.518.311-.519.208.104-.104.83v.726l.519.934-.104-.934.623.104.103.83-.103.519v.83l.207-.208.104-.934.207-.726-.207-.518.207-.415.415-.52h.52l.725.312.104-.519.623-.415.83-.207h.83l.726.207.622-.103.727-.623.726-.726.207-.104.312.623s0 .31.207.415l.726.31v.416l-.103 1.141s.103.104-.312.311c-.415.208-.933.83-1.14.934-.208.104-.208.207-.416.415-.104.207-.311.311-.311.623l-.104.31 1.66-.622.104-.518.415-.104.311.207.519.519.726-.519h.415l.104.311.622.312.415-.312v-.83h.83l.52.52 1.14 1.66h.623v-.416h.726l.623-.518.31-.312.416-.207v-.726l-.415-.83.311-.312.519-.103h.726l.415.726.311-.415.312-.623 1.141-.31.311.207.415-.52.415-.31.519-.52.519.208.103.415.934.208.208-1.038.103-.83.415-.31.208-.623h.83l.104-.415-.623-.208-.311-.311.415-.519.519-.83 1.141-.83 1.141-.622.623-.83.415-.519.518-.519 1.038.208-.208.726.312.104.415.519-.208.415-1.037.518-.415.519v.415l.207.622v.52l-.207.414v.415l.726-.104h.726l.311.52-.311.518-.104 1.245.104.934.208.83.103 1.245-.103.31-.415.416.103 1.037-.518.208v.518l-.415.416.207.726.311 1.037.83.623.312.415.518.726-.311.622.104.415.104.727.207.415.311.622v.83l-.311.311.104.623.207.622-.207.312-.104.414-.726-.622-.623-.519-.726-1.245-.415-1.245-.311-.726-.415-.519.519-.933-.208-.934-.104-1.453v-1.763l-.207-.623-.415-.415-.208.415v.311l.208.415v.52l-.104.414V33.101l-.726-.622-.208.415-.311.31-.104.623-.311 1.038.311.83.519.104-.104.415-.311.726-.104.311-.415.208-.311-.312-.415.104-.311.208-.104.726-.934.726-.83.519-.518.934-.104.622-.311.415-.104.622v.83l-.311.623-.312.311-.518 1.453v.622h.311l.311.311.519-.31.207.207.312-.312.207-.518h.415l.519.415.519 1.14.103 1.038.519 1.142.208.83-.208 1.244-.104 1.038-.83 1.556-.207 1.245-.519.519s-.311.415-.415.519c-.207.103-.519.207-.726.414h-1.038l-.518-.518.622-.727.415-.414.311-.727v-1.452h-.415l-.83.311h-.726l-.311-.415-.519-.104-.519-.207-.83-.104-.622-.622-.311-1.038-.727-1.037-.622-.208h-.623l-1.14.415-.312.311.104.83-.104.83-.311.727c0 .207-.104.415-.104.622l-.311.311-.727.104H91.196l-.518.208-.415.415-.415.726h-.934l-2.283-.623-.31-.622-.935-.104h-.726l-.311-.622-.311-.623a.81.81 0 0 0-.415-.415l-1.038-.311h-.415l-.726.519-.104.622-.415.519-.934-.415-.726-1.141-.519-.415H77.71l-.934.31-1.245.416s0 .207-.207-.104l-.623-.83-.415-.934-.83-1.556-1.037-.518-.623-.934v-.934c-.104-.207-.104-.311-.207-.519l-.312-1.556-.31-.622h-1.142l-.415-.727-.519-.726.104-.83-.415-.622-.208-.623-1.556-.415-1.037-.207-.934-.83-.83.311-.623.519h-.103l-.934-.104-.311-1.038-.52-.726-.518-1.14-.311-.935-.311-.622s-.312-.623-.52-.623c-.31-.103-.622-.207-.83-.31h-.83c-.414.103-.725.414-1.037.622-.103.31-.103.726-.207 1.14l-.311.312h-1.453l-.104.208-.103.518-.312.83-.622 1.245z"/><path fill-rule="evenodd" clip-rule="evenodd" d="m70.135 22.311-.104.104.623-.104.104-.207-.623.207zm5.81 8.404.104.104.311-.208-.415.104zm25.626 25.21.519-.518.415-.415v-.104l.311-.726v-1.556c0-.104-.103-.208-.207-.208h-.519l-.83.311h-.622v-.31l-.104-.105-.519-.103-.519-.208-.83-.104-.415-.518-.31-1.038v-.104l-.83-.933s0-.104-.105-.104l-.622-.208h-.83l-1.141.416v.103l-.312.311s-.103.104 0 .104l.104.83-.104.83c0 .104-.207.519-.31.726-.105.208-.105.415-.105.623l-.31.207-.623.104h-1.764l-.415.104h-.104l-.415.415-.311.726h-.831l-2.178-.622-.311-.623c0-.104-.104-.104-.104-.104l-.934-.103h-.622l-.208-.52-.31-.518c-.105-.207-.208-.415-.52-.519-.207-.103-1.14-.31-1.14-.31h-.105l-.415.103h-.103l-.727.519-.103.103v.52l-.312.31-.726-.415-.726-1.037-.519-.415h-1.245l-.934.415-1.245.415-.622-.83-.415-.83-.726-1.66s0-.104-.104-.104l-.934-.622-.622-.83v-1.038c-.104-.103-.104-.31-.104-.415 0-.207-.311-1.348-.311-1.556l-.312-.622c0-.104-.103-.104-.207-.104H70.03l-.31-.623-.52-.622.104-.726v-.104l-.415-.622-.207-.623c0-.104-.104-.104-.104-.104l-1.556-.415-1.038-.207-.934-.83h-.207l-.83.311-.623.519h-.103l-.623-.104-.207-.934v-.103l-.52-.727-.518-1.14-.311-.935-.311-.622c-.312-.519-.52-.726-.727-.726-.31-.104-.518-.208-.83-.312 0 0-.415-.103-.726-.103h-.311c-.104 0-1.038.415-1.141.83-.104.415-.104.83-.208 1.037l-.207.208h-1.35c-.103 0-.207.103-.207.103l-.103.934-.83 1.764-.208-.208.208-1.245v-.103l-.934-3.528.311-1.037V30.715l.104-.934.311.104.934.415h.207c.104 0 .104-.104.104-.207l-.207-.623.415-.207 1.037.414c.104 0 .208 0 .208-.103l.31-.312s.105-.103 0-.103l-.103-3.113.623-1.763.103-.934.83-.519.104-.103 1.453-2.18.518-.83 1.038-.622.519-.415.415-.103.207.415v.103l.726.623-.103.726c0 .104 0 .104.103.207h.208l.622-.207c.104 0 .104-.104.104-.104l.415-.933h.519l.726-.312s.104 0 .104-.103l.415-.727 1.867-.726 1.35-.726h1.037l.103 1.245-.31 1.66-.52 1.349-.415.31-.518-.622v-.726l-.104-.622.415-.52v-.207c0-.103-.104-.103-.208-.103l-.622.103c-.104 0-.104 0-.104.104l-.311.623c-.104.103-.208.103-.311.103-.415.208-.727.415-.934.727v.726l.104.207c0 .104.103.104.207.104h.415v.519c0 .104.104.207.104.207l.415.104h.104L68.37 22l.415.104.52.311.31.415.208.312.104.103c.103 0 .103 0 .103-.104l.312-.31-.312.518c0 .104 0 .207.104.207l.415.104h.623l.726.415.83.726v.623l.207.311.104.104.311.104.312.415c0 .103.103.103.207.103l.415-.103c.104 0 .104 0 .104-.104l.207-.311.104.622v.104l.311.415.312.519-.104.622v.104l.104.415.103.104.52.31h.103c.104 0 .104-.103.104-.103l.207-.622v-.727l.623-.415v-.103l.207-.415 1.349-.83.104-.104.207.415-.415.519-.519.622-.622 1.245-.519 1.453-.311.31-.519.208c-.207 0-.207 0-.207.104v.311c0 .104 0 .104.103.208l.415.207h.208l.622-.518.312-.415.31-.104.416.518c0 .104.104.104.207.104.104 0 .104-.104.104-.207V30.3l-.311-.519v-.518l.311-.52.208-.518.415-.519.415-.726V28.33l.518.933c0 .104.104.104.208.104s.104-.104.104-.207v-.726h.207l.104.622.104.519v.83c0 .104 0 .104.103.207h.208l.207-.207.104-.104.104-.934.207-.726v-.104l-.103-.415.103-.31.415-.416h.415l.727.311h.207c.104 0 .104-.103.104-.103l.104-.415.518-.312.83-.207h.727l.726.207h.104l.622-.103h.104l.726-.623.623-.622.207.518a.57.57 0 0 0 .311.52l.623.31v.208l-.104 1.037v.104c0 .104-.104.104-.207.104-.208.104-.415.311-.52.415-.207.207-.414.415-.518.415-.104 0-.311.104-.311.311l-.104.207c-.207.208-.311.416-.415.623l-.104.311c0 .104 0 .104.104.208h.208l1.66-.623c.103 0 .103-.104.103-.104l.104-.415h.208l.207.104.415.519c.104.104.208.104.208 0l.726-.415h.207v.207l.104.104.623.311h.207l.208-.415.103-.103v-.727h.52l.414.415 1.141 1.66c0 .104.104.104.104.104h.623s.103 0 .103-.104l.104-.103v-.312h.623l.622-.518.208-.311.31-.208c.105 0 .105-.104.105-.208v-.829l-.312-.727.104-.207.415-.104h.519l.311.623c0 .103.104.103.208.103.103 0 .103 0 .207-.103l.311-.415.312-.52 1.037-.31.208.207.103.104s.104 0 .104-.104l.415-.519.83-.726.311.104.104.311c0 .104.104.104.104.104l.934.207c.103 0 .207 0 .207-.103l.208-1.038.103-.726.312-.208.103-.103.208-.415h.622c.104 0 .208-.104.208-.104l.104-.415c0-.104 0-.207-.104-.207l-.519-.208-.104-.104.312-.415.518-.83 1.038-.83 1.141-.622s.104 0 .104-.104l.934-1.349.415-.415.726.104-.208.519c0 .104 0 .207.104.207l.311.104.312.415-.104.311-.934.415s-.104 0-.104.104l-.415.519V22l.312.415v.415l-.208.415v.519c0 .104.104.207.208.207l1.348-.103.208.31-.208.52v.103l-.103 1.35.103.933.208.83.104 1.141-.104.207-.415.415s-.104.104-.104.208l.104.83-.415.104c-.104 0-.104.104-.104.207v.415l-.311.312v.207l.207.726.312 1.038s0 .103.103.103l.83.623.727 1.037-.208.415v.519l.208.726.518 1.038v.622l-.207.208s-.104.103-.104.207l.104.623.207.622-.207.312-1.038-.934-.622-1.245-.415-1.245-.311-.726v-.104l-.312-.415.519-.83v-.104l-.207-.83-.104-2.075v-1.245l-.208-.622V30.3l-.415-.415s-.103-.104-.207-.104-.104.104-.104.104l-.207.311v.623l.207.311v.415l-.104.415v.415l-.415-.311h-.103c-.104 0-.104 0-.104.103l-.208.415-.311.312-.104.103-.103.52-.312 1.037v.103l.312.83s0 .104.103.104l.312.104-.104.207-.311.727-.104.415-.208.103-.311-.207h-.207l-.415.104-.312.207-.103.104-.104.622-.83.623-.83.518s0 .104-.104.104l-.519.934-.103.623-.312.414v.104l-.518.623v.83l-.208.518-.207.312v.103l-.519 1.453v.726c0 .104.104.208.207.208h.208l.207.207h.208l.415-.207.104.103.103.104c.104 0 .104 0 .104-.104l.311-.31v-.105l.208-.415h.207l.415.312.519 1.14.104 1.038v.104l.519 1.038.207.726-.207 1.245-.104 1.037-.83 1.556-.208 1.142-.518.518c-.104.208-.208.312-.312.415-.207.104-.415.208-.726.415h-.83l-.311-.311-.208.207zm.312.727c-.104 0-.104 0-.104-.104l-.519-.519c-.104-.104-.104-.207 0-.311l.623-.726.415-.415.311-.623V52.71h-.104l-.83.312h-.83c-.104 0-.104 0-.207-.104l-.208-.415-.519-.104-.518-.207-.83.207s-.104 0-.104-.104l-.623-.726v-.104l-.207-.933-.726-.934-.623-.208h-.519l-1.037.312-.311.31.103.83-.103.83s-.208.52-.312.727c0 .208-.103.415-.103.623v.103l-.312.312h-.103l-.727.103H91.196l-.415.104-.31.415-.52.726-.103.104H88.81l-2.282-.622c-.104 0-.104 0-.104-.104l-.311-.519-.727-.207h-.726c-.104 0-.104 0-.207-.104l-.312-.623-.31-.622c0-.104-.105-.208-.208-.311l-1.038-.312h-.311l-.623.415-.103.52v.103l-.415.519c-.104.103-.208.103-.208 0l-1.037-.312s-.104 0-.104-.103l-.726-1.142-.52-.415h-.933l-.83.415-1.141.312c0 .103-.104.103-.208.103-.103 0-.31-.103-.31-.207l-.623-.83-.415-.934-.623-1.556-.934-.519-.103-.103-.623-.934v-1.038c-.104-.207-.207-.415-.207-.518-.104-.52-.208-.934-.312-1.453l-.207-.519H70.03c-.103 0-.103 0-.207-.103l-.415-.727-.519-.726v-.104l.104-.726-.415-.622-.104-.519-1.452-.415-1.142-.208h-.103l-.934-.726-.623.311-.518.415-.208.312c0 .103-.104.103-.207.103l-.934-.103c-.104 0-.104-.104-.208-.104l-.31-.934-.52-.726-.518-1.141-.312-.934-.31-.622c-.105-.208-.208-.415-.416-.52-.311-.103-.622-.207-.83-.31h-.726c-.311.103-.623.31-.934.518-.104.312-.104.727-.207 1.038 0 0 0 .104-.104.104h-1.453l-.103.83v.103l-.415.623-.623 1.349c0 .103-.104.103-.207.103-.104 0-.104 0-.208-.104l-.415-.622v-.104l.208-1.245-.83-3.527V33.1l.31-1.037v-1.245l.105-1.142c0-.103 0-.103.103-.103h.208l.519.103.518.208-.103-.311c0-.104 0-.208.103-.208l.623-.31h.104l.933.414-.103-.415-.104-3.009v-.103l.622-1.764.104-.934c0-.104 0-.104.104-.104l.934-.518 1.348-2.179.52-.934s0-.103.103-.103l1.037-.623.52-.415h.103l.622-.104c.104 0 .208 0 .208.104l.207.519.727.622s.103.104.103.208l-.103.415.207-.104.415-1.037c0-.104.104-.104.208-.104h.518l.623-.311.415-.727.104-.103 1.867-.83 1.349-.727H70.446c.104 0 .208.104.208.208l.104 1.452v.104l-.415 1.66-.52 1.349s0 .104-.103.104l-.622.518c-.104.104-.208.104-.312 0l-.622-.83V19.2l-.104.208c0 .103-.104.207-.519.415-.31.103-.518.31-.726.518v.519l.104-.415c0-.104.104-.104.207-.104.104 0 .104 0 .208.104l.104.311V21.69h.103l.104-.104h.208l.518.104h.104l.623.311s.103 0 .103.104l.415.519.312-.415h.103l.83-.623c.104 0 .208 0 .312.104l.207.311v.208l-.207.311-.104.104-.623.104v.207l.208.104h.726l.83.415.934.726v.622l.207.208.312.104s.103 0 .103.103l.312.415h.207l.208-.31.207-.623c0-.104.104-.104.208-.104.103 0 .207.104.207.207l.208 1.453.31.415.312.622v.104l-.104.623.104.31.311.105.104-.415v-.727c0-.103 0-.103.104-.207l.622-.415.208-.415v-.104l1.349-.83.31-.311h.208c.104 0 .104.104.104.104l.311.726v.207l-.415.623-.933.83-.623 1.245-.726 1.245.519-.208h.207v-.83l.311-.622.312-.519.415-.519.518-.933c0-.104.104-.104.208-.104l.207.104c.104 0 .104.103.104.207l-.104.83v.623-.208h.208l.622.104c.104 0 .104.104.208.104l.104.622.103-.311-.103-.415v-.104l.207-.311.415-.519.104-.104h.622l.52.208v-.208c0-.103 0-.103.103-.103l.622-.415h.104l.83-.208h1.038l.726.208.519-.104.622-.623.726-.726h.104l.208-.104c.103 0 .207 0 .207.104l.311.623v.311l.727.311c.103 0 .103.104.103.104v.415l-.103 1.037v.104c0 .104-.104.311-.415.519-.312.207-.312.311-.52.415-.207.207-.414.311-.622.518 0 0-.103 0-.103.104l-.208.208c-.104.103-.207.311-.311.415l1.141-.415.104-.415c0-.104.104-.104.207-.104l.415-.104h.104l.311.104.415.415.623-.415h.519c.103 0 .103 0 .207.104l.104.207.415.208.207-.104v-.726c0-.104.104-.208.208-.208h.83c.104 0 .104 0 .104.104l.518.519 1.038 1.66h.311v-.208c0-.104.104-.207.208-.207h.622l.623-.519.207-.311h.104l.311-.104v-.519l-.415-.83v-.207l.311-.415.104-.104.519-.104.726-.103c.104 0 .104 0 .208.103l.207.52.104-.208.311-.52.104-.103 1.141-.311h.208l.103.104.312-.415.415-.312.518-.518h.208l.519.207c.103 0 .103.104.103.104l.104.311.83.311.208-.83.103-.726c0-.104 0-.104.104-.104l.311-.207.208-.519c0-.104.104-.104.207-.104h.623l-.415-.207h-.104l-.311-.311c-.104-.104-.104-.208 0-.311l.415-.52.519-.83 1.141-.83 1.141-.622.934-1.348.519-.52h.207l1.038.208c.103 0 .103 0 .103.104v.208l-.207.518.207.104v.104l.415.519v.207l-.207.415s0 .104-.104.104l-.934.415-.311.518v.312l.311.415v.726l-.207.415v.104l1.349-.104c.103 0 .103 0 .207.104l.311.518v.208l-.311.519-.104 1.245.104.83.208.83.103 1.244v.104l-.103.311v-.103l-.415.311.103.934c0 .104 0 .207-.103.207l-.415.104v.519l-.312.311.104.622.208.934.83.623.311.415.519.726v.207l-.208.52v.414l.104.623.519 1.037v.83c0 .104 0 .104-.104.104l-.208.207.104.519.208.623v.103l-.208.312-.104.31c0 .104-.103.104-.103.104h-.208l-.726-.622-.623-.519-.726-1.245-.415-1.245-.311-.726-.415-.519v-.207l.519-.83-.208-.83-.104-2.075v-1.453l-.207-.518-.208-.208v.623l.208.311v.622l-.104.415V33.101c0 .104-.104.104-.104.208h-.207l-.519-.415-.104.207-.311.208-.104.518-.311 1.038.311.622.415.208c.104 0 .104.104.104.207l-.104.415-.311.727-.104.31-.103.105-.415.207h-.208l-.311-.207-.208.103-.207.104-.104.623c0 .103 0 .103-.104.103l-.933.726-.83.415-.415.83-.104.623v.104l-.311.415-.104.518V42.957l-.311.623-.208.31-.519 1.35v.31h.208l.207.208.415-.207h.208l.104.104.103-.104.208-.415c0-.104.104-.104.104-.104h.518l.519.415v.104l.519 1.141.104 1.038.518 1.037.208.83v.104l-.208 1.348-.103 1.038v.104l-.83 1.556-.208 1.141s0 .104-.104.104l-.518.519a1.256 1.256 0 0 1-.519.518c-.208.104-.415.208-.623.415h-.103l-.83.208z"/><path fill-rule="evenodd" clip-rule="evenodd" d="m112.361 39.741-.103-.623.311-.31v-.727l-.311-.622-.208-.415-.104-.727-.103-.415.311-.622-.519-.726-.311-.415-.83-.623-.311-1.037-.104-.726.415-.416v-.518l.519-.208-.104-1.037.415-.415.104-.311-.104-1.245-.208-.83-.103-.83.103-1.349.312-.519-.312-.518h-1.452v-.415l.207-.415v-.52l-.311-.414v-.415l.415-.519 1.038-.519.207-.415-.415-.518-.311-.104.207-.726-1.037-.208-.519.519-.415.519-.622.83-1.245.622-1.142.83-.518.83c-.104.208-.104.415-.208.623l.104.103.622.208-.103.415h-.83l-.208.622-.311.208-.104.31-.104.52-.207 1.037-.519-.104c-4.357 7.263-12.346 11.413-20.75 10.998-11.309-.415-20.335-8.611-21.58-18.779l-.104.104-1.037.623-.415.83-1.349 2.178-.934.519-.103 1.037-.623 1.764v3.113l-.311.31-1.038-.414-.622.311.207.726-.31-.103-.52-.208-.518-.104-.104 1.142v1.348l-.311 1.038.933 3.63-.207 1.35.415.622.622-1.349.312-.83.103-.518.104-.415h1.453l.31-.312s.105-.83.208-1.037c.104-.208.83-.623 1.038-.623h.83c.311.104.519.208.83.312.207 0 .519.622.519.622l.31.623.312.933.519 1.142.519.726.31 1.037.935.104.207-.311.623-.519.83-.311.933.83 1.142.311 1.556.415.207.623.415.622-.103.83.518.726.415.726h1.142l.31.623.312 1.556c0 .208.104.311.208.519v.934l.622.933 1.038.519.622 1.556.415.934.623.83c.207.311.207.104.207.104l1.245-.415.934-.415h1.037l.52.415.725 1.14.934.52.415-.52.104-.622.726-.518h.415l1.038.31a.81.81 0 0 1 .415.416l.31.622.312.623h.726l.934.104.311.622 2.283.623h.934l.415-.727.415-.415.415-.103h1.66l.726-.104.311-.311c0-.208 0-.415.104-.623l.311-.726.104-.83-.104-.83.311-.311 1.142-.415h.622l.623.207.83.934.31 1.037.623.727.83.103.519.104.519.104.311.415h.726l.83-.311h.312v1.452l-.312.726-.415.415-.622.727.519.518h.933c.208-.207.415-.311.727-.415.207-.103.415-.518.415-.518l.518-.52.208-1.244.83-1.556.104-1.038.207-1.245-.207-.83-.519-1.141-.104-1.037-.519-1.142-.518-.415h-.415l-.208.52-.311.31-.208-.207-.518.311-.312-.311h-.311v-.623l.519-1.452.207-.311.312-.52v-.829l.103-.623.312-.414.103-.623.519-.934.83-.519.934-.622.104-.726.311-.208.415-.103.311.31.415-.207.104-.31.311-.727.104-.415-.415-.208-.311-.83.311-1.037.104-.622.311-.312.311-.415.726.623V31.96l.104-.415v-.519l-.207-.415V30.3l.207-.415.415.415.208.622V32.687l.103 1.453.208.83-.519.933.415.52.311.725.415 1.245.727 1.245.622.519.726.623.104-.312.208-.415-.312-.311z"/><path fill-rule="evenodd" clip-rule="evenodd" d="m101.571 55.926.312.311h.83c.207-.104.415-.311.726-.415.104-.104.311-.208.311-.415l.519-.519.207-1.14.83-1.557.104-1.038.208-1.245-.208-.726-.519-1.037v-.104l-.103-1.037-.519-1.142-.311-.518h-.208l-.207.415-.104.415-.104.103c-.104 0-.104 0-.104-.103l-.103-.104-.415.207h-.208l-.207-.207h-.208c-.104 0-.207-.104-.207-.104v-.622l.518-1.453.208-.311.207-.519v-1.037l.104-.623v-.104l.311-.414.104-.623.519-.934s0-.104.104-.104l.83-.518.83-.623.103-.622c0-.104 0-.104.104-.104l.311-.207.415-.104h.208l.311.207.208-.103.103-.312.312-.726.103-.207-.311-.208s-.104 0-.104-.104l-.311-.83v-.103l.311-1.038.104-.519s0-.103.104-.103l.311-.311.208-.415.103-.104h.104l.415.311v-.415l.104-.415v-.415l-.208-.311v-.415l.208-.311c0-.104.104-.104.104-.104.103 0 .103 0 .207.104l.415.415v.103l.208.623v1.244l.103 2.076.208.83v.103l-.519.83.311.415.312.727.415 1.244.622 1.245 1.038.934.207-.311-.207-.519-.104-.622c0-.104 0-.104.104-.208l.207-.207v-.623l-.519-1.037-.207-.726v-.519l.207-.415-.726-1.038-.83-.622-.104-.104-.311-1.037-.207-.726v-.208l.311-.415v-.415c0-.104.104-.104.104-.208l.415-.103v-1.038l.415-.415.103-.207-.103-1.141-.208-.83-.104-.934.104-1.349v-.104l.208-.518-.208-.311-1.349.103c-.103 0-.207-.103-.207-.207v-.519l.207-.415v-.415l-.311-.415v-.623l.415-.518s0-.104.104-.104l.934-.415.103-.207-.311-.415-.311-.104c-.104 0-.104-.104-.104-.208l.208-.518-.727-.104-.415.415-.933 1.349-.104.103-1.141.623-1.038.726-.519.83c0 .207-.103.311-.207.519l.519.207c.103 0 .103.104.103.208l-.103.415c0 .103-.104.103-.208.103h-.622l-.208.415v.104l-.207.104-.104.311-.104.519-.207 1.037c0 .104-.104.104-.208.104l-.311-.104c-4.254 6.951-11.724 11.101-19.816 10.997h-1.038c-5.395-.207-10.582-2.178-14.629-5.81a21.006 21.006 0 0 1-7.055-12.864l-.726.415-.519.83-1.452 2.179v.104l-.83.518-.104.934-.622 1.764.103 3.112v.104l-.31.311h-.208l-1.038-.415-.415.207.208.623c0 .104 0 .104-.104.207h-.208l-.933-.415-.312-.103-.103.933v1.245l-.312 1.038.934 3.527v.104l-.104 1.349.208.207.83-1.763.207-.934c0-.104.104-.104.208-.104h1.349l.207-.207c0-.208.104-.83.208-1.038.103-.207 1.037-.726 1.14-.83h.312c.311 0 .623.104.726.104.208.104.52.207.83.311.208 0 .415.311.727.726l.31.623.312.934.519 1.14.311.83v.105l.208.933.622.104.104-.208.622-.518.83-.312h.208l.934.83 1.037.208 1.556.415c.104 0 .104.104.104.104l.208.622.415.623v.103l-.104.727.519.622.31.623h1.038c.104 0 .104 0 .208.103l.311.623c0 .207.311 1.349.311 1.556 0 .104.104.311.104.415v1.038l.519.83 1.037.518.104.104.623 1.556.415.83.622.83 1.245-.415.934-.415h1.245l.519.519.726 1.037.726.415.311-.31.104-.52s0-.103.104-.103l.726-.52h.104l.415-.103h.104l1.14.311c.208.104.416.312.52.52l.31.622.208.518h.623l.934.104c.103 0 .103 0 .103.104l.312.622 2.178.623H89.536l.415-.623.415-.415h.104l.415-.103h1.764l.622-.104.208-.208c0-.207 0-.415.104-.622.103-.208.207-.623.31-.726l.105-.83-.104-.83V49.7l.311-.311h.104l1.141-.415H96.384l.622.207s.104 0 .104.104l.83.934v.103l.311 1.038.52.622.83.104.518.104.519.104c.103 0 .103 0 .103.103l.208.312h.622l.83-.312h.312c.103 0 .207.104.207.208v1.556l-.311.726v.104l-.415.415-.623.519zm.312.726c-.104 0-.104 0-.104-.104l-.519-.519c-.104-.103-.104-.207 0-.31l.623-.727.415-.415.311-.622V52.71h-.104l-.83.31h-.83c-.104 0-.104 0-.207-.103l-.208-.415-.519-.104-.518-.207-.83.207s-.104 0-.104-.103l-.623-.727v-.103l-.207-.934-.726-.934-.623-.207h-.519l-1.037.311-.311.311.103.83-.103.83s-.208.519-.312.726c0 .208-.103.415-.103.623v.104l-.312.31-.103.105-.727.103H91.196l-.415.104-.31.415-.416.726c0 .104-.104.104-.104.104h-1.037l-2.283-.622c-.103 0-.103 0-.103-.104l-.312-.519-.83-.311h-.726c-.104 0-.104 0-.207-.104l-.312-.622-.31-.623c0-.104-.105-.207-.208-.311l-1.038-.311h-.311l-.623.415-.103.518v.104l-.415.519c-.104.104-.208.104-.208 0l-.934-.519s-.103 0-.103-.104l-.727-1.14-.518-.416h-.934l-.934.726-1.141.312c0 .103-.104.103-.208.103-.103 0-.207-.103-.31-.207l-.623-.83-.415-.934-.623-1.556-.934-.519-.103-.103-.623-.934v-1.038c-.207-.103-.207-.31-.207-.518-.104-.52-.208-.934-.312-1.453l-.207-.519H70.03c-.103 0-.103 0-.207-.103l-.311-.727-.52-.726v-.104l.105-.726-.415-.622-.208-.519-1.452-.415-1.142-.208h-.103l-.934-.726-.519.104-.519.415-.207.311c0 .104-.104.104-.208.104l-.933-.104c-.104 0-.104-.104-.208-.104l-.311-.933-.519-.726-.519-1.142-.31-.933-.312-.623c-.104-.207-.208-.415-.415-.519-.311-.103-.623-.207-.83-.31h-.726c-.312.103-.623.31-.934.518-.104.311-.104.726-.208 1.037 0 0 0 .104-.103.104l-.104.104H55.61l-.104.726v.104l-.31.83-.623 1.348c0 .104-.104.104-.208.104s-.104 0-.207-.104l-.415-.622v-.104l.207-1.245-1.037-3.63V33.1l.31-1.037v-1.245l.105-1.141c0-.104 0-.104.103-.104h.208l.519.104.518.207-.103-.311c0-.104 0-.208.103-.208l.623-.31h.104l.933.414-.103-.415-.104-3.008v-.104l.622-1.764.104-.933c0-.104 0-.104.104-.208l.934-.519 1.348-2.178.52-.934s0-.104.103-.104l1.037-.622h.208c.104 0 .104.103.104.103C62.458 29.16 71.483 36.94 82.585 37.46h.934a22.612 22.612 0 0 0 19.609-10.894c0-.103.103-.103.207-.103h.415l.208-.83.103-.52v-.103l.104-.311.104-.104.207-.104.208-.518c0-.104.104-.104.207-.104h.623l-.415-.207s-.104 0-.104-.104l-.104-.104v-.207l.208-.623v-.104l.519-.83 1.141-.83 1.141-.622.934-1.349.519-.519s.103-.103.207-.103l1.038.207c.103 0 .103.104.103.104v.104l-.103.518.103.104v.104l.415.519v.207l-.207.415-.104.104-.934.415-.311.518v.312l.311.415v.726l-.207.415v.104l1.349-.104c.103 0 .103 0 .207.104l.311.519v.207l-.311.519-.104 1.245.104.83.208.83.103 1.245v.103l-.103.311v.104l-.415.312.103.933c0 .104 0 .208-.103.208l-.415.104v.518l-.312.311.104.623.208.934.83.622.311.415.519.726v.208l-.208.519v.415l.104.622.519 1.141v.83c0 .104 0 .104-.104.104l-.208.207.104.52.208.622v.104l-.208.31-.104.312c0 .104-.103.104-.103.104h-.208l-.726-.623-.623-.518-.726-1.245-.415-1.245-.311-.727-.415-.518v-.208l.519-.83-.208-.83-.104-2.075v-1.349l-.207-.518-.208-.208v.519l.208.311v.623l-.104.415v.933c0 .104-.104.104-.104.208h-.207l-.519-.415-.104.207v.104l-.311.208-.104.518-.311 1.038.311.622.415.208c.104 0 .104.104.104.207l-.104.415-.311.727-.104.31-.103.105-.415.207h-.208l-.311-.207-.208.103-.207.104-.104.622c0 .104 0 .104-.104.104l-.933.726-.83.416-.415.83-.104.622v.104l-.311.415-.104.518V43.061l-.311.623-.208.31-.519 1.35v.31h.104s.104 0 .104.105l.207.207.415-.207h.208l.104.103.103-.103.208-.415c0-.104.104-.104.104-.104h.518l.519.415v.104l.519 1.14.104 1.038.518 1.038.208.83v.103l-.208 1.35-.103 1.037v.103l-.83 1.557-.208 1.14s0 .105-.104.105l-.518.518a1.255 1.255 0 0 1-.519.519c-.208.104-.415.207-.623.415H101.883z"/><path fill-rule="evenodd" clip-rule="evenodd" d="m61.316 36.732.104.312.519.726.311 1.037.934.104.207-.207c-.726-.623-1.348-1.245-2.075-1.972z"/><path fill-rule="evenodd" clip-rule="evenodd" d="m62.457 38.703.623.104-.83-.83.207.727zm.83.415-.933-.103c-.104 0-.104-.104-.208-.104l-.207-1.037-.52-.727-.207-.31c0-.105 0-.208.104-.208.104-.104.208-.104.311 0 .623.726 1.35 1.348 2.075 1.97.104.105.104.208 0 .208l-.207.208c-.104.103-.208.103-.208.103zM56.336 29.055l-.104.104-1.037-.415-.623.31.208.727-.311-.104-.52-.207-.518-.104-.104 1.141v1.35l-.31 1.037.933 3.63-.208 1.35.415.622.623-1.349.311-.83.104-.519.104-.415h1.452l.311-.31c0-.312.104-.727.208-1.038.104-.208.83-.623 1.037-.623h.52c-1.142-1.452-1.868-2.905-2.49-4.357z"/><path fill-rule="evenodd" clip-rule="evenodd" d="m53.846 37.77.208.207.83-1.764.207-.933c0-.104.104-.104.208-.104h1.349l.207-.208c0-.207.104-.83.208-1.037.103-.207 1.037-.726 1.14-.83h.208c-.726-1.141-1.452-2.386-1.97-3.735h-.105l-1.037-.415-.415.208.207.622c0 .104 0 .104-.103.208h-.208l-.934-.415h-.415l-.103.933v1.245l-.312 1.038.934 3.527v.104l-.104 1.349zm.208.83c-.104 0-.104 0-.208-.104l-.415-.623v-.103l.208-1.245-.934-3.631v-.104l.311-1.038v-1.245l.104-1.14c0-.105 0-.105.104-.105h.207l.52.104.518.208-.104-.312c0-.103 0-.207.104-.207l.622-.311h.104l.934.415v-.104s.104-.104.207-.104c.104 0 .104.104.104.104a32.865 32.865 0 0 0 2.179 4.254c.104.103 0 .207-.104.31h-.519c-.31.105-.622.312-.933.52-.104.31-.104.726-.208 1.037 0 0 0 .104-.104.104l-.31.31h-1.35l-.103.727v.104l-.312.83-.622 1.349c.207-.104.104-.104 0 0zM69.72 42.853l.104.104h.207l-.31-.104z"/><path fill-rule="evenodd" clip-rule="evenodd" d="M70.031 43.165h-.207c-.104 0-.104 0-.208-.104v-.104c-.103-.104-.103-.207 0-.207.104-.104.104-.104.208 0l.104.103.103.104c.104 0 .104.104.104.208h-.104zM108.626 32.998l.104.103v-.311c0 .104 0 .104-.104.208z"/><path fill-rule="evenodd" clip-rule="evenodd" d="M108.73 33.205s-.104 0-.104-.104l-.103-.104c-.104-.103-.104-.207 0-.207 0-.104 0-.104.103-.104v-.104c.104-.104.104-.104.208-.104s.104.104.104.208v.311c0 .104 0 .208-.208.208zM107.174 35.072c-5.291 6.848-14.525 11.309-24.9 10.894-3.839-.104-7.678-1.038-11.205-2.49l.104.207s.31 1.349.31 1.556c0 .208.105.312.208.52v.933l.623.934 1.037.518.623 1.557.415.933.622.83c.208.312.208.104.208.104l1.245-.415.934-.415h1.037l.519.415.934 1.245.933.519.415-.519.104-.623.726-.518h.415l1.038.311a.81.81 0 0 1 .415.415l.311.623.311.622h.727l.933.104.312.622 2.282.623h.934l.415-.727.415-.415.415-.103h1.66l.726-.104.311-.311c0-.208 0-.415.104-.623l.311-.726.104-.83-.104-.83.312-.311 1.14-.415h.623l.623.207.83.934.311 1.038.623.726.83.103.518.208.519.104.311.415h.727l.83-.312h.415V54.059l-.312.726-.415.415-.622.726.519.52h.933c.208-.208.415-.312.727-.416.207-.104.415-.519.415-.519l.518-.518.208-1.245.83-1.556.104-1.038.207-1.245-.207-.83-.519-1.141-.104-1.038-.519-1.14-.518-.416h-.415l-.208.519-.311.311-.208-.207-.518.31-.312-.31h-.311v-.83l.519-1.453.207-.311.312-.519v-.83l.103-.622.312-.415.103-.623.519-.933.83-.52.934-.622.104-.726.311-.207.415-.104.311.311.415-.207.104-.311.311-.727.104-.415-.415-.207v-.623z"/><path fill-rule="evenodd" clip-rule="evenodd" d="m101.571 55.925.311.312h.83c.208-.104.415-.312.727-.415.103-.104.311-.208.311-.415l.519-.52.207-1.14.83-1.556.104-1.038.207-1.245-.207-.726-.519-1.038v-.103l-.104-1.038-.518-1.141-.312-.519h-.207l-.208.415-.103.415-.104.104c-.104 0-.104 0-.104-.104l-.104-.104-.415.208h-.207l-.208-.208h-.207c-.104 0-.208-.103-.208-.103v-.623l.519-1.452.208-.311.207-.52v-1.037l.104-.622v-.104l.311-.415.104-.622.519-.934s0-.104.103-.104l.83-.519.83-.622.104-.623c0-.103 0-.103.104-.103l.311-.208.415-.103h.208l.311.207.207-.104.104-.311.311-.726.104-.208-.311-.207s-.104 0-.104-.104l-.104-.208c-5.498 6.744-14.213 10.79-23.655 10.79h-1.348c-3.735-.104-7.367-.934-10.894-2.282.104.415.207.934.311 1.349 0 .103.104.31.104.414v1.038l.519.83 1.037.519.104.103.622 1.557.415.83.623.83 1.245-.415.934-.415h1.245l.518.518.727 1.038.726.415.311-.312.104-.518s0-.104.104-.104l.726-.519h.104l.415-.103h.103l1.142.31c.207.105.415.312.518.52l.312.622.207.519h.623l.933.103c.104 0 .104 0 .104.104l.311.623 2.18.622h.829l.415-.622.415-.415h.104l.415-.104h1.764l.622-.104.208-.207c0-.208 0-.415.103-.623.104-.207.208-.622.312-.726l.103-.83-.103-.83v-.104l.31-.31h.105l1.14-.416h.935l.622.208s.104 0 .104.103l.83.934v.104l.311 1.037.519.623.83.103.519.104.518.104c.104 0 .104 0 .104.104l.208.311h.622l.83-.311h.311c.104 0 .208.103.208.207v1.557l-.311.726v.103l-.415.415-.519.52-.104-.105zm.311.727c-.103 0-.103 0-.103-.104l-.519-.519c-.104-.104-.104-.207 0-.311l.622-.726.415-.415.312-.623V52.71h-.104l-.83.311h-.83c-.104 0-.104 0-.208-.103l-.207-.415-.519-.104-.519-.208-.83.208s-.103 0-.103-.104l-.623-.726v-.104l-.207-.933-.727-.934-.622-.208h-.519l-1.037.312-.312.31.104.83-.104.83s-.207.52-.31.727c0 .207-.105.415-.105.622v.104l-.31.311-.105.104-.726.104H91.196l-.415.104-.311.415-.415.726c0 .104-.104.104-.104.104h-1.037l-2.283-.623c-.104 0-.104 0-.104-.103l-.31-.52-.83-.31h-.727c-.104 0-.104 0-.208-.104l-.31-.623-.312-.622c0-.104-.104-.208-.208-.312l-1.037-.31h-.311l-.623.414-.104.519v.104l-.415.518c-.103.104-.207.104-.207 0l-.934-.518s-.104 0-.104-.104l-.726-1.141-.519-.415h-.933l-.934.726-1.141.311c0 .104-.104.104-.208.104s-.207-.104-.311-.207l-.623-.83-.415-.934-.622-1.556-.934-.52-.104-.103-.622-.934V45.862c-.208-.104-.208-.311-.208-.519-.103-.519-.207-.934-.31-1.452l-.105-.208v-.207h.208a33.873 33.873 0 0 0 11.101 2.49h1.349c9.441 0 18.156-4.046 23.344-10.79 0-.104.103-.104.207-.104s.104 0 .208.104l.207.519.415.207c.104 0 .104.104.104.208l-.104.415-.311.726-.104.311-.104.104-.415.207h-.207l-.311-.207-.208.104-.207.103-.104.623c0 .104 0 .104-.104.104l-.934.726-.83.415-.415.83-.103.622v.104l-.312.415-.103.519V43.164l-.208.52-.519.414-.518 1.349v.311h.103s.104 0 .104.104l.208.207.415-.207h.207l.104.104.104-.104.207-.415c0-.104.104-.104.104-.104h.519l.518.415v.104l.519 1.141.104 1.038.519 1.037.207.83v.104l-.207 1.349-.104 1.037v.104l-.83 1.556-.208 1.141s0 .104-.103.104l-.519.519a1.25 1.25 0 0 1-.519.518c-.207.104-.415.208-.622.415h-.104l-1.038-.103zM112.361 39.74l-.103-.622.311-.31v-.727l-.311-.623-.208-.415-.104-.726-.103-.415.311-.622-.519-.727-.311-.414-.83-.623-.311-1.037-.104-.727.415-.415v-.518l.519-.208-.104-1.037.415-.415.104-.312-.104-1.245-.208-.622c-.415 1.556-1.037 3.112-1.763 4.565v1.349l.103 1.452.208.83-.519.934.415.518.311.727.415 1.245.727 1.348.622.52.726.622.104-.312.208-.415-.312-.622z"/><path fill-rule="evenodd" clip-rule="evenodd" d="m111.22 39.845 1.037.933.208-.31-.208-.52-.103-.622c0-.104 0-.104.103-.208l.208-.207v-.623l-.519-1.037-.207-.726v-.519l.207-.415-.726-1.038-.83-.622-.104-.104-.311-1.037-.208-.726v-.208l.312-.415v-.415c0-.104.103-.104.103-.207l.415-.104-.103-.83c0-.104 0-.104.103-.208l.415-.415.104-.207-.104-.934a20.119 20.119 0 0 1-1.556 3.735v.726l.104 2.075.207.83v.104l-.518.83.311.415.311.726.415 1.245.623 1.245.311-.207zm1.141 1.452h-.104l-.726-.622-.622-.52-.727-1.244-.415-1.245-.311-.726-.415-.519v-.207l.519-.83-.208-.83-.103-2.075v-.83c.726-1.453 1.348-2.905 1.763-4.565 0-.104.104-.104.208-.104s.207.104.207.104l.104.622.104 1.245v.104l-.104.311v.104l-.415.311.104.934c0 .104 0 .207-.104.207l-.415.104v.519l-.311.311.104.623.207.933.83.623.311.415.519.726v.207l-.207.52v.414l.103.623.519 1.14v.831c0 .104 0 .104-.104.104l-.207.207.104.519.207.622v.104l-.207.311-.104.312c.104.207 0 .207-.104.207z"/><path fill-rule="evenodd" clip-rule="evenodd" d="M92.649 3.119c-1.038-.312-2.075-.52-3.217-.727l.208-1.245c1.141.208 2.179.52 3.32.83 8.611 2.49 15.874 8.3 20.231 16.185 4.358 7.78 5.395 16.91 2.801 25.418-4.98 16.6-22.098 26.455-39.01 23.343l.208-1.245c16.289 3.112 32.681-6.432 37.454-22.41a31.504 31.504 0 0 0-2.594-24.484c-4.046-7.677-11.101-13.28-19.401-15.665zm-3.113-.727.208-1.245c-16.912-3.216-34.03 6.744-39.01 23.24a32.45 32.45 0 0 0 2.8 25.418c4.358 7.884 11.62 13.694 20.232 16.08 1.038.312 2.179.623 3.32.83l.208-1.245c-1.038-.207-2.075-.415-3.217-.726-8.3-2.386-15.25-7.988-19.505-15.562-4.15-7.47-5.187-16.288-2.697-24.484C56.75 8.825 73.247-.72 89.536 2.392z"/></g><defs><clipPath id="a"><path fill="#fff" d="M0 0h166v73H0z"/></clipPath></defs></svg>