<svg width="142" height="101" viewBox="0 0 142 101" fill="none" xmlns="http://www.w3.org/2000/svg">
<g id="phosagroLogoWhiteVert">
<g id="g24">
<g id="g26">
<g id="g32">
<path id="path34" d="M25.4863 46.2182C25.4863 46.2182 39.2556 46.3552 45.4933 47.5059C65.3574 51.1351 66.118 70.0735 66.118 70.0735C66.118 70.0735 62.8846 70.2576 54.3467 70.2576C34.4425 70.2576 25.4863 46.2182 25.4863 46.2182Z" fill="white"/>
</g>
</g>
</g>
<g id="g36">
<g id="g38">
<g id="g44">
<path id="path46" d="M9.32038 93.9964C7.99948 94.0287 5.30975 93.5602 5.30975 90.2032C5.30975 86.8348 7.99948 86.3768 9.32038 86.4021V93.9964ZM13.8756 86.4021C15.2 86.3768 17.8819 86.8348 17.8819 90.2032C17.8819 93.5602 15.2 94.0287 13.8756 93.9964V86.4021ZM8.9431 100.458H14.2494V97.7975C17.5037 97.8316 23.196 96.8798 23.196 90.2032C23.196 83.606 17.5037 82.4963 14.2494 82.6062V80.5168H8.9431V82.6062C5.69313 82.4963 0 83.606 0 90.2032C0 96.8798 5.69313 97.8316 8.9431 97.7975V100.458Z" fill="white"/>
</g>
</g>
</g>
<g id="g48">
<g id="g50">
<g id="g56">
<path id="path58" d="M35.1125 96.4434C32.6493 96.4434 30.3961 94.6253 30.3961 90.9629C30.3961 87.2996 32.6493 85.485 35.1125 85.485C37.5783 85.485 39.8384 87.2996 39.8384 90.9629C39.8384 94.6253 37.5783 96.4434 35.1125 96.4434ZM35.1125 101C42.0507 101 45.3094 96.036 45.3094 90.9629C45.3094 85.8907 42.0507 80.9258 35.1125 80.9258C28.1856 80.9258 24.9277 85.8907 24.9277 90.9629C24.9277 96.036 28.1856 101 35.1125 101" fill="white"/>
</g>
</g>
</g>
<g id="g60">
<g id="g62">
<g id="g68">
<path id="path70" d="M61.8588 94.1926C60.8856 95.1967 59.3434 96.2532 57.3603 96.2532C54.3281 96.2532 52.5132 93.9963 52.5132 91.1234C52.5132 88.0028 54.4335 85.6734 57.3603 85.6734C59.3913 85.6734 60.8856 86.8146 61.8588 87.9574V82.4403C60.2661 81.3585 58.3335 80.9258 56.6606 80.9258C51.5042 80.9258 47.0422 84.6143 47.0422 90.9629C47.0422 97.0436 51.1025 101 56.7373 101C58.3649 101 60.1528 100.754 61.8588 99.5919V94.1926Z" fill="white"/>
</g>
</g>
</g>
<g id="g72">
<path id="path74" d="M72.5877 86.0016L74.7581 92.9966H70.419L72.5877 86.0016ZM62.6165 100.458H68.3078L69.3656 97.1781H75.8176L76.8684 100.458H82.5581L75.8176 81.4659H69.3656L62.6165 100.458Z" fill="white"/>
</g>
<g id="g76">
<path id="path78" d="M84.0747 100.458H89.3818V86.0248H95.4479V81.4656H84.0747V100.458Z" fill="white"/>
</g>
<g id="g80">
<g id="g82">
<g id="g88">
<path id="path90" d="M102.86 85.6473H104.373C106.651 85.6473 106.972 86.8704 106.972 87.8179C106.972 88.6275 106.733 90.012 104.373 90.012H102.86V85.6473ZM97.5437 100.458H102.86V94.1926H105.536C110.903 94.1926 112.447 90.4473 112.447 87.8179C112.447 85.2093 110.927 81.4658 105.536 81.4658H97.5437V100.458Z" fill="white"/>
</g>
</g>
</g>
<g id="g92">
<g id="g94">
<g id="g100">
<path id="path102" d="M124.266 96.4434C121.796 96.4434 119.55 94.6253 119.55 90.9629C119.55 87.2996 121.796 85.485 124.266 85.485C126.732 85.485 128.982 87.2996 128.982 90.9629C128.982 94.6253 126.732 96.4434 124.266 96.4434ZM124.266 101C131.204 101 134.454 96.036 134.454 90.9629C134.454 85.8907 131.204 80.9258 124.266 80.9258C117.329 80.9258 114.081 85.8907 114.081 90.9629C114.081 96.036 117.329 101 124.266 101" fill="white"/>
</g>
</g>
</g>
<g id="g104">
<g id="g106">
<g id="g112">
<path id="path114" d="M142 83.432C142 84.2608 141.705 84.9692 141.111 85.5616C140.523 86.1487 139.82 86.4497 138.983 86.4497C138.155 86.4497 137.439 86.1487 136.85 85.5616C136.267 84.9692 135.97 84.2608 135.97 83.432C135.97 82.6006 136.267 81.8896 136.85 81.299C137.439 80.7127 138.155 80.4161 138.983 80.4161C139.82 80.4161 140.523 80.7127 141.111 81.299C141.705 81.8896 142 82.6006 142 83.432ZM141.597 83.432C141.597 82.7062 141.335 82.0964 140.83 81.5773C140.32 81.0652 139.701 80.8008 138.983 80.8008C138.26 80.8008 137.652 81.0652 137.136 81.5773C136.628 82.0964 136.37 82.7062 136.37 83.432C136.37 84.1457 136.628 84.7712 137.136 85.2824C137.652 85.8006 138.26 86.0597 138.983 86.0597C139.701 86.0597 140.32 85.8006 140.83 85.2824C141.335 84.7712 141.597 84.1457 141.597 83.432M140.925 84.9588H140.151L138.994 83.7339H138.431V84.9588H137.853V81.7727H138.946C139.159 81.7727 139.342 81.784 139.488 81.8102C139.624 81.8224 139.757 81.866 139.897 81.9315C140.048 82.0126 140.151 82.1138 140.223 82.2272C140.291 82.3415 140.324 82.4794 140.324 82.6486C140.324 82.8728 140.26 83.0665 140.127 83.2139C139.996 83.3622 139.82 83.4879 139.588 83.5699L140.925 84.9588ZM139.698 82.6835C139.698 82.6006 139.687 82.5343 139.653 82.4689C139.619 82.4008 139.568 82.3459 139.488 82.3005C139.41 82.2647 139.335 82.2394 139.258 82.2272C139.174 82.2185 139.073 82.2089 138.948 82.2089H138.431V83.2907H138.872C139.014 83.2907 139.141 83.2785 139.242 83.2567C139.351 83.2322 139.435 83.1982 139.501 83.1415C139.573 83.0822 139.624 83.0211 139.653 82.9496C139.687 82.8807 139.698 82.7952 139.698 82.6835Z" fill="white"/>
</g>
</g>
</g>
<g id="g116">
<g id="g118">
<g id="g124">
<path id="path126" d="M109.52 46.2182C109.52 46.2182 95.752 46.3552 89.5099 47.5059C69.6546 51.1351 68.8948 70.0735 68.8948 70.0735C68.8948 70.0735 72.1265 70.2576 80.66 70.2576C100.569 70.2576 109.52 46.2182 109.52 46.2182Z" fill="white"/>
</g>
</g>
</g>
<g id="g128">
<g id="g130">
<g id="g136">
<path id="path138" d="M67.5416 35.9137C71.5078 35.9137 74.7316 39.1373 74.7316 43.1181C74.7316 47.0963 71.5078 50.3217 67.5416 50.3217C63.5632 50.3217 60.3394 47.0963 60.3394 43.1181C60.3394 39.1373 63.5632 35.9137 67.5416 35.9137Z" fill="white"/>
</g>
</g>
</g>
<g id="g140">
<g id="g142">
<g id="g148">
<path id="path150" d="M57.6307 30.6962C60.668 33.2655 61.0549 37.8011 58.4906 40.8432C55.9281 43.8827 51.386 44.2701 48.3504 41.7069C45.3156 39.1359 44.9348 34.5933 47.4939 31.5503C50.0633 28.5082 54.5976 28.1269 57.6307 30.6962Z" fill="white"/>
</g>
</g>
</g>
<g id="g152">
<g id="g154">
<g id="g160">
<path id="path162" d="M56.2927 20.3117C56.155 24.2846 52.8171 27.3904 48.8465 27.2482C44.876 27.1104 41.7706 23.7682 41.9153 19.7952C42.0634 15.8196 45.3944 12.7112 49.3615 12.8525C53.3364 12.9921 56.4391 16.337 56.2927 20.3117Z" fill="white"/>
</g>
</g>
</g>
<g id="g164">
<g id="g166">
<g id="g172">
<path id="path174" d="M72.3738 13.882C68.7736 12.1982 67.2087 7.9164 68.886 4.30722C70.5563 0.698044 74.8396 -0.866194 78.4373 0.81931C82.048 2.4926 83.6102 6.7779 81.9347 10.3888C80.2574 13.9971 75.9802 15.5579 72.3738 13.882Z" fill="white"/>
</g>
</g>
</g>
<g id="g176">
<g id="g178">
<g id="g184">
<path id="path186" d="M63.2088 13.2403C59.8795 15.41 55.4219 14.4661 53.2576 11.1317C51.0845 7.79732 52.0299 3.33667 55.3574 1.17221C58.6902 -1.00359 63.1478 -0.0631233 65.3147 3.2695C67.4808 6.6152 66.545 11.0724 63.2088 13.2403Z" fill="white"/>
</g>
</g>
</g>
<g id="g188">
<g id="g190">
<g id="g196">
<path id="path198" d="M79.1441 22.7986C77.4808 19.186 79.0448 14.9042 82.6502 13.2282C86.2592 11.5523 90.5364 13.127 92.2006 16.7345C93.8735 20.3437 92.3087 24.6281 88.7015 26.3049C85.0986 27.972 80.8231 26.3956 79.1441 22.7986Z" fill="white"/>
</g>
</g>
</g>
<g id="g200">
<g id="g202">
<g id="g208">
<path id="path210" d="M75.9882 32.7716C77.7918 29.2287 82.1257 27.8198 85.6649 29.6292C89.212 31.4298 90.6166 35.7718 88.8112 39.3165C87.0041 42.8637 82.6764 44.27 79.1258 42.4606C75.5891 40.6539 74.1828 36.3145 75.9882 32.7716Z" fill="white"/>
</g>
</g>
</g>
</g>
</svg>
