<svg width="61" height="61" viewBox="0 0 61 61" fill="none" xmlns="http://www.w3.org/2000/svg">
<g id="Frame 1205">
<circle id="Ellipse 32" cx="30.0295" cy="30.0295" r="30.0295" fill="white"/>
<path id="Vector" d="M23.6 28.3963C23.6 27.972 23.7686 27.565 24.0686 27.265C24.3687 26.9649 24.7757 26.7963 25.2 26.7963H34.8C35.2243 26.7963 35.6313 26.9649 35.9314 27.265C36.2314 27.565 36.4 27.972 36.4 28.3963C36.4 28.8207 36.2314 29.2276 35.9314 29.5277C35.6313 29.8278 35.2243 29.9963 34.8 29.9963H25.2C24.7757 29.9963 24.3687 29.8278 24.0686 29.5277C23.7686 29.2276 23.6 28.8207 23.6 28.3963ZM25.2 33.1963C24.7757 33.1963 24.3687 33.3649 24.0686 33.665C23.7686 33.965 23.6 34.372 23.6 34.7963C23.6 35.2207 23.7686 35.6276 24.0686 35.9277C24.3687 36.2278 24.7757 36.3963 25.2 36.3963H31.6C32.0243 36.3963 32.4313 36.2278 32.7314 35.9277C33.0314 35.6276 33.2 35.2207 33.2 34.7963C33.2 34.372 33.0314 33.965 32.7314 33.665C32.4313 33.3649 32.0243 33.1963 31.6 33.1963H25.2ZM14 29.9963C14.0008 26.4885 15.1544 23.0781 17.2832 20.2901C19.412 17.5021 22.398 15.4909 25.7818 14.5661C29.1655 13.6413 32.7594 13.8541 36.0103 15.1718C39.2613 16.4895 41.9891 18.839 43.7739 21.8588C45.5588 24.8786 46.3018 28.4013 45.8886 31.8847C45.4754 35.3682 43.9288 38.6193 41.487 41.1377C39.0452 43.6561 35.8434 45.3022 32.3744 45.8228C28.9054 46.3434 25.3615 45.7095 22.288 44.0187L16.0672 45.9131C15.7897 45.9976 15.4945 46.0051 15.2131 45.9348C14.9317 45.8645 14.6747 45.719 14.4696 45.5139C14.2645 45.3088 14.119 45.0518 14.0487 44.7704C13.9784 44.489 13.9859 44.1938 14.0704 43.9163L15.9648 37.6859C14.6719 35.3294 13.996 32.6842 14 29.9963ZM30 17.1963C27.7278 17.1962 25.4965 17.8008 23.5353 18.9482C21.5741 20.0956 19.9536 21.7444 18.8404 23.7252C17.7272 25.706 17.1613 27.9474 17.2009 30.2193C17.2405 32.4911 17.8841 34.7115 19.0656 36.6523C19.1829 36.8451 19.2581 37.0606 19.2862 37.2845C19.3143 37.5084 19.2948 37.7357 19.2288 37.9515L18.0032 41.9803L22.0256 40.7547C22.2421 40.6888 22.4702 40.6695 22.6947 40.6982C22.9192 40.7269 23.135 40.8028 23.328 40.9211C25.015 41.9511 26.9176 42.5764 28.8866 42.748C30.8557 42.9196 32.8377 42.6329 34.6775 41.9103C36.5172 41.1877 38.1646 40.0489 39.4905 38.5831C40.8164 37.1173 41.7849 35.3643 42.32 33.4616C42.8551 31.5589 42.9423 29.5581 42.5747 27.616C42.2071 25.674 41.3948 23.8434 40.2014 22.2678C39.008 20.6922 37.4659 19.4144 35.696 18.5346C33.9261 17.6547 31.9765 17.1967 30 17.1963Z" fill="#004A86"/>
</g>
</svg>
