<svg width="356" height="72" viewBox="0 0 356 72" fill="none" xmlns="http://www.w3.org/2000/svg">
<path fill-rule="evenodd" clip-rule="evenodd" d="M130 41.4111C130 41.4111 136.839 41.4759 139.938 42.024C149.805 43.7522 150.183 52.7697 150.183 52.7697C150.183 52.7697 148.576 52.8582 144.336 52.8582C134.449 52.8582 130 41.4111 130 41.4111Z" fill="white"/>
<path fill-rule="evenodd" clip-rule="evenodd" d="M171.727 41.4111C171.727 41.4111 164.888 41.4759 161.788 42.024C151.925 43.7522 151.547 52.7697 151.547 52.7697C151.547 52.7697 153.152 52.8582 157.392 52.8582C167.281 52.8582 171.727 41.4111 171.727 41.4111Z" fill="white"/>
<path fill-rule="evenodd" clip-rule="evenodd" d="M154.549 40.3642C154.549 42.3209 152.899 43.9072 150.863 43.9072C148.827 43.9072 147.177 42.3209 147.177 40.3642C147.177 38.4075 148.827 36.8213 150.863 36.8213C152.899 36.8213 154.549 38.4075 154.549 40.3642Z" fill="white"/>
<path fill-rule="evenodd" clip-rule="evenodd" d="M162.082 36.8759C162.082 38.8326 160.432 40.4189 158.397 40.4189C156.361 40.4189 154.711 38.8326 154.711 36.8759C154.711 34.9192 156.361 33.333 158.397 33.333C160.432 33.333 162.082 34.9192 162.082 36.8759Z" fill="white"/>
<path fill-rule="evenodd" clip-rule="evenodd" d="M158.729 22.7558C158.729 24.7125 157.079 26.2987 155.044 26.2987C153.008 26.2987 151.358 24.7125 151.358 22.7558C151.358 20.7991 153.008 19.2129 155.044 19.2129C157.079 19.2129 158.729 20.7991 158.729 22.7558Z" fill="white"/>
<path fill-rule="evenodd" clip-rule="evenodd" d="M150.368 22.7558C150.368 24.7125 148.718 26.2987 146.683 26.2987C144.647 26.2987 142.997 24.7125 142.997 22.7558C142.997 20.7991 144.647 19.2129 146.683 19.2129C148.718 19.2129 150.368 20.7991 150.368 22.7558Z" fill="white"/>
<path fill-rule="evenodd" clip-rule="evenodd" d="M147.016 36.8759C147.016 38.8326 145.366 40.4189 143.331 40.4189C141.295 40.4189 139.645 38.8326 139.645 36.8759C139.645 34.9192 141.295 33.333 143.331 33.333C145.366 33.333 147.016 34.9192 147.016 36.8759Z" fill="white"/>
<path fill-rule="evenodd" clip-rule="evenodd" d="M163.943 29.04C163.943 30.9967 162.293 32.5829 160.257 32.5829C158.221 32.5829 156.571 30.9967 156.571 29.04C156.571 27.0833 158.221 25.4971 160.257 25.4971C162.293 25.4971 163.943 27.0833 163.943 29.04Z" fill="white"/>
<path fill-rule="evenodd" clip-rule="evenodd" d="M145.155 29.04C145.155 30.9967 143.505 32.5829 141.47 32.5829C139.434 32.5829 137.784 30.9967 137.784 29.04C137.784 27.0833 139.434 25.4971 141.47 25.4971C143.505 25.4971 145.155 27.0833 145.155 29.04Z" fill="white"/>
<path fill-rule="evenodd" clip-rule="evenodd" d="M190.095 49.7147C186.095 49.7472 179.098 48.6252 179.098 40.7442C179.098 32.959 186.095 31.6449 190.095 31.773V29.3058H196.627V31.773C200.626 31.6449 207.624 32.959 207.624 40.7442C207.624 48.6252 200.626 49.7472 196.627 49.7147V52.8542H190.095V49.7147ZM190.562 36.2583C188.929 36.2266 185.629 36.7713 185.629 40.7442C185.629 44.7163 188.929 45.2611 190.562 45.2295V36.2583ZM196.161 45.2295C197.794 45.2611 201.092 44.7163 201.092 40.7442C201.092 36.7713 197.794 36.2266 196.161 36.2583V45.2295ZM210.048 41.6404C210.048 35.6495 214.047 29.7866 222.578 29.7866C231.11 29.7866 235.108 35.6495 235.108 41.6404C235.108 47.6326 231.11 53.4954 222.578 53.4954C214.047 53.4954 210.048 47.6326 210.048 41.6404ZM228.377 41.6404C228.377 37.3161 225.61 35.1693 222.578 35.1693C219.545 35.1693 216.779 37.3161 216.779 41.6404C216.779 45.9658 219.545 48.112 222.578 48.112C225.61 48.112 228.377 45.9658 228.377 41.6404ZM255.745 51.8293C253.645 53.2068 251.445 53.4954 249.446 53.4954C242.514 53.4954 237.514 48.8173 237.514 41.6404C237.514 34.1438 243.014 29.7866 249.346 29.7866C251.412 29.7866 253.778 30.2997 255.745 31.5808V38.0842C254.545 36.739 252.711 35.3938 250.213 35.3938C246.613 35.3938 244.247 38.1483 244.247 41.8325C244.247 45.2295 246.479 47.8881 250.213 47.8881C252.644 47.8881 254.545 46.6388 255.745 45.4534V51.8293ZM265.733 30.4278H273.664L281.963 52.8542H274.964L273.664 48.9779H265.733L264.433 52.8542H257.434L265.733 30.4278ZM267.034 44.0434H272.364L269.698 35.7775L267.034 44.0434ZM284.238 30.4278H298.235V35.8099H290.77V52.8542H284.238V30.4278ZM300.811 30.4278H310.642C317.274 30.4278 319.14 34.849 319.14 37.9245C319.14 41.0322 317.241 45.4534 310.642 45.4534H307.343V52.8542H300.811V30.4278ZM307.343 40.5197H309.208C312.11 40.5197 312.409 38.8859 312.409 37.9245C312.409 36.8031 312.009 35.3622 309.208 35.3622H307.343V40.5197ZM321.343 41.6404C321.343 35.6495 325.343 29.7866 333.874 29.7866C342.405 29.7866 346.404 35.6495 346.404 41.6404C346.404 47.6326 342.405 53.4954 333.874 53.4954C325.343 53.4954 321.343 47.6326 321.343 41.6404ZM339.672 41.6404C339.672 37.3161 336.906 35.1693 333.874 35.1693C330.84 35.1693 328.074 37.3161 328.074 41.6404C328.074 45.9658 330.84 48.112 333.874 48.112C336.906 48.112 339.672 45.9658 339.672 41.6404ZM354.975 32.8652C354.975 34.8867 353.411 36.4102 351.287 36.4102C349.164 36.4102 347.6 34.8867 347.6 32.8652C347.6 30.8339 349.164 29.3005 351.287 29.3005C353.411 29.3005 354.975 30.8339 354.975 32.8652ZM348.208 32.8652C348.208 34.5743 349.479 35.8831 351.287 35.8831C353.095 35.8831 354.365 34.5743 354.365 32.8652C354.365 31.1463 353.095 29.8282 351.287 29.8282C349.479 29.8282 348.208 31.1463 348.208 32.8652ZM351.121 30.7956C351.588 30.7956 352.644 30.8729 352.644 32.0352C352.644 32.6599 352.257 33.0607 351.71 33.1677L353.13 34.8966H352.217L350.957 33.2761H350.754V34.8966H350.023V30.7956H351.121ZM350.754 32.6308H351.028C351.333 32.6308 351.912 32.6018 351.912 32.0352C351.912 31.4395 351.323 31.4395 351.048 31.4395H350.754V32.6308Z" fill="white"/>
<path opacity="0.5" d="M103 12V62" stroke="white"/>
<g clip-path="url(#clip0_3123_29173)">
<path d="M54.5573 23.3377C54.5392 22.7582 54.4687 22.1827 54.4304 21.6032C54.4304 21.4946 54.4063 21.4402 54.2693 21.4563C50.6029 21.8777 46.8888 21.4176 43.4364 20.1142C40.7899 19.1604 38.3156 17.7843 36.1097 16.0395C36.0574 15.9973 35.9869 15.9671 35.9647 15.8906H35.9204C35.5475 16.2342 35.1475 16.5471 34.7241 16.8263C31.6753 18.99 28.2011 20.4818 24.5316 21.2028C22.2617 21.6457 19.9365 21.7319 17.64 21.4583C17.4849 21.4402 17.4648 21.4905 17.4527 21.6233C17.3661 22.5288 17.3177 23.3256 17.2896 24.2392C17.2896 24.4022 17.2896 28.4909 17.3298 29.3884C17.5614 33.956 18.2985 38.4432 19.8271 42.7674C20.8884 45.7716 22.3183 48.5806 24.296 51.0958C27.2867 54.9009 31.1232 57.4523 35.7593 58.8206C35.8681 58.8549 35.9848 58.8549 36.0936 58.8206C41.503 57.235 45.7343 54.0678 48.8257 49.3633C50.7248 46.4819 52.0077 43.3268 52.914 40.0167C53.5413 37.6865 53.9904 35.312 54.2572 32.9137C54.4662 31.2849 54.5859 29.6459 54.6157 28.004C54.6198 27.3299 54.6359 25.7201 54.5573 23.3377ZM52.1728 29.5312C52.12 31.2783 51.968 33.021 51.7177 34.7508C51.1538 38.6243 50.1508 42.3629 48.3121 45.844C46.701 48.8985 44.542 51.4781 41.6662 53.4299C39.9442 54.5883 38.0518 55.4709 36.0574 56.0458C35.9604 56.0721 35.8578 56.0679 35.7633 56.0337C31.0769 54.6473 27.4095 51.8926 24.731 47.816C22.9749 45.1478 21.8249 42.2221 21.0334 39.1454C20.4367 36.7875 20.0425 34.3829 19.8553 31.9579C19.7425 30.5715 19.6821 29.1831 19.6841 27.7927C19.6861 26.4023 19.7244 25.0702 19.8513 23.714C19.8654 23.553 19.9077 23.5128 20.0708 23.5349C21.4897 23.6969 22.9221 23.703 24.3423 23.553C26.4042 23.3301 28.4226 22.8081 30.3338 22.0036C32.2867 21.2043 34.1173 20.134 35.7714 18.8244C35.7926 18.8001 35.8187 18.7806 35.8481 18.7672C35.8774 18.7539 35.9093 18.7469 35.9416 18.7469C35.9738 18.7469 36.0057 18.7539 36.0351 18.7672C36.0644 18.7806 36.0906 18.8001 36.1117 18.8244C39.1389 21.2199 42.7297 22.8008 46.5419 23.4162C48.2856 23.6977 50.06 23.7363 51.8143 23.5309C51.9714 23.5108 52.0157 23.543 52.0359 23.708C52.2035 25.6443 52.2492 27.5892 52.1728 29.5312Z" fill="url(#paint0_linear_3123_29173)"/>
<path d="M52.034 23.7071C52.0199 23.5421 51.9695 23.5059 51.8124 23.53C50.0581 23.7354 48.2837 23.6969 46.54 23.4153C42.7278 22.7999 39.1369 21.2191 36.1098 18.8235C36.0886 18.7992 36.0625 18.7797 36.0331 18.7664C36.0038 18.753 35.9719 18.7461 35.9396 18.7461C35.9074 18.7461 35.8755 18.753 35.8461 18.7664C35.8168 18.7797 35.7906 18.7992 35.7695 18.8235C34.1153 20.1331 32.2848 21.2034 30.3319 22.0028C28.4206 22.8073 26.4023 23.3292 24.3404 23.5522C22.9202 23.7022 21.4878 23.6961 20.0689 23.5341C19.9057 23.5139 19.8675 23.5522 19.8494 23.7132C19.7225 25.0694 19.6802 26.4296 19.6822 27.7919C19.6842 29.1541 19.7406 30.5707 19.8534 31.9571C20.0405 34.3786 20.434 36.7798 21.0295 39.1345C21.821 42.2112 22.9709 45.1369 24.7271 47.805C27.4056 51.8817 31.073 54.6364 35.7594 56.0228C35.8538 56.057 35.9565 56.0612 36.0534 56.0349C38.0479 55.46 39.9403 54.5774 41.6622 53.419C44.5401 51.4712 46.6971 48.8876 48.3082 45.8331C50.1469 42.352 51.1499 38.6134 51.7137 34.7399C52.228 31.0854 52.3354 27.3852 52.034 23.7071ZM49.0856 38.718C48.425 41.3721 47.4563 43.9034 45.9861 46.2275C43.6318 49.952 40.3612 52.4814 36.1179 53.741C35.9869 53.7829 35.8461 53.7829 35.7151 53.741C31.1455 52.3727 27.754 49.5496 25.4018 45.4367C24.0061 42.9959 23.1139 40.366 22.5279 37.6294C21.7917 34.0899 21.5122 30.4707 21.6961 26.8602C21.7163 26.4014 21.7545 25.9447 21.7868 25.4879C21.8069 25.2042 21.8089 25.2022 22.1009 25.2344C22.9421 25.3262 23.7891 25.3538 24.6344 25.3169C26.9816 25.2108 29.287 24.659 31.4274 23.691C32.9867 23.019 34.4506 22.145 35.7815 21.0913C35.9084 20.9907 35.9829 21.0047 36.1018 21.0913C38.9324 23.3351 42.3247 24.7604 45.9096 25.2122C47.1983 25.3776 48.5025 25.383 49.7925 25.2283C49.9939 25.2042 50.0704 25.2283 50.0905 25.4678C50.1832 26.6248 50.2234 27.7838 50.2234 28.9448C50.2422 32.2366 49.8601 35.5184 49.0856 38.718Z" fill="url(#paint1_linear_3123_29173)"/>
<path d="M50.2215 28.9393C50.2409 32.231 49.8595 35.5128 49.0856 38.7125C48.4251 41.3665 47.4564 43.8979 45.9862 46.2219C43.6319 49.9465 40.3613 52.4758 36.1179 53.7354C35.9869 53.7773 35.8461 53.7773 35.7151 53.7354C31.1455 52.3671 27.7541 49.5441 25.4018 45.4311C24.0062 42.9904 23.114 40.3604 22.5279 37.6239C21.7917 34.0843 21.5122 30.4651 21.6962 26.8547C21.7163 26.3959 21.7546 25.9391 21.7868 25.4823C21.8069 25.1986 21.809 25.1966 22.101 25.2288C22.9422 25.3207 23.7891 25.3482 24.6345 25.3113C26.9816 25.2052 29.287 24.6534 31.4275 23.6855C32.9864 23.0154 34.4503 22.1433 35.7816 21.0918C35.9085 20.9911 35.983 21.0052 36.1018 21.0918C38.9325 23.3356 42.3247 24.7609 45.9097 25.2127C47.1983 25.378 48.5025 25.3834 49.7925 25.2288C49.9939 25.2047 50.0704 25.2288 50.0906 25.4683C50.1812 26.6253 50.2215 27.7843 50.2215 28.9393Z" fill="url(#paint2_linear_3123_29173)"/>
<path d="M38.2829 28.7707L43.9501 42.6809C43.9607 42.707 43.9647 42.7352 43.9618 42.7631C43.9589 42.791 43.9491 42.8178 43.9334 42.841C43.9177 42.8643 43.8965 42.8834 43.8717 42.8965C43.8468 42.9096 43.8191 42.9164 43.791 42.9164H41.2293C41.195 42.916 41.1616 42.9055 41.1333 42.8862C41.1049 42.8668 41.083 42.8395 41.0702 42.8077L39.8095 39.5641C39.7972 39.5319 39.7754 39.5043 39.747 39.4849C39.7185 39.4655 39.6848 39.4552 39.6504 39.4554H32.1405C32.106 39.4552 32.0723 39.4655 32.0439 39.4849C32.0155 39.5043 31.9937 39.5319 31.9814 39.5641L30.7206 42.8077C30.7081 42.8397 30.6862 42.8672 30.6578 42.8865C30.6295 42.9059 30.5959 42.9163 30.5615 42.9164H27.9998C27.9717 42.9164 27.944 42.9096 27.9192 42.8965C27.8944 42.8834 27.8732 42.8643 27.8574 42.841C27.8417 42.8178 27.832 42.791 27.829 42.7631C27.8261 42.7352 27.8301 42.707 27.8407 42.6809L33.5099 28.7707C33.5227 28.7394 33.5444 28.7126 33.5723 28.6936C33.6003 28.6746 33.6332 28.6644 33.667 28.6641H38.1238C38.158 28.664 38.1914 28.6741 38.2197 28.6931C38.2481 28.7121 38.2701 28.7391 38.2829 28.7707ZM32.9924 37.9282H38.8005C38.8285 37.9278 38.8559 37.9206 38.8804 37.9074C38.905 37.8941 38.926 37.8751 38.9416 37.852C38.9572 37.8288 38.967 37.8023 38.9702 37.7746C38.9733 37.7468 38.9697 37.7188 38.9596 37.6927L35.9971 30.3945H35.7957L32.8353 37.6927C32.8247 37.7186 32.8207 37.7466 32.8235 37.7744C32.8264 37.8021 32.8359 37.8288 32.8514 37.852C32.8669 37.8752 32.8879 37.8943 32.9124 37.9076C32.937 37.9208 32.9644 37.9279 32.9924 37.9282Z" fill="url(#paint3_linear_3123_29173)"/>
<path d="M61.183 15.7939L62.6048 17.7095L61.9583 18.7337L62.6592 19.6774L65.38 15.2023L64.3871 13.8662L59.312 15.1721L60.0129 16.1138L61.183 15.7939ZM61.9301 15.6289L64.1998 15.0413L62.9794 17.0414L61.9301 15.6289Z" fill="white"/>
<path d="M63.3905 21.188L67.0901 19.2985L68.4052 21.8701L69.0295 21.5522L67.1827 17.9443L62.8608 20.1517L63.3905 21.188Z" fill="white"/>
<path d="M66.2404 28.3271L66.905 28.1078L65.9383 25.176L67.2937 24.7293L68.0529 27.0313L68.7175 26.812L67.9583 24.51L69.219 24.0955L70.1857 27.0273L70.8503 26.8099L69.5191 22.7715L64.9092 24.2887L66.2404 28.3271Z" fill="white"/>
<path d="M66.5803 30.1443L68.5862 29.8505L68.9527 32.3456L66.9488 32.6394L67.118 33.7904L71.9192 33.0861L71.7501 31.9351L69.6455 32.243L69.279 29.7479L71.3835 29.44L71.2143 28.2891L66.4111 28.9933L66.5803 30.1443Z" fill="white"/>
<path d="M71.299 34.4482L71.2547 36.2391L67.1019 36.1365L67.0737 37.3015L71.2265 37.4041L71.1801 39.195L71.881 39.2131L71.9998 34.4643L71.299 34.4482Z" fill="white"/>
<path d="M66.0589 43.9421C65.9775 44.2413 65.9348 44.5497 65.932 44.8597C65.9272 45.1089 65.9695 45.3567 66.0569 45.5901C66.132 45.7922 66.2558 45.9725 66.4174 46.1153C66.5799 46.2518 66.7712 46.3498 66.9769 46.402C67.1827 46.4543 67.3976 46.4595 67.6056 46.4171C67.8158 46.3684 68.0108 46.2689 68.1735 46.1274C68.3613 45.9636 68.517 45.7664 68.6327 45.5459C68.7777 45.271 68.8873 44.9789 68.959 44.6766L69.3013 43.3264L70.4271 43.6122L69.684 46.5419L70.3627 46.7129L71.3918 42.6564L66.6892 41.4631L66.0589 43.9421ZM68.6246 43.1554L68.2803 44.5056C68.2335 44.7491 68.1005 44.9677 67.9057 45.1213C67.7168 45.2321 67.4918 45.2641 67.2796 45.2102C67.0673 45.1564 66.8848 45.021 66.7718 44.8335C66.6746 44.6052 66.6625 44.3497 66.7376 44.1132L67.08 42.763L68.6246 43.1554Z" fill="white"/>
<path d="M63.5356 50.5927L64.1761 50.8764L65.4227 48.0513L66.7297 48.6268L65.749 50.8442L66.3894 51.1259L67.3702 48.9085L68.5826 49.4437L67.3359 52.2688L67.9764 52.5505L69.6942 48.661L65.2535 46.7031L63.5356 50.5927Z" fill="white"/>
<path d="M66.8001 53.3591L66.1012 53.4054L66.1153 53.512C66.1575 53.8047 66.1418 54.1028 66.069 54.3893C65.9912 54.6712 65.8689 54.9389 65.7065 55.1821C65.5756 55.4126 65.3725 55.5936 65.1285 55.6973C65.0385 55.7321 64.9414 55.7444 64.8456 55.7332C64.7498 55.722 64.6582 55.6875 64.5787 55.6329C64.1437 55.3492 64.0893 54.987 64.4115 54.494L65.1587 53.3551L64.5727 52.9707L63.753 54.2223C63.6338 54.4459 63.4389 54.6199 63.2032 54.7133C63.1062 54.7387 63.0046 54.7417 62.9062 54.7222C62.8079 54.7027 62.7152 54.6611 62.6352 54.6006C62.54 54.54 62.4595 54.4589 62.3996 54.3632C62.3413 54.2655 62.308 54.1549 62.303 54.0412C62.3003 53.8918 62.3249 53.7432 62.3755 53.6026C62.4494 53.4029 62.5475 53.2131 62.6675 53.0372C62.8282 52.7826 63.0328 52.5585 63.2717 52.3751C63.5206 52.1956 63.8026 52.0671 64.1014 51.9968L64.2041 51.9727L64.0007 51.2745L63.9081 51.2986C63.5442 51.3937 63.2022 51.5584 62.9011 51.7836C62.5635 52.0356 62.2742 52.3464 62.0472 52.7011C61.838 53.0106 61.6643 53.3427 61.5296 53.6911C61.4295 53.9484 61.3717 54.2202 61.3584 54.496C61.3509 54.7177 61.3994 54.9378 61.4994 55.1359C61.5941 55.3156 61.7326 55.4685 61.9022 55.5805C62.1563 55.7603 62.4711 55.8326 62.7782 55.7818C62.9969 55.7371 63.2032 55.6451 63.3824 55.5121C63.3561 55.7029 63.3747 55.8972 63.4368 56.0796C63.538 56.331 63.7183 56.5429 63.9503 56.6832C64.1068 56.7871 64.2884 56.8468 64.476 56.8563H64.5384C64.7202 56.8539 64.8994 56.8127 65.064 56.7355C65.2871 56.631 65.4913 56.4903 65.6682 56.319C65.8904 56.104 66.0864 55.8636 66.2523 55.6027C66.4752 55.2678 66.64 54.8977 66.7396 54.5081C66.8285 54.1578 66.8517 53.7942 66.8081 53.4356L66.8001 53.3591Z" fill="white"/>
<path d="M62.1861 57.0656C61.9187 56.8052 61.6025 56.6001 61.2557 56.4619C60.9471 56.3388 60.6143 56.2878 60.2829 56.313C59.9448 56.343 59.6168 56.4438 59.3203 56.6088C58.9881 56.7934 58.687 57.029 58.4281 57.3071C58.1639 57.5779 57.9443 57.889 57.7776 58.2286C57.6289 58.532 57.5452 58.863 57.5319 59.2005C57.5255 59.5335 57.5943 59.8637 57.7333 60.1664C57.8895 60.5067 58.112 60.8124 58.3878 61.0658C58.6549 61.3275 58.9721 61.5328 59.3203 61.6695C59.5771 61.7695 59.8502 61.8214 60.1259 61.8224C60.1829 61.8255 60.24 61.8255 60.297 61.8224C60.6336 61.7937 60.9603 61.6942 61.2557 61.5306C61.9165 61.1519 62.4525 60.589 62.7983 59.9108C62.9483 59.6071 63.0327 59.2753 63.046 58.9369C63.0525 58.6039 62.9837 58.2738 62.8447 57.9711C62.6869 57.6289 62.4631 57.3212 62.1861 57.0656ZM61.9847 59.8565C61.8285 60.2374 61.5344 60.5456 61.161 60.7197C60.9814 60.8025 60.7846 60.8411 60.587 60.8324C60.3605 60.821 60.1386 60.7642 59.9345 60.6654C59.4165 60.4009 58.9862 59.992 58.696 59.4883C58.5868 59.2898 58.5183 59.0716 58.4946 58.8464C58.4759 58.6494 58.5042 58.4508 58.5771 58.2669C58.7334 57.8859 59.0274 57.5777 59.4008 57.4036C59.567 57.3277 59.7478 57.2892 59.9305 57.291H59.9748C60.2013 57.3024 60.4232 57.3592 60.6273 57.458C60.8883 57.5842 61.1265 57.7528 61.3322 57.957C61.5459 58.1524 61.7262 58.3815 61.8659 58.6351C61.9753 58.8334 62.0438 59.0517 62.0673 59.277C62.0841 59.4739 62.0558 59.6721 61.9847 59.8565Z" fill="white"/>
<path d="M55.0467 60.5688L57.4614 63.9452L55.4071 65.4101L52.9945 62.0337L52.0459 62.7098L54.8674 66.6557L58.8167 63.8386L55.9952 59.8907L55.0467 60.5688Z" fill="white"/>
<path d="M50.5759 63.4824L50.6544 64.6897L48.4915 65.6958L47.6154 64.8588L46.55 65.3598L50.3906 68.9234L51.899 68.2211L51.6413 62.9894L50.5759 63.4824ZM50.7773 67.7965L49.0614 66.1989L50.6585 65.4564L50.7773 67.7965Z" fill="white"/>
<path d="M46.3384 66.78C46.1358 66.514 45.8756 66.2973 45.5772 66.1462C45.2685 65.9952 44.9317 65.9102 44.5883 65.8967C44.1963 65.8807 43.8042 65.9262 43.4263 66.0315C43.0364 66.1317 42.6684 66.3029 42.3408 66.5365C42.0335 66.7519 41.7714 67.0253 41.5695 67.3414L41.5171 67.4219L42.1052 67.8404L42.1615 67.7499C42.3185 67.4919 42.5236 67.2665 42.7657 67.0859C42.9985 66.923 43.2583 66.8024 43.533 66.7297C43.7541 66.6704 43.9835 66.6487 44.2117 66.6653C44.4194 66.6837 44.6204 66.7483 44.7998 66.8545C44.9904 66.9728 45.1526 67.1315 45.2751 67.3193C45.5769 67.811 45.7268 68.3808 45.7061 68.9572C45.6916 69.1797 45.6312 69.3969 45.5288 69.5951C45.4298 69.7723 45.2922 69.925 45.126 70.0418C44.9471 70.1644 44.7481 70.255 44.538 70.3094C43.9647 70.4643 43.3534 70.3877 42.8362 70.0961L42.7416 70.0458L42.4354 70.6977L42.52 70.744C42.8519 70.9162 43.2134 71.0241 43.5854 71.0619C43.6991 71.074 43.8134 71.08 43.9278 71.0801C44.2154 71.0792 44.5017 71.0414 44.7797 70.9674C45.1486 70.8757 45.5007 70.7263 45.8229 70.5247C46.1102 70.3452 46.3565 70.1073 46.5459 69.8265C46.7278 69.5483 46.8442 69.2325 46.8862 68.9029C46.9627 68.1531 46.7645 67.401 46.3284 66.7861L46.3384 66.78Z" fill="white"/>
<path d="M39.6018 66.8835L39.7568 68.9037L37.2414 69.0948L37.0864 67.0766L35.9243 67.1652L36.2949 72.0004L37.4569 71.9119L37.2938 69.7931L39.8112 69.5999L39.9723 71.7187L41.1344 71.6302L40.7638 66.7949L39.6018 66.8835Z" fill="white"/>
<path d="M34.3092 67.6155C34.0852 67.3649 33.8107 67.1647 33.5036 67.0279C32.8062 66.7277 32.0358 66.6388 31.2883 66.7724C30.9566 66.8376 30.6419 66.9705 30.3639 67.1627C30.0934 67.3563 29.8698 67.6079 29.7094 67.8992C29.3631 68.5695 29.2743 69.3432 29.4596 70.0744C29.5508 70.394 29.7117 70.6896 29.9309 70.9396C30.1559 71.1894 30.4302 71.3902 30.7365 71.5292C31.0779 71.6805 31.4406 71.7783 31.8119 71.8189C31.9684 71.8364 32.1257 71.8452 32.2832 71.8451C32.5049 71.8462 32.7262 71.8253 32.9437 71.7827C33.2768 71.72 33.5927 71.5869 33.8701 71.3923C34.1411 71.1999 34.3643 70.9479 34.5227 70.6559C34.8638 69.9841 34.9524 69.2123 34.7724 68.4807C34.6854 68.161 34.5271 67.8652 34.3092 67.6155ZM33.6244 69.4506C33.5962 69.7391 33.5214 70.0211 33.4029 70.2856C33.3067 70.4926 33.1697 70.6781 33.0001 70.8309C32.8531 70.9633 32.6773 71.0598 32.4866 71.1126C32.29 71.1668 32.0848 71.1818 31.8824 71.1569C31.6795 71.1345 31.4826 71.0737 31.3024 70.9778C31.1291 70.8823 30.9802 70.748 30.8674 70.5855C30.7397 70.3986 30.6513 70.1877 30.6076 69.9657C30.5502 69.6822 30.5414 69.391 30.5814 69.1045C30.6081 68.816 30.6823 68.5338 30.8009 68.2694C30.8972 68.0625 31.0342 67.8771 31.2037 67.7241C31.35 67.5918 31.5251 67.4953 31.7152 67.4424C31.9118 67.3884 32.1171 67.3734 32.3194 67.3982C32.5224 67.4206 32.7192 67.4814 32.8994 67.5772C33.0728 67.6726 33.2222 67.8061 33.3365 67.9676C33.4625 68.1561 33.5508 68.3673 33.5963 68.5894C33.6523 68.873 33.6618 69.1639 33.6244 69.4506Z" fill="white"/>
<path d="M28.0944 66.6536C27.9116 66.3629 27.6702 66.1134 27.3855 65.9212C27.0616 65.7015 26.7056 65.5332 26.3302 65.4222C25.9458 65.3009 25.5422 65.2518 25.14 65.2773C24.7665 65.2966 24.4004 65.3889 24.0625 65.5489L23.9759 65.5892L24.2538 66.2552L24.3485 66.2089C24.6206 66.0723 24.9168 65.9903 25.2205 65.9675C25.5037 65.9514 25.7874 65.9861 26.0583 66.0701C26.2753 66.1368 26.4796 66.2396 26.6625 66.3739C26.8301 66.4991 26.9676 66.6599 27.0653 66.8448C27.1646 67.0459 27.2183 67.2665 27.2224 67.4907C27.2162 68.0644 27.0426 68.6239 26.7229 69.1004C26.5931 69.2821 26.4263 69.4343 26.2335 69.5472C26.0574 69.6478 25.8601 69.7057 25.6575 69.7162C25.4414 69.7263 25.2252 69.6977 25.0191 69.6317C24.7369 69.5483 24.4738 69.4101 24.2451 69.225C24.0163 69.0399 23.8263 68.8116 23.6859 68.5531L23.6315 68.4606L23.0273 68.8529L23.0757 68.9354C23.265 69.2576 23.5146 69.5404 23.8108 69.7685C24.1286 70.0156 24.489 70.2024 24.8741 70.3198C25.2237 70.4322 25.5883 70.4912 25.9556 70.4949H25.9939C26.3326 70.4934 26.6673 70.4215 26.9767 70.2836C27.2786 70.1435 27.5449 69.9371 27.756 69.68C28.2163 69.0828 28.4451 68.3396 28.4005 67.5873C28.3698 67.2571 28.2651 66.938 28.0944 66.6536Z" fill="white"/>
<path d="M21.3839 63.4784L19.513 67.1828L17.9119 66.3759L17.5957 66.9997L21.8391 69.1407L22.1552 68.5149L20.5542 67.708L22.4251 64.0036L21.3839 63.4784Z" fill="white"/>
<path d="M18.1755 61.5431L14.063 63.0281L16.2502 60.1044L15.3177 59.4082L12.4116 63.2917L13.5475 64.1389L17.6599 62.6539L15.4728 65.5776L16.4052 66.2758L19.3113 62.3903L18.1755 61.5431Z" fill="white"/>
<path d="M11.9346 56.0112L10.7685 56.3371L9.25203 54.325L9.89448 53.2967L9.31849 52.5321L6.73462 56.8362L7.65096 58.0576L12.5086 56.7818L11.9346 56.0112ZM7.66506 57.1279L7.62478 57.0756L8.99425 54.8039L10.2288 56.4498L7.66506 57.1279Z" fill="white"/>
<path d="M8.5269 50.9727L4.8394 52.8802L3.5102 50.3147L3.06714 50.5441L4.8394 53.9648L8.96997 51.8279L8.5269 50.9727Z" fill="white"/>
<path d="M5.62291 43.8418L5.14963 43.9987L6.13243 46.9265L4.58775 47.4436L3.81843 45.1457L3.34515 45.3047L4.11448 47.6026L2.66646 48.0875L1.68366 45.1598L1.2124 45.3187L2.4993 49.158L6.90981 47.681L5.62291 43.8418Z" fill="white"/>
<path d="M5.25228 42.0124L3.24842 42.3162L2.83758 39.6239L4.84144 39.3201L4.69643 38.3683L0.0986328 39.0665L0.243636 40.0183L2.34618 39.7004L2.75501 42.3906L0.652463 42.7106L0.797466 43.6623L5.39728 42.9641L5.25228 42.0124Z" fill="white"/>
<path d="M0.533691 35.7228L4.68641 35.8053L4.70655 34.8434L0.553831 34.7609L0.588068 32.9681L0.0906268 32.958L0 37.5055L0.497441 37.5156L0.533691 35.7228Z" fill="white"/>
<path d="M5.69332 28.0745C5.76927 27.7826 5.80918 27.4826 5.81214 27.1811C5.81527 26.9442 5.77429 26.7088 5.69131 26.4869C5.62026 26.3009 5.5048 26.1351 5.35498 26.0039C5.20407 25.878 5.0265 25.7879 4.83568 25.7405C4.64485 25.6931 4.44574 25.6896 4.25336 25.7303C4.05941 25.7761 3.87963 25.8687 3.72974 25.9999C3.55288 26.158 3.40618 26.3469 3.29675 26.5573C3.15658 26.8243 3.05165 27.1084 2.98459 27.4024L2.62208 28.8532L1.30094 28.5232L2.02999 25.5914L1.54664 25.4707L0.583984 29.3421L5.09921 30.4629L5.69332 28.0745ZM3.10542 28.9719L3.46793 27.5231C3.51618 27.2566 3.65923 27.0165 3.87072 26.847C3.97589 26.7836 4.09258 26.7415 4.21408 26.7232C4.33559 26.7049 4.45951 26.7108 4.57873 26.7405C4.69794 26.7703 4.8101 26.8232 4.90876 26.8964C5.00741 26.9696 5.09062 27.0616 5.15359 27.167C5.26527 27.4153 5.28176 27.696 5.19991 27.9558L4.83942 29.4045L3.10542 28.9719Z" fill="white"/>
<path d="M8.14837 21.4861L7.69121 21.2869L6.45667 24.118L4.96435 23.4701L5.93305 21.2466L5.47589 21.0474L4.50719 23.2709L3.10549 22.6612L4.34003 19.8301L3.88287 19.6309L2.26367 23.3454L6.52917 25.2006L8.14837 21.4861Z" fill="white"/>
<path d="M5.58658 18.5443C5.54008 18.2387 5.55445 17.9268 5.62887 17.6267C5.70795 17.3342 5.83376 17.0563 6.00144 16.8038C6.14478 16.5508 6.36885 16.3531 6.63785 16.2424C6.74236 16.2029 6.8548 16.1888 6.96582 16.2014C7.07685 16.214 7.18327 16.2529 7.27626 16.3148C7.75961 16.6287 7.82674 17.0546 7.47765 17.5925L6.7909 18.653L7.2098 18.9226L7.96905 17.7515C8.10119 17.5077 8.31512 17.3181 8.57323 17.2163C8.68455 17.1863 8.8012 17.1817 8.91452 17.203C9.02783 17.2242 9.1349 17.2707 9.22776 17.339C9.33503 17.4076 9.4258 17.4989 9.4936 17.6066C9.56235 17.7176 9.6012 17.8444 9.60638 17.9749C9.61259 18.1371 9.58729 18.2991 9.53186 18.4517C9.45672 18.6606 9.35592 18.8593 9.23179 19.0433C9.06372 19.3085 8.84956 19.5416 8.59942 19.7315C8.34161 19.9226 8.0477 20.0595 7.73544 20.1339L7.89051 20.6289C8.24263 20.5355 8.57307 20.3742 8.86324 20.1541C9.18952 19.9076 9.46856 19.6042 9.68694 19.2586C9.89132 18.9549 10.0602 18.6288 10.1904 18.2867C10.2864 18.0378 10.3401 17.7746 10.3495 17.508C10.3569 17.3029 10.3119 17.0993 10.2186 16.9164C10.1288 16.7529 9.99927 16.6146 9.84201 16.514C9.72644 16.4319 9.59578 16.3735 9.45752 16.3421C9.31927 16.3107 9.17617 16.3069 9.03644 16.3309C8.74144 16.3965 8.47115 16.5444 8.25704 16.7575C8.33629 16.5019 8.33629 16.2283 8.25704 15.9727C8.16243 15.7413 7.99486 15.547 7.77974 15.4194C7.63724 15.3263 7.47249 15.2728 7.30244 15.2644C7.11522 15.2582 6.92928 15.2975 6.7607 15.3791C6.55084 15.4817 6.35904 15.6176 6.19277 15.7816C5.97841 15.9932 5.7892 16.2289 5.62887 16.4838C5.41257 16.8099 5.25386 17.1706 5.15962 17.5503C5.07428 17.8888 5.05378 18.2404 5.0992 18.5866L5.58658 18.5443Z" fill="white"/>
<path d="M9.65863 14.8837C9.9174 15.135 10.2224 15.3339 10.5568 15.4693C10.8525 15.5852 11.1707 15.632 11.4873 15.6061C11.8109 15.576 12.1245 15.4779 12.4076 15.3184C12.7297 15.137 13.0213 14.9061 13.2716 14.6342C13.5279 14.3699 13.74 14.0662 13.9 13.7348C14.042 13.444 14.1209 13.1265 14.1316 12.8031C14.1379 12.4857 14.0732 12.1708 13.9423 11.8816C13.6238 11.227 13.0764 10.7116 12.4036 10.4328C12.1069 10.3183 11.7882 10.2722 11.4712 10.298C11.1485 10.3286 10.8358 10.4259 10.5528 10.5837C10.2321 10.7637 9.94185 10.9932 9.69286 11.2638C9.43598 11.53 9.22258 11.8349 9.06049 12.1673C8.91782 12.4586 8.83822 12.7768 8.82687 13.1009C8.82231 13.4189 8.89123 13.7335 9.02827 14.0205C9.17957 14.3468 9.39378 14.6402 9.65863 14.8837ZM9.68279 12.127C9.76266 11.9251 9.88099 11.7406 10.0312 11.5838C10.1785 11.4242 10.3558 11.295 10.5528 11.2034C10.7473 11.1151 10.9596 11.0731 11.1731 11.0807C11.4124 11.0915 11.6472 11.1497 11.8639 11.2517C12.4036 11.5233 12.8523 11.9464 13.1548 12.4691C13.2707 12.6786 13.3433 12.9092 13.3683 13.1472C13.3872 13.3597 13.3576 13.5737 13.2817 13.773C13.2011 13.9745 13.0828 14.1589 12.9333 14.3163C12.7852 14.4754 12.6073 14.6039 12.4097 14.6946C12.2164 14.7845 12.0045 14.8273 11.7914 14.8193C11.5514 14.8088 11.3159 14.7506 11.0986 14.6483C10.8273 14.5185 10.5795 14.3444 10.3655 14.1332C10.1413 13.9322 9.9527 13.6947 9.80766 13.4309C9.69265 13.2211 9.62011 12.9907 9.59418 12.7528C9.57845 12.5396 9.61151 12.3256 9.69085 12.127H9.68279Z" fill="white"/>
<path d="M16.5765 11.3946L14.1457 8.02825L16.355 6.4346L18.7858 9.80098L19.5672 9.23757L16.8444 5.46875L13.0723 8.18922L15.7951 11.958L16.5765 11.3946Z" fill="white"/>
<path d="M21.0698 8.41501L20.9852 7.2077L23.269 6.13118L24.1471 6.96422L25.0131 6.56179L21.3155 3.16321L19.9299 3.81516L20.2018 8.82751L21.0698 8.41501ZM20.8946 3.9882L22.8461 5.78508L20.9812 6.66441L20.8342 4.01637L20.8946 3.9882Z" fill="white"/>
<path d="M30.0758 4.52909L29.6529 4.22927C29.3355 4.76155 28.8199 5.14648 28.219 5.29975C27.9873 5.36493 27.746 5.38878 27.5061 5.37018C27.2825 5.35285 27.0661 5.28398 26.8737 5.16896C26.6695 5.04507 26.4955 4.87736 26.3642 4.67799C26.0493 4.16788 25.8911 3.57673 25.909 2.97769C25.9232 2.74129 25.9863 2.51039 26.0943 2.29959C26.1979 2.10759 26.3448 1.94228 26.5233 1.81666C26.7106 1.68523 26.92 1.58845 27.1415 1.53093C27.7386 1.36528 28.377 1.44194 28.9178 1.74422L29.1353 1.27337C28.8158 1.10499 28.466 1.00171 28.1062 0.969531C27.7176 0.929737 27.3249 0.962489 26.9482 1.06612C26.5918 1.15722 26.2519 1.3039 25.9412 1.50075C25.6641 1.67416 25.4273 1.90465 25.2464 2.17684C25.0735 2.44295 24.9639 2.74515 24.9262 3.06019C24.8853 3.41883 24.9161 3.78201 25.0168 4.12866C25.1029 4.47957 25.2591 4.80947 25.476 5.09853C25.6692 5.35322 25.9187 5.55982 26.2051 5.70219C26.5022 5.84523 26.826 5.92473 27.1556 5.9356C27.5364 5.94783 27.9167 5.90169 28.2834 5.79878C28.6615 5.70013 29.0179 5.5323 29.3347 5.30378C29.6297 5.09604 29.8814 4.83292 30.0758 4.52909Z" fill="white"/>
<path d="M34.3596 0.0784752L34.5328 2.19529L31.816 2.41865L31.6428 0.299816L30.6821 0.378291L31.0628 5.01034L32.0214 4.93388L31.8583 2.91364L34.573 2.6923L34.7382 4.71052L35.6988 4.63205L35.3202 0L34.3596 0.0784752Z" fill="white"/>
<path d="M42.2562 2.88146C42.3014 2.52363 42.2748 2.16038 42.1777 1.81299C42.091 1.50732 41.936 1.22526 41.7245 0.987993C41.5063 0.74871 41.2401 0.558099 40.9431 0.428605C40.2604 0.138959 39.5075 0.0563852 38.7782 0.191168C38.4593 0.253272 38.1573 0.382204 37.892 0.569459C37.6349 0.754829 37.4234 0.996384 37.2738 1.27574C36.9457 1.92826 36.8656 2.67746 37.0482 3.38451C37.1325 3.69073 37.287 3.97316 37.4993 4.2095C37.718 4.44911 37.985 4.63975 38.2827 4.76889C38.6219 4.91625 38.9821 5.00993 39.3501 5.04657C39.7158 5.09065 40.0862 5.07707 40.4477 5.00633C40.7649 4.94293 41.0653 4.81409 41.3298 4.62804C41.5877 4.44229 41.8004 4.20089 41.9521 3.92176C42.1221 3.5988 42.2255 3.24505 42.2562 2.88146ZM41.2311 2.77079C41.2045 3.07035 41.1283 3.36343 41.0056 3.63804C40.9073 3.85692 40.7663 4.05395 40.5907 4.21755C40.4335 4.36165 40.2444 4.46646 40.0389 4.5234C39.6164 4.63767 39.1663 4.58882 38.7782 4.38657C38.5907 4.28465 38.4289 4.14154 38.3049 3.96804C38.1697 3.76992 38.0752 3.54695 38.027 3.31207C37.9188 2.71838 37.9853 2.10611 38.2183 1.54939C38.3173 1.33095 38.4582 1.13405 38.6332 0.969884C38.7906 0.82616 38.9796 0.721396 39.185 0.664032C39.6082 0.549643 40.0589 0.598487 40.4477 0.800861C40.635 0.902153 40.7963 1.04541 40.919 1.21939C41.0554 1.41706 41.1506 1.64015 41.1989 1.87537C41.2596 2.17335 41.2705 2.47931 41.2311 2.78085V2.77079Z" fill="white"/>
<path d="M43.7265 5.14312C43.9019 5.42226 44.1346 5.66095 44.4093 5.84336C44.7261 6.05584 45.0739 6.21806 45.4404 6.32428C45.8134 6.44009 46.2047 6.4858 46.5944 6.45909C46.955 6.43901 47.3082 6.34807 47.6336 6.19147L47.4322 5.71458C47.1489 5.85779 46.8404 5.94458 46.5239 5.97013C46.2288 5.98815 45.9328 5.9534 45.6498 5.86751C45.4185 5.79898 45.2005 5.69146 45.0054 5.54958C44.826 5.41687 44.6788 5.24566 44.5744 5.04855C44.4673 4.83456 44.4088 4.59957 44.4032 4.36038C44.397 4.062 44.4412 3.7647 44.5341 3.48106C44.6155 3.19356 44.7442 2.92157 44.9148 2.67618C45.0519 2.48271 45.2283 2.32023 45.4323 2.1993C45.6211 2.09031 45.8329 2.02756 46.0506 2.01619C46.2793 2.0033 46.5084 2.03123 46.7273 2.09869C47.0108 2.18404 47.2763 2.32043 47.5107 2.50112C47.7574 2.69783 47.9627 2.94127 48.1149 3.21746L48.5479 2.93374C48.3643 2.62153 48.1214 2.34813 47.8329 2.12887C47.5245 1.88983 47.1741 1.71036 46.7998 1.59966C46.4476 1.48763 46.0799 1.43194 45.7103 1.43467C45.3861 1.435 45.0656 1.50356 44.7698 1.63588C44.4821 1.76979 44.2292 1.96808 44.0307 2.21539C43.5923 2.79488 43.3778 3.51288 43.4265 4.23764C43.4545 4.55872 43.5572 4.8688 43.7265 5.14312Z" fill="white"/>
<path d="M50.32 8.20406L52.1728 4.48957L53.7799 5.29042L54.0014 4.84371L49.9273 2.81543L49.7037 3.26012L51.3108 4.06097L49.458 7.77345L50.32 8.20406Z" fill="white"/>
<path d="M53.6049 10.1494L57.8623 8.58795L57.9147 8.62819L55.6611 11.6706L56.4365 12.2421L59.2036 8.50746L58.1886 7.75692L53.9311 9.31636L53.8788 9.27612L56.1323 6.2357L55.357 5.66223L52.5898 9.39685L53.6049 10.1494Z" fill="white"/>
</g>
<defs>
<linearGradient id="paint0_linear_3123_29173" x1="17.2875" y1="37.3667" x2="54.6198" y2="37.3667" gradientUnits="userSpaceOnUse">
<stop stop-color="#F6AD58"/>
<stop offset="0.16" stop-color="#F18259"/>
<stop offset="0.35" stop-color="#EC595A"/>
<stop offset="0.53" stop-color="#E9385B"/>
<stop offset="0.7" stop-color="#E6215C"/>
<stop offset="0.86" stop-color="#E5135C"/>
<stop offset="1" stop-color="#E40E5C"/>
</linearGradient>
<linearGradient id="paint1_linear_3123_29173" x1="52.2051" y1="37.4" x2="19.6842" y2="37.4" gradientUnits="userSpaceOnUse">
<stop stop-color="#F6AD58"/>
<stop offset="0.16" stop-color="#F18259"/>
<stop offset="0.35" stop-color="#EC595A"/>
<stop offset="0.53" stop-color="#E9385B"/>
<stop offset="0.7" stop-color="#E6215C"/>
<stop offset="0.86" stop-color="#E5135C"/>
<stop offset="1" stop-color="#E40E5C"/>
</linearGradient>
<linearGradient id="paint2_linear_3123_29173" x1="23.8591" y1="42.7409" x2="51.0495" y2="27.0294" gradientUnits="userSpaceOnUse">
<stop stop-color="#F6AD58"/>
<stop offset="0.16" stop-color="#F18259"/>
<stop offset="0.35" stop-color="#EC595A"/>
<stop offset="0.53" stop-color="#E9385B"/>
<stop offset="0.7" stop-color="#E6215C"/>
<stop offset="0.86" stop-color="#E5135C"/>
<stop offset="1" stop-color="#E40E5C"/>
</linearGradient>
<linearGradient id="paint3_linear_3123_29173" x1="27.8286" y1="35.7912" x2="43.9642" y2="35.7912" gradientUnits="userSpaceOnUse">
<stop stop-color="#F6AD58"/>
<stop offset="0.2" stop-color="#F4A35A"/>
<stop offset="1" stop-color="#EF7F63"/>
</linearGradient>
<clipPath id="clip0_3123_29173">
<rect width="72" height="72" fill="white"/>
</clipPath>
</defs>
</svg>
