<svg width="13" height="20" viewBox="0 0 13 20" fill="none" xmlns="http://www.w3.org/2000/svg">
<path fill-rule="evenodd" clip-rule="evenodd" d="M8.86667 5.16134C8.86667 3.98295 7.87368 3.02474 6.65291 3.02474C5.43311 3.02474 4.43916 3.98295 4.43916 5.16134C4.43916 6.3388 5.43311 7.29763 6.65291 7.29763C7.87368 7.29763 8.86667 6.3388 8.86667 5.16134ZM11.9995 5.16132C11.9995 8.00662 9.60214 10.3211 6.65292 10.3211C3.70434 10.3211 1.30632 8.00662 1.30632 5.16132C1.30632 2.31509 3.70434 0 6.65292 0C9.60214 0 11.9995 2.31509 11.9995 5.16132ZM11.9345 13.2926C10.9677 13.8787 9.91813 14.2943 8.82981 14.5337L11.8187 17.4191C12.431 18.0089 12.431 18.9668 11.8187 19.5573C11.207 20.1477 10.2156 20.1477 9.60462 19.5573L6.66596 16.7218L3.72985 19.5573C3.4237 19.8522 3.02254 19.9998 2.62137 19.9998C2.22085 19.9998 1.82033 19.8522 1.51418 19.5573C0.902515 18.9668 0.902515 18.0095 1.51354 17.4191L4.50275 14.5337C3.41442 14.2943 2.36481 13.8781 1.39805 13.2926C0.666423 12.8473 0.446647 11.9144 0.907633 11.2076C1.36734 10.4998 2.3341 10.2867 3.067 10.732C5.25581 12.0611 8.07547 12.0614 10.2655 10.732C10.9985 10.2867 11.9649 10.4998 12.4256 11.2076C12.8865 11.9138 12.6661 12.8473 11.9345 13.2926Z" fill="white"/>
</svg>
