<svg width="22" height="13" viewBox="0 0 22 13" fill="none" xmlns="http://www.w3.org/2000/svg">
<path fill-rule="evenodd" clip-rule="evenodd" d="M11.7129 12.5634C11.7129 12.5634 12.0979 12.5214 12.2951 12.3135C12.4756 12.1229 12.4694 11.7635 12.4694 11.7635C12.4694 11.7635 12.4454 10.0848 13.2394 9.83691C14.022 9.59315 15.0268 11.4603 16.0931 12.1783C16.8987 12.7211 17.5101 12.6023 17.5101 12.6023L20.3597 12.5634C20.3597 12.5634 21.8497 12.4732 21.1433 11.323C21.0848 11.2288 20.7311 10.4719 19.0251 8.91717C17.2378 7.28969 17.4777 7.55292 19.6293 4.73736C20.9398 3.02283 21.4636 1.97608 21.2998 1.5285C21.1443 1.10038 20.1802 1.21407 20.1802 1.21407L16.9727 1.23353C16.9727 1.23353 16.7348 1.20178 16.5585 1.30522C16.3863 1.40662 16.2747 1.64321 16.2747 1.64321C16.2747 1.64321 15.7676 2.96957 15.0904 4.09825C13.662 6.47852 13.0912 6.6045 12.8575 6.45701C12.3139 6.11185 12.4495 5.07227 12.4495 4.33382C12.4495 2.02627 12.8064 1.06453 11.7557 0.815651C11.4072 0.73269 11.1505 0.678406 10.2584 0.669189C9.11374 0.657922 8.14545 0.673285 7.59662 0.936508C7.23142 1.11165 6.9497 1.5029 7.12186 1.52543C7.33368 1.55308 7.81365 1.65243 8.06824 1.99247C8.39692 2.43186 8.38544 3.41715 8.38544 3.41715C8.38544 3.41715 8.5743 6.13336 7.94407 6.47032C7.5121 6.7018 6.91944 6.22963 5.64543 4.06957C4.9933 2.96342 4.50081 1.74051 4.50081 1.74051C4.50081 1.74051 4.40586 1.51211 4.23578 1.38921C4.03023 1.2407 3.74329 1.19461 3.74329 1.19461L0.695476 1.21407C0.695476 1.21407 0.237417 1.22636 0.0694271 1.42198C-0.0797812 1.59508 0.0579495 1.95457 0.0579495 1.95457C0.0579495 1.95457 2.44424 7.43513 5.14668 10.1974C7.62479 12.7293 10.4378 12.5634 10.4378 12.5634H11.7129Z" fill="white"/>
</svg>
