<svg width="21" height="21" viewBox="0 0 21 21" fill="none" xmlns="http://www.w3.org/2000/svg">
<path fill-rule="evenodd" clip-rule="evenodd" d="M4.80936 0.040817C5.05223 0.0204085 5.26039 0.0795932 5.39509 0.302046C5.69713 0.79185 6.00122 1.28165 6.28898 1.7837C6.62164 2.36331 6.92777 2.95923 7.2543 3.54496C7.33798 3.7021 7.45431 3.84496 7.55227 3.99599C7.64206 4.13885 7.72778 4.28579 7.81146 4.42865C7.98289 4.75314 7.97472 5.07968 7.71962 5.33887C7.35635 5.7103 6.95634 6.0552 6.57062 6.40827C6.24816 6.70419 5.91346 6.98787 5.59917 7.28992C5.35427 7.52666 5.291 7.82258 5.45631 8.13483C5.71142 8.61239 5.96448 9.08995 6.24408 9.5573C7.28083 11.2859 8.60535 12.7553 10.2788 13.888C10.9238 14.3268 11.5952 14.7288 12.2728 15.1125C12.9115 15.4737 13.1605 15.4125 13.6565 14.8594C14.1177 14.3472 14.5626 13.8268 15.0218 13.3104C15.132 13.1859 15.2646 13.0757 15.3932 12.9696C15.6544 12.7492 15.9402 12.7247 16.2402 12.8757C16.3238 12.9165 16.4136 12.9533 16.4871 13.0063C17.283 13.5757 18.1729 13.9778 19.0137 14.4615C19.4647 14.7207 19.9035 14.9982 20.3464 15.2635C20.5851 15.4043 20.6811 15.6105 20.6647 15.8941C20.6198 16.6921 20.4872 17.4758 20.0239 18.1493C19.83 18.4289 19.5545 18.6738 19.277 18.8717C18.5076 19.4105 17.6484 19.7432 16.7341 19.9473C15.9034 20.133 15.0748 20.0656 14.2789 19.8167C12.7422 19.3432 11.2278 18.8003 9.83394 17.9779C8.56861 17.2289 7.41757 16.3248 6.35225 15.3145C5.00324 14.0308 3.79914 12.6308 2.82566 11.0369C2.19095 10.0022 1.73788 8.88791 1.32767 7.75115C1.07869 7.06543 0.833786 6.38582 0.72358 5.65928C0.597047 4.83682 0.684804 4.04497 0.948074 3.26536C1.18481 2.56127 1.48074 1.88779 1.92768 1.28574C2.27871 0.818381 2.71749 0.475518 3.28485 0.322454C3.73996 0.202044 4.19915 0.106124 4.6563 0C4.71548 0.0469396 4.76242 0.0469396 4.80936 0.040817Z" fill="white"/>
</svg>
