<svg width="24" height="24" viewBox="0 0 24 24" fill="none" xmlns="http://www.w3.org/2000/svg">
<rect x="3.5" y="4" width="18" height="17" rx="2" stroke="#677F92" stroke-width="2"/>
<path d="M9.5 11C9.5 10.4477 9.05228 10 8.5 10C7.94772 10 7.5 10.4477 7.5 11C7.5 11.5523 7.94772 12 8.5 12C9.05228 12 9.5 11.5523 9.5 11Z" fill="#677F92"/>
<path d="M9.5 2C9.5 1.44772 9.05228 1 8.5 1C7.94772 1 7.5 1.44772 7.5 2V6C7.5 6.55228 7.94772 7 8.5 7C9.05228 7 9.5 6.55228 9.5 6V2Z" fill="#677F92"/>
<path d="M13.5 2C13.5 1.44772 13.0523 1 12.5 1C11.9477 1 11.5 1.44772 11.5 2V6C11.5 6.55228 11.9477 7 12.5 7C13.0523 7 13.5 6.55228 13.5 6V2Z" fill="#677F92"/>
<path d="M17.5 2C17.5 1.44772 17.0523 1 16.5 1C15.9477 1 15.5 1.44772 15.5 2V6C15.5 6.55228 15.9477 7 16.5 7C17.0523 7 17.5 6.55228 17.5 6V2Z" fill="#677F92"/>
<path d="M13.5 11C13.5 10.4477 13.0523 10 12.5 10C11.9477 10 11.5 10.4477 11.5 11C11.5 11.5523 11.9477 12 12.5 12C13.0523 12 13.5 11.5523 13.5 11Z" fill="#677F92"/>
<path d="M17.5 11C17.5 10.4477 17.0523 10 16.5 10C15.9477 10 15.5 10.4477 15.5 11C15.5 11.5523 15.9477 12 16.5 12C17.0523 12 17.5 11.5523 17.5 11Z" fill="#677F92"/>
<path d="M9.5 15C9.5 14.4477 9.05228 14 8.5 14C7.94772 14 7.5 14.4477 7.5 15C7.5 15.5523 7.94772 16 8.5 16C9.05228 16 9.5 15.5523 9.5 15Z" fill="#677F92"/>
<path d="M13.5 15C13.5 14.4477 13.0523 14 12.5 14C11.9477 14 11.5 14.4477 11.5 15C11.5 15.5523 11.9477 16 12.5 16C13.0523 16 13.5 15.5523 13.5 15Z" fill="#677F92"/>
<path d="M17.5 15C17.5 14.4477 17.0523 14 16.5 14C15.9477 14 15.5 14.4477 15.5 15C15.5 15.5523 15.9477 16 16.5 16C17.0523 16 17.5 15.5523 17.5 15Z" fill="#677F92"/>
</svg>
