<svg width="24" height="24" viewBox="0 0 24 24" fill="none" xmlns="http://www.w3.org/2000/svg">
<g id="icon/list">
<path id="Rectangle 150" d="M16.7998 8C16.7998 7.44772 16.3521 7 15.7998 7H6.99981C6.44752 7 5.99981 7.44772 5.99981 8C5.99981 8.55228 6.44752 9 6.99981 9H15.7998C16.3521 9 16.7998 8.55228 16.7998 8Z" fill="#677F92"/>
<path id="Rectangle 150_2" d="M14.3999 12C14.3999 11.4477 13.9522 11 13.3999 11H6.9999C6.44762 11 5.9999 11.4477 5.9999 12C5.9999 12.5523 6.44762 13 6.9999 13H13.3999C13.9522 13 14.3999 12.5523 14.3999 12Z" fill="#677F92"/>
<path id="Rectangle 150_3" d="M18 16C18 15.4477 17.5523 15 17 15H7C6.44771 15 6 15.4477 6 16C6 16.5523 6.44771 17 7 17H17C17.5523 17 18 16.5523 18 16Z" fill="#677F92"/>
<rect id="Rectangle 253" x="3" y="3" width="18" height="18" rx="2" stroke="#677F92" stroke-width="2"/>
</g>
</svg>
