<svg width="24" height="24" viewBox="0 0 24 24" fill="none" xmlns="http://www.w3.org/2000/svg">
<g id="icon/tile">
<path id="Rectangle 150" d="M9 8C9 7.44772 8.55228 7 8 7C7.44772 7 7 7.44772 7 8V10C7 10.5523 7.44772 11 8 11C8.55228 11 9 10.5523 9 10V8Z" fill="#677F92"/>
<path id="Rectangle 256" d="M9 14C9 13.4477 8.55228 13 8 13C7.44772 13 7 13.4477 7 14V16C7 16.5523 7.44772 17 8 17C8.55228 17 9 16.5523 9 16V14Z" fill="#677F92"/>
<path id="Rectangle 254" d="M13 8C13 7.44772 12.5523 7 12 7C11.4477 7 11 7.44772 11 8V10C11 10.5523 11.4477 11 12 11C12.5523 11 13 10.5523 13 10V8Z" fill="#677F92"/>
<path id="Rectangle 257" d="M13 14C13 13.4477 12.5523 13 12 13C11.4477 13 11 13.4477 11 14V16C11 16.5523 11.4477 17 12 17C12.5523 17 13 16.5523 13 16V14Z" fill="#677F92"/>
<path id="Rectangle 255" d="M17 8C17 7.44772 16.5523 7 16 7C15.4477 7 15 7.44772 15 8V10C15 10.5523 15.4477 11 16 11C16.5523 11 17 10.5523 17 10V8Z" fill="#677F92"/>
<path id="Rectangle 258" d="M17 14C17 13.4477 16.5523 13 16 13C15.4477 13 15 13.4477 15 14V16C15 16.5523 15.4477 17 16 17C16.5523 17 17 16.5523 17 16V14Z" fill="#677F92"/>
<rect id="Rectangle 253" x="3" y="3" width="18" height="18" rx="2" stroke="#677F92" stroke-width="2"/>
</g>
</svg>
